<?xml version="1.0" encoding="utf-8"?>
<!-- Generator: Adobe Illustrator 25.2.1, SVG Export Plug-In . SVG Version: 6.00 Build 0)  -->
<svg version="1.1" id="Layer_1" xmlns="http://www.w3.org/2000/svg" xmlns:xlink="http://www.w3.org/1999/xlink" x="0px" y="0px"
	 viewBox="0 0 238.9 908.2" style="enable-background:new 0 0 238.9 908.2;" xml:space="preserve">
<style type="text/css">
	.st0{clip-path:url(#SVGID_2_);fill:#C9262C;}
	.st1{clip-path:url(#SVGID_4_);}
	.st2{fill:none;stroke:#FFC15E;stroke-width:2;stroke-linecap:round;stroke-linejoin:round;stroke-miterlimit:10;}
	.st3{opacity:5.000000e-02;clip-path:url(#SVGID_6_);}
	.st4{fill:#E5242A;}
</style>
<g>
	<g>
		<defs>
			<rect id="SVGID_1_" y="-65.7" width="238.9" height="908.2"/>
		</defs>
		<clipPath id="SVGID_2_">
			<use xlink:href="#SVGID_1_"  style="overflow:visible;"/>
		</clipPath>
		<rect x="-11.9" y="807.2" class="st0" width="264.8" height="35.3"/>
	</g>
	<g>
		<defs>
			<rect id="SVGID_3_" y="-65.7" width="238.9" height="908.2"/>
		</defs>
		<clipPath id="SVGID_4_">
			<use xlink:href="#SVGID_3_"  style="overflow:visible;"/>
		</clipPath>
		<g class="st1">
			<g>
				<polyline class="st2" points="26.3,836.7 26.3,813 55.2,813 55.2,836.7 33.2,836.7 33.2,820.7 47.2,820.7 47.2,829 40.7,829 
									"/>
				<polyline class="st2" points="26.3,813 26.3,836.7 -2.7,836.7 -2.7,813 19.3,813 19.3,829 5.3,829 5.3,820.6 11.8,820.6 				"/>
			</g>
			<g>
				<polyline class="st2" points="89.4,836.7 89.4,813 118.4,813 118.4,836.7 96.4,836.7 96.4,820.7 110.4,820.7 110.4,829 
					103.9,829 				"/>
				<polyline class="st2" points="89.4,813 89.4,836.7 60.5,836.7 60.5,813 82.4,813 82.4,829 68.5,829 68.5,820.6 74.9,820.6 				
					"/>
			</g>
			<g>
				<polyline class="st2" points="152.6,836.7 152.6,813 181.6,813 181.6,836.7 159.6,836.7 159.6,820.7 173.6,820.7 173.6,829 
					167.1,829 				"/>
				<polyline class="st2" points="152.6,813 152.6,836.7 123.6,836.7 123.6,813 145.6,813 145.6,829 131.7,829 131.7,820.6 
					138.1,820.6 				"/>
			</g>
			<g>
				<polyline class="st2" points="216,836.7 216,813 245,813 245,836.7 223,836.7 223,820.7 237,820.7 237,829 230.5,829 				"/>
				<polyline class="st2" points="216,813 216,836.7 187,836.7 187,813 209,813 209,829 195.1,829 195.1,820.6 201.5,820.6 				"/>
			</g>
		</g>
	</g>
	<g>
		<defs>
			<rect id="SVGID_5_" y="-65.7" width="238.9" height="908.2"/>
		</defs>
		<clipPath id="SVGID_6_">
			<use xlink:href="#SVGID_5_"  style="overflow:visible;"/>
		</clipPath>
		<g id="WzGQwL_1_" class="st3">
			<g>
				<path class="st4" d="M-123.4,447.2c-3.7-1.1-7.4-1.2-11.1-0.4c-3.3,0.7-6.5,2.1-9.6,3.4c-3.2,1.4-6.1,3.3-9,5
					c-0.9,0.5-1.7,1.3-2.5,2c-3.1,2.7-6.5,5-10.1,7c-3.6,2.1-7.7,3.2-11.8,3.5c-2,0.2-4,0.3-6,0c-0.9-0.1-1.8,0.2-2.7,0
					c-3.4-0.7-6.8-1.3-10.1-2.7c-2.7-1.2-5.3-2.6-7.5-4.5c-1.9-1.6-3.4-3.6-4.6-5.7c-1.2-2-2.3-4.1-3.5-6.1c-1.1-1.9-2.8-3-4.8-4
					c-1.4-0.7-2.9-0.8-4.3-1.3c-4.5-1.4-8.6-3.5-11.9-7c-2.4-2.5-4.8-5.1-6.9-7.9c-3.5-4.4-5.7-9.4-7.1-14.8c-0.6-2.3-0.8-4.6-0.8-7
					c0.1-1.7,0.1-3.4,0.3-5.1s0.7-3.3,1-5c0.3-1.5,0.8-3,0.9-4.6c0-0.6-0.1-0.9-0.8-0.8c-1.7,0.2-3.4,0.3-5.1,0.5
					c-1.4,0.1-2.7-0.2-4-0.3c-2.4-0.2-4.9-0.5-7.2-1.3c-3.4-1.3-6.7-3-9-6c-1.6-2-3-4-4-6.3c-0.4-0.9-0.7-1.9-0.9-2.8
					c-0.2-1-0.8-1.4-1.7-1.6c-1.7-0.4-3.4-0.8-5-1.5c-2.4-1.2-4.6-2.7-6.6-4.6c-1.7-1.6-3.4-3.1-4.8-4.9c-1.7-2.3-2.6-4.9-2.3-7.8
					c0.2-3.2,1.2-6,3.3-8.3c1-1.1,2.2-2.1,3.4-2.9c2.7-1.9,5.6-3.5,8.7-4.6c2-0.7,4-1.3,6.1-1.5c1.3-0.2,2.1-0.8,2.6-2.1
					c1.2-3.6,3.7-6.1,6.8-8.1c2.7-1.8,5.7-2.8,8.8-3.7c0.3-0.1,0.6-0.2,0.9-0.3c0.2-0.1,0.4-0.2,0.7-0.3c-1.1-0.9-2.3-1.3-3.4-1.9
					c-3.3-1.8-6.3-4.1-8.8-6.9c-0.7-0.8-1.5-1.6-2.3-2.4c-2.7-3.1-3.9-6.9-4-10.9c-0.1-2.6,0.3-5.2,0.9-7.7c1-4.2,2.8-7.9,5.6-11.1
					c2.8-3.3,6.3-5.6,10.6-6.7c1.8-0.4,3.7-1,5.6-1c0.6,0,0.8-0.3,1-0.7c0.6-0.9,1.1-1.8,1.8-2.6c1.5-1.9,3.4-3.2,5.6-4.2
					c1.9-0.9,4-1.5,6.1-1.6c1.3-0.1,2.2-0.6,2.9-1.8c1.9-3,4.2-5.7,6.8-8.1c2.8-2.6,6.2-4,9.9-4.6c1.6-0.2,3.1-0.2,4.7,0.2
					c1.6,0.5,3.4,0.5,5.1,0.6c4.8,0.4,8.9,2.3,12.8,5c2.2,1.5,4.2,3.2,5.9,5.3c1.3,1.7,2.2,3.5,2.8,5.6c0.3,1.3,0.6,2.5,0.9,3.8
					c0.4,1.3,1,2.2,2.2,2.9c1.8,1.1,3.6,2.1,5.3,3.4c2,1.5,3.6,3.3,5.3,5.1c2.4,2.4,4,5.3,5.4,8.4c0.7,1.5,1,3.1,0.9,4.8
					c-0.1,1.2-0.2,2.5-0.1,3.7c0.1,0.7,0.3,1.3,1,1.5c1.8,0.6,3.4,1.7,5,2.7c2,1.3,3.8,2.7,5.4,4.4c2,2.2,3.2,4.8,4.1,7.6
					c0.4,1.1,0.4,1.2,1.4,0.6c2.4-1.4,4.7-2.9,7.2-4c2.8-1.3,5.8-1.9,8.8-2.3c2.9-0.4,5.8-0.5,8.6-0.4c1.9,0.1,3.8-0.1,5.7,0
					c3.8,0.2,7.4,1.3,10.9,2.6c6.3,2.3,11.7,5.9,16.4,10.5c2.4,2.4,3.9,5.3,5.6,8.1c2.5,4.3,5,8.6,7.7,12.8c1.6,2.4,3.2,4.8,5.1,7
					c2.6,2.9,5.3,5.7,8.6,7.9c2.2,1.4,4.6,2.5,7.1,3.1c0.2,0,0.4,0.1,0.6,0.1c0.5,0.1,0.9,0.8,1.5,0.5c0.4-0.2,0.7-0.7,1-1.1
					c2.6-3.1,6.1-4.8,9.8-6c3.2-1,6.5-1.5,9.8-1.9c2.2-0.3,4.5,0,6.6,0.6c1.6,0.4,3.2,0.8,4.8,1.3c1.1,0.3,2.1,0.8,3,1.3
					c2.6,1.5,4.7,3.5,6.8,5.6c1.1,1.1,2,2.2,3,3.3c1.7,1.9,3.1,4,4.4,6.2c0.6,1.1,0.8,1.1,1.9,0.8c3-0.7,6.1-0.9,9.2-1
					c1.3-0.1,2.6,0.1,3.9,0.1c2.5,0.1,4.7-0.6,5.9-3c1.2-2.2,2.9-3.8,5.3-4.6c1.3-0.4,2.6-0.5,3.8-0.5c2.8,0,5.6,0.3,8.3,1
					c2.8,0.8,5.1,2.2,7.2,4.2c1.4,1.4,2.9,2.8,4.4,4c1.4,1.1,2.9,1.7,4.6,1.9c1.8,0.3,3.7,0,5.5,0.2c4.7,0.6,8.9,2.4,12.8,5.1
					c0.5,0.3,1,0.7,1.4,1.1c2.5,1.7,3.7,4.3,5,6.8c1.5,3,1.9,6.3,2.7,9.5c0.2,0.9,0.5,1.8,0.8,2.7c1,2.4,1.5,4.9,1.2,7.5
					c-0.1,0.7,0.1,1.4,0.1,2.1c-0.1,2-0.6,3.8-1.4,5.7c-0.5,1.3-0.5,1.3,0.7,2c3.5,2,6.5,4.5,9.2,7.6c1.9,2.1,3.5,4.4,4.9,6.8
					c1.8,3,2.9,6.3,3.5,9.7c0.6,2.8,0.9,5.7,0.9,8.6c0,2.4-0.3,4.9-1.1,7.2c-0.7,2-1.4,4-2.8,5.7c-1.8,2.3-3.8,4.4-6.2,6
					c-1.7,1.2-3.6,2.1-5.5,3c-1.6,0.8-3.3,1-5.1,1.2c-2.8,0.2-2.5,0-2.6,2.5c-0.1,1.9,0.1,3.8,1.3,5.4c1.6,2.2,3.7,3.8,6.4,4
					c2.1,0.2,4.1-0.4,6.1-1.4c1.6-0.8,3.1-1.9,4.5-3c1.6-1.2,3.5-2,5.4-2.6c3.5-1.2,7.2-1.8,10.9-1.5c4,0.4,7.6,1.9,10.9,4.3
					c1.9,1.4,3.6,3,4.8,5.1c0.9,1.5,1.3,3.2,1.6,4.8c0.3,1.3,0.9,2.4,1.8,3.4c0.6,0.7,1.2,0.9,2.2,0.9c1.9-0.1,3.5-0.9,5.2-1.5
					c5-1.7,9.7-4.4,14.6-6.2c4-1.5,8.1-2.3,12.5-2.2c2.2,0,4.5-0.1,6.7-0.2c0.8,0,1.6,0.1,2.4,0.2c1.2,0.1,2.4,0.4,3.6,0.1
					c0.1,0,0.3,0,0.4,0c2.3,0.5,4.7,0.6,7.1,1.2c0.2,0.1,0.5,0.1,0.7,0.1c3.5,0.3,6.8,1.4,10.2,2.4c2.7,0.8,5.4,1.7,8,2.8
					c2.3,0.9,4.4,2.1,6.4,3.5c0.7,0.5,1.1,0.4,1.7,0c1.6-1,3.3-1.5,5.2-1.7c3.1-0.3,5.9-1.2,8.3-3.3c2.6-2.2,5.2-4.4,7.3-7.1
					c0.9-1.2,2.3-2,3.6-2.7c2.3-1.2,4.7-2.3,7.2-2.8c1.4-0.3,2.9-0.2,4.3-0.3c2.6-0.1,5.2-0.2,7.8-0.1c1.5,0,3.1,0,4.6,0.6
					c1.8,0.7,3.7,0.6,5.6,1.2c1.9,0.6,3.8,1.3,5.4,2.5c1.5,1.1,3.2,2.1,4.8,3.1c3.2,2.1,6.1,4.6,8.3,7.7c0.1,0.2,0.3,0.4,0.4,0.6
					c0.7,1.8,2.2,2.7,4,3.1c2.9,0.8,5.8,1.5,8.6,2.5c0.7,0.2,1,0,1.4-0.5c1-1.3,2-2.7,3.1-3.8c1.6-1.6,3.3-2.9,5.1-4.2
					c2-1.4,4-2.8,6.2-3.9c4.5-2.4,9.3-3.8,14.4-4.2c3.2-0.3,6.4-0.4,9.6,0c4.4,0.7,8.8,1.4,12.8,3.3c0.9,0.4,1.8,0.8,2.8,1.1
					c4.6,1.8,7.8,5.1,10.4,9.2c0.8,1.3,1.6,2.5,2.2,3.9c0.5,1,0.9,2,1.2,3.1c0.5,1.8,1.3,3.3,2.9,4.4c0.4,0.2,0.7,0.4,1.1,0.4
					c2,0.1,3.9,0.7,5.8,1.5c2.8,1.2,5.8,2.1,8.3,3.9c3.1,2.2,5.9,4.6,7.5,8.2c1.4,3,2.2,6.2,2.4,9.5c0.2,2.7-0.1,5.3-0.9,7.8
					c-0.6,2-1.9,3.6-3.3,5.1c-1.2,1.4-2.4,2.7-3.9,3.7c-0.5,0.4-0.8,0.9-0.6,1.6c0.4,1.8,0.3,3.7-0.3,5.5c-0.2,0.5-0.1,1,0.6,0.9
					c2-0.3,4,0.3,5.9,0.8c1.6,0.4,3.1,1,4.7,1.5c3.3,1.2,6.2,3,8.4,5.6c3.2,3.8,5.2,8.1,5.7,13.1c0.2,2.2,0.3,4.5-0.1,6.7
					c-0.6,3.6-1.7,7-4.1,9.8c-1,1.2-2.2,2.3-3.5,3c-2.4,1.3-3,3.2-2.9,5.6c0.4,4.8-1,9.1-4.1,12.8c-2.4,2.9-5.2,5.3-8.8,6.5
					c-1,0.4-1,0.4-0.6,1.4c1.7,4.5,2.4,9.2,2.7,13.9c0.1,1.9,0.1,3.9,0.1,5.8c0,2.1-0.2,4.2-0.4,6.3c-0.4,3.3-1.2,6.5-2.5,9.5
					c-2.5,6-6.1,11.3-10.5,16c-4,4.3-8.7,7.7-14,10.4c-3,1.5-6,3.1-9.4,4c-2.1,0.6-4.3,0.7-6.5,1.1c-2.5,0.5-5.1,0.8-7.6,1.6
					c-1.9,0.6-3.6,1.4-5.2,2.5c-5.3,3.6-9.8,8.1-13.7,13.3c-3.1,4-6.5,7.8-10,11.4c-1.4,1.5-3,2.7-4.5,4.2c-2.2,2.1-4.9,3.5-7.4,5.1
					c-1.5,1-3,1.8-4.5,2.8c-2.4,1.6-5,2.4-7.7,3.3c-1.3,0.4-2.7,0.7-4.1,0.6c-1.5,0-2.9,0.6-4.4,0.8c-3.3,0.5-6.6,0.9-10,0.7
					c-2.1-0.1-4.3,0.2-6.4,0.2c-3.3-0.1-6.7-0.1-10-0.8c-2.4-0.5-4.9-1-7.3-1.8c-7-2.2-13.9-4.8-20-9.1c-3-2.1-5.9-4.4-8.5-7.1
					c-2.2-2.4-3.6-5.2-4.9-8c-0.1-0.2-0.1-0.4-0.2-0.6c-0.4-0.8-0.9-1.1-1.5-0.4c-1.2,1.5-2.9,1.8-4.5,2.5s-3.2,1.2-4.8,1.8
					c-0.8,0.3-1.6,0.4-2.4,0.7c-3.6,1.3-7.3,1.5-11,1.6c-2.3,0.1-4.6,0.1-6.9-0.1c-2.4-0.3-4.7-0.8-7-1.6c-1.2-0.4-2.3-0.9-3.6-1.2
					c-3-0.7-5.4-2.5-7.7-4.5c-2.2-2-4.3-4.2-5.9-6.8c-0.3-0.5-0.7-1-1.3-0.5c-2.2,1.5-4.8,2-7.3,2.5c-2.1,0.4-4.1,1-6.2,1
					c-1.3,0-2.7,0.2-4,0.1c-1-0.1-2-0.3-3-0.1c-0.6,0.1-1.2-0.1-1.8-0.3c-1.1-0.4-2.4-0.4-3.6-0.5c-0.7,0-1.2,0.3-1.8,0.8
					c-0.9,0.7-1.8,1.4-2.7,2.2c-2.6,2.3-5.6,3.8-8.7,5.2c-2,0.9-4.1,1.6-6.2,2.3c-2,0.6-4,0.7-6.1,0.6c-2.4-0.1-4.7-0.4-7-0.7
					c-3.1-0.5-6.1-1.2-9-2.2c-3.1-1-6.3-1.9-9.5-2.7c-2.9-0.7-5.6-1.7-8-3.5c-1.6-1.2-3.3-2.2-5.1-3.1c-4-2.1-6.9-5.2-8.9-9.2
					c-0.5-0.9-0.9-1.9-1.5-2.8c-1.1-1.7-2.5-3.1-4.4-3.8c-3.3-1.3-6.6-2.8-9.9-4.3c-2.5-1.2-4.6-3-6.6-4.9c-1.2-1.2-2.3-2.5-3.7-3.4
					c-1.2-0.8-1.7-2.3-2.3-3.6c-1.3-2.9-1.8-5.9-1.6-9.1c0.2-2,0.5-4,0.7-6.1c0.2-2.2,0.8-4.3,2.1-6.3c1-1.5,1.8-3.1,2.7-4.7
					c0.2-0.4,0.5-0.8,0.8-1.1c2.7-2.4,5.3-5.1,8.6-6.6c2.8-1.3,5.6-2.4,8.7-2.9c1-0.2,1.6-0.5,1.9-1.4c0.2-0.7,0.5-1.3,0.7-2
					c1.2-4.2,3.5-7.6,7-10.2c4-3,8.4-4.8,13.3-5.6c2-0.3,3.9-0.9,5.9-1c4.4-0.3,8.8,0,13,1.6c0.2,0.1,0.4,0.1,0.6,0
					c-1.9-4.1-2.7-8.6-2.9-13.1c-0.1-2.4,0.2-4.9,0.8-7.3c0.6-2.4,1.3-4.8,2.3-7.1c1.4-3.1,3.4-5.8,5.9-8.1c3-2.8,6.5-5.1,10.4-6.5
					c2.5-0.9,5-1.3,7.6-1.4c1.9-0.1,3.8,0.2,5.7,0.3c0.7,0.1,1.2,0,1.7-0.6c0.9-1,2.2-1.6,3.3-2.4c1.8-1.2,3.6-2.3,5.5-3.4
					c2.5-1.5,5.2-2.6,8-3.4c3-0.9,6.1-1.7,9.2-2.1c2.7-0.3,5.4-0.2,8.2,0.5c2.4,0.6,4.8,0.9,7.1,1.7c2.7,0.9,5.5,1.6,7.9,3.1
					c1.4,0.9,2.8,1.7,4.1,2.8c2.6,2.1,5,4.3,7.3,6.7c1.3,1.4,3,2.4,5.1,2.5c2.2,0.2,4.5,0.1,6.7,0.1c2,0,4.1,0.4,6.1,0.5
					c2.2,0.2,4.2,0.8,6,2c0.2,0.1,0.3,0.2,0.5,0.3c1.5,0.7,2.9,1.6,4,2.8c2.2,2.4,4.4,4.9,6.1,7.7c2.2,3.5,3.4,7.5,4.5,11.4
					c0.8,3,1.1,6.2,1,9.3c-0.1,1.4,0,2.9-0.2,4.3c-0.4,3.2-0.9,6.4-3.1,8.9c-0.3,0.4-0.2,0.7,0,1.1c0.7,1.2,1.2,2.4,1.9,3.6
					c1,1.7,1.9,3.4,2.4,5.3c0.7,2.5,1.5,5,1.8,7.6c0.1,1.2-0.1,2.4-0.2,3.6c-0.1,1.1-0.1,1.1,1,1.4c4.9,1.3,9.3,3.6,12.9,7.3
					c1.9,2,3.1,4.6,3.8,7.2c1.1,3.7,1.5,7.4,1.8,11.2c0.1,1.2-0.1,2.4-0.4,3.6c-0.2,0.7-0.3,1.5-0.5,2.3c1.6,0.5,3.2,1.1,4.7,1.9
					c2.3,1.2,4.2,3,6,4.9c1.5,1.7,2.7,3.6,4.4,5.1c3.5,3.2,7.5,5.5,12.1,6.6c4.6,1,9,0.4,13-2.1c4.5-2.8,7.5-7,9.1-12.1
					c1-2.9,1.5-6,2.4-8.9s2.2-5.6,4.3-7.8c2.7-2.9,5.9-4.9,9.8-5.6c1.3-0.2,2.6-0.3,3.9-0.2c3.1,0.3,6.3,0.6,9.4,0.9
					c3.5,0.3,6.9-0.3,10.2-1.2c2.3-0.6,4.4-1.6,6.2-3.1c2.5-2.1,4-4.7,4.8-7.7c0.6-2.2,0.9-4.4,0.9-6.7c0.1-4.6-0.9-8.9-3.4-12.9
					c-1.7-2.8-3.9-5.2-6.1-7.6c-1.2-1.3-2.4-2.5-3.8-3.6c-0.5-0.4-0.9-0.5-1.5-0.4c-2,0.5-4.1,0.4-6.1,0.5
					c-3.4,0.2-6.8-0.2-10.2-0.4c-3.1-0.2-6.2-0.7-9.4-1.1c-2.8-0.4-5.4-1.5-7.9-2.8c-2.1-1.1-4.2-2.1-6.6-2.2c-1.5,0-3,0-4.5,0
					c-0.4,0-0.9,0.1-1.3-0.1c-1.3-0.5-2.7-0.4-4-0.7c-4.1-0.8-8.1-1.6-11.6-4c-2-1.4-4.1-2.7-5.9-4.4c-2-2-3.4-4.4-4.1-7.1
					c-1.3-4.7-2.3-9.4-3.2-14.2c-0.4-2.3-1.6-4.2-2.9-6.1c-1.4-2-3-3.9-4.5-5.8c-1.9-2.6-3.1-5.5-2.9-8.8c0-0.7-0.2-1.4-0.1-2.1
					c0.2-2.2,0.7-4.3,1.6-6.3c0.2-0.4,0.4-0.9,0.6-1.3c-0.4-0.5-0.8-0.4-1.2-0.4c-3.4-0.2-6.2-1.5-8.8-3.6c-2.8-2.3-6-3.5-9.6-3.6
					s-7-0.9-10.4-2c-1.5-0.5-3-1.2-4.3-2.1c-2-1.3-4.1-2.5-6-4c-1.8-1.4-3.4-2.9-4.8-4.7c-0.1-0.2-0.3-0.4-0.6-0.5
					c-2.4-1.2-4.8-2.3-7.5-3c-2.6-0.6-5.1-0.4-7.7-0.4c-4.5,0-8.9,0.6-13.2,1.2c-7.5,1-14.7,2.8-21.7,5.8
					c-5.3,2.3-10.9,3.8-16.6,5.3c-1.9,0.5-3.8,0.6-5.8,0.5c-4.5-0.2-8.7-1.4-12.5-3.5c-3.2-1.8-5.7-4.3-7.3-7.7
					c-0.8-1.7-1.7-3.4-3-4.8c-1.7-2-3.9-3.2-6.5-3.5c-1.4-0.2-3,0-4.5,0.2c-4.1,0.7-8.2,1.6-12.4,2.4c-3.3,0.6-6.7,1.1-10.1,1
					c-4.4-0.1-8.8-0.6-13.2-1.1c-2.8-0.3-5.6-1.2-8.3-2.1c-4.3-1.4-8.5-3-12.5-5.1c-3.1-1.6-5.7-3.7-8.1-6.1
					c-2.7-2.7-5.1-5.8-6.9-9.2c-1.5-2.9-2.4-6-2.4-9.2c0-2.4,0.9-4.7,1.7-6.9c0.8-1.9,1.4-4,2.3-5.8c0.2-0.4-0.1-0.7-0.3-0.9
					c-0.8-0.8-1.6-1.5-2.4-2.3c-0.3-0.2-0.5-0.2-0.8-0.1c-2.6,1.2-5.5,1.1-8.2,1.5c-0.8,0.1-1.6-0.3-2.5-0.4c-1.3-0.2-2.3,0.2-3.3,1
					c-3.4,4.8-8,6.8-13,7.4c-3.7,0.4-7.3,0.3-11-0.5c-3.6-0.8-7.2-1.8-10.6-3c-5.7-2.1-10.6-5.4-14.1-10.5c-0.7-1-1.2-2.1-1.6-3.2
					c-0.4-1-0.9-1.9-1.6-2.7c-0.2-0.2-0.3-0.5-0.5-0.5c-2.2-0.7-3.8-2.6-6.1-3.1c-1.7-0.4-3.4-0.8-5-1.5c-0.6-0.2-1.3-0.3-1.9,0.1
					c-0.8,0.4-1.7,0.6-2.5,1c-2.1,1.1-4.4,1.5-6.8,1.8c-2.5,0.3-5,0.9-7.6,0.9c-4-0.1-8.1,0.5-12.1-0.2c-0.8-0.1-1.6-0.1-2.4,0
					c-1.3,0.1-2.6-0.3-3.8-0.6c-2-0.5-4.1-0.9-6.1-1.6c-2.8-1.1-5.4-2.5-8.1-4c-3-1.6-5.7-3.8-8.6-5.7c-0.1-0.1-0.2-0.2-0.3-0.3l0,0
					c0-0.3,0.1-0.6,0.1-0.9c0.1-0.7-0.1-1.1-0.9-0.8C-121.8,447.5-122.6,447.3-123.4,447.2z M360.7,509.5c0.4,0.6,1.1,0.4,1.7,0.4
					c3.2,0.2,6.3,0.8,9.3,1.9c1.3,0.5,2.5,1,3.7,1.5l0,0c0.1,0.3,0.3,0.3,0.6,0.4c1.3,1.1,2.6,2.1,3.8,3.3c2.2,2.3,4,4.8,5.3,7.8
					c1.2,2.9,1.3,6,1,9.1c-0.5,4.2-2.5,7.3-6.2,9.3c-0.4,0.2-0.7,0.4-1.1,0.6c-0.7,0.4-1.1,0.9-1.2,1.8c-0.1,1.3-0.3,2.5-0.4,3.7
					c-0.3,3.7-1.7,6.9-4.1,9.8c-2.3,2.8-5.3,4.7-8.3,6.6c-2.5,1.5-5,2.8-7.9,2.9c-1.1,0.1-2.2,0-3.3,0.3c-0.5,0.1-0.7-0.2-1-0.5
					c-1.6-1.6-3.4-3-5.3-4.5c-1.2-0.9-2.5-1.6-4-2c-2.2-0.7-4.5-1.1-6.8-1.3c-1.4-0.1-2.5-0.5-3.3-1.7c-0.2-0.4-0.6-0.6-0.9-1
					c-0.6-0.6-1.2-1.2-1.5-2c-1.8-4-3.9-7.8-6.3-11.4c-0.9-1.3-1.6-2.6-3-3.5c-1-0.7-2-1.6-2.1-3c-0.1-1.2,0-2.4,0.4-3.6
					c0.9-2.5,2.2-4.7,4-6.6c0.6-0.6,1-1.2,1.7-1.7c4.1-2.7,8.5-4.5,13.2-5.4c1.5-0.3,3-0.3,4.5,0c0.7,0.1,1.4,0.4,2.2,0.5
					c2.4,0.3,4.6,1.2,6.7,2.3c2,1.1,3.1,2.9,4.5,4.5c1.5,1.7,1.9,3.6,1.7,5.7c-0.3,3.3-2,5.9-4.3,8.2c-0.7,0.7-1.5,1.1-2.6,1
					c-2.4,0-4.4-0.8-6-2.5c-1.2-1.2-1.1-2.1-0.2-3.5c0.3-0.5,0.8-0.8,1.2-1.1c0.6-0.6,0.6-0.7-0.1-1.2c-1.3-0.9-3.6,0.2-3.6,1.8
					c0,2.1,0.3,4.1,2.2,5.6c2.1,1.7,4.4,2.4,7,2.3c1.5,0,3-0.3,4.3-1.2c4.3-3.1,6-8.5,3.8-13.6c-2.1-4.7-5.6-8.2-10.5-9.9
					c-3.3-1.1-6.8-1.8-10.4-1.7c-4.1,0.1-8,1.1-11.7,3c-2.9,1.4-5.3,3.5-7.6,5.6c-1.6,1.5-2.8,3.3-3.4,5.4c-0.3,1-0.2,2.1-0.7,3
					c-0.3,0.5,0.1,1.4-0.5,1.6c-0.5,0.2-1.2-0.2-1.7-0.3c-0.1,0-0.3-0.1-0.4-0.1c-2.8-0.9-5.6-1.4-8.5-1.7c-1.2-0.1-2.3-0.2-3.6-0.4
					c1.1-1.1,1.5-2.4,2.1-3.7c0.6-1.5,1.1-3.1,1.2-4.8c0.2-2,0-4-0.2-6c-0.1-1.8-0.2-3.6-0.8-5.3c-1.3-3.9-2.9-7.7-6.1-10.5
					c-1.8-1.6-3.6-3.1-6-3.8c-1.9-0.5-3.7-1.2-5.6-1.6c-1.7-0.4-3.2-1.2-4.8-1.8c-0.4-0.1-0.6-0.5-0.8-0.8c-2.1-3.8-5-6.8-8.6-9.2
					c-1.8-1.2-3.7-2.3-5.5-3.7c-1.3-1-2.8-1.6-4.4-2.1c-2-0.5-4-0.8-6-1.4c-2.3-0.7-4.6-1-7-0.8c-2.1,0.1-4.3,0.4-6.4,0.5
					c-1.3,0.1-2.6,0.2-3.8,0.7c-1.4,0.5-2.7,1-4.1,1.6c-1.6,0.7-3.2,1.5-4.3,2.9c-2.4,3-5.2,5.6-8.3,8c-0.1,0.1-0.2,0.1-0.2,0.2
					c-2,1.7-4.5,2.5-7,2.7c-2.4,0.2-4.7,0.7-6.7,2.2c-1.9,1.5-3.7,3.2-4.9,5.4c-1.5,2.8-2.5,5.8-3.3,8.8c-0.9,3.3-1.8,6.5-1.9,9.9
					c-0.1,2.4,0.6,4.4,1.6,6.4c0.2,0.3,0.5,0.5,0.8,0.6c0.7,0.3,1.2,0.7,1.1,1.6c-0.1,0.5,0.2,0.7,0.5,1c1.7,1.6,3.6,3,5.5,4.3
					c2.8,1.9,5.5,3.8,8.9,4.5c1.4,0.3,2.8,0.8,4.3,0.8c1.3-0.1,2.6-0.2,3.9-0.1c1.3,0,2.7,0.2,4,0.7c1.6,0.6,3.1,1.4,4.5,2.4
					c2.5,1.7,5.3,2.6,8.3,3.2c1.6,0.3,3.1,0.5,4.7,0.7c0.6,0.1,0.8,0.4,0.6,0.9c-0.2,0.7-0.5,1.4-0.8,2.1c-1.2,2.2-1.8,4.6-1.9,7.2
					c0,1.1-0.3,2.3-0.2,3.4c0.3,2.4,1.3,4.6,2.8,6.5c1.3,1.6,2.7,3.2,3.8,5c1.8,2.7,3.3,5.5,3.9,8.8c0.7,3.9,1.7,7.7,2.6,11.5
					c0.9,3.8,2.9,6.6,6,8.8c1.5,1.1,3,2,4.5,3c2.2,1.4,4.6,2.2,7.1,2.7c1.4,0.3,2.9,0.4,4.3,0.8c1.5,0.4,2.9,0.6,4.4,0.4
					c1.2-0.1,2.4-0.1,3.6,0c2,0.1,3.8,0.8,5.6,1.6c1.8,0.8,3.6,1.7,5.4,2.5c2.9,1.2,6,1.3,9.1,1.8s6.2,0.9,9.4,0.8
					c1.8-0.1,3.6-0.2,5.4,0s3.4-1.2,5.2-0.6c0.2,0.1,0.6-0.2,0.8-0.3c2.7-0.9,5-2.7,6.9-4.7c2.6-2.7,5.7-4,9.3-4.2
					c1.4-0.1,2.9,0.1,4.3-0.6c1.7-0.8,3.4-0.5,5.1-0.5c0.3,0,0.7,0.2,1,0.2c2.1,0.5,3.7,1.9,5.1,3.5c1.4,1.8,2.8,3.6,4.2,5.5
					c1.5,2,3.4,3.4,5.6,4.4c0.5,0.2,1,0.4,1.3,0.8c0.4,0.5,0.9,0.7,1.5,0.8c2.2,0.4,3.5,2,4.5,3.8c1.9,3.3,2.5,6.9,3.2,10.6
					c0.3,1.7,0.4,3.5,0.4,5.2c-0.2,4.8-1.1,9.5-2.8,14c-2.3,6.2-5.4,11.8-9.6,16.8c-1.5,1.8-3.2,3.4-5,5c-2.2,2.1-4.5,4.1-7.2,5.6
					c-4.1,2.3-8.7,3.3-13.3,4c-3.2,0.5-6.3,0.8-9.4,1.7c-2.1,0.6-4.2,1.2-6.2,2.2c-3,1.5-5.5,3.6-7.9,5.9c-2.9,2.7-5.2,5.8-7.2,9.1
					c-0.6,1-1.1,2-1.7,3c-2,3.2-4.5,6-7.2,8.6c-2.5,2.4-5.1,4.7-7.9,6.6c-4.6,3.2-9.8,5.3-15.3,6.7c-4.7,1.2-9.5,1.9-14.4,2
					c-3.1,0-6.3,0.2-9.4-0.1c-4.1-0.4-8.2-0.8-12.1-1.9c-3.7-1-7.5-2.2-11.1-3.5c-6.7-2.4-12.3-6.1-16.5-11.9
					c-3.1-4.2-5.4-8.7-6.7-13.8c-0.2-0.6-0.1-1.2,0.2-1.7c0.7-1.2,1.4-2.3,2-3.5c0.3-0.6,0.8-0.9,1.4-0.9c0.9,0,1.8-0.3,2.7-0.1
					c2.3,0.4,4.6,0,6.8-0.5c4-0.9,7.1-3.2,9.8-6.1c1.7-1.8,2.6-4,3.6-6.2c1.5-3.3,2.2-6.7,1.5-10.3c-0.2-1.1-0.4-2.3-0.6-3.4
					c-0.5-2.3-0.9-4.5-1.8-6.7c-1.4-3.6-4.3-6-7.6-7.9c-2.3-1.3-4.6-2.7-7.3-3.1c-0.4-0.1-0.8-0.2-1.1-0.4c-0.8-0.3-1.3-1-1.4-1.8
					c-0.1-0.9-0.3-1.9-0.1-2.8c0.3-1.5,0.1-2.9-0.3-4.3c-0.2-0.8-0.4-1.6-0.5-2.3c-0.8-4.2-2.6-8-4.9-11.5c-0.8-1.2-0.7-2.1,0.3-3.1
					c1.1-1,2-2.2,2.4-3.6c1-3.6,1.2-7.3,1.1-11c-0.1-2.8-0.5-5.6-1.3-8.2c-1.1-3.7-2.5-7.3-5.1-10.3c-1-1.1-1.9-2.3-2.9-3.5
					c-1.1-1.4-2.4-2.5-4-3.4c-1.9-1.1-3.8-2.1-6.1-2.5c-3.5-0.5-7.1-0.3-10.6-0.7c-0.1,0-0.3,0-0.4,0c-1.9,0.4-3.5-0.4-5.2-0.9
					c-0.4-0.1-0.7-0.4-1-0.6c-1.1-1-2.2-2.1-3.2-3.2c-2.4-2.5-5.1-4.7-7.8-6.7c-3.3-2.4-7.2-3.1-10.9-4.4c-3.1-1.1-6.3-1.3-9.6-1.6
					c-0.5,0-1-0.1-1.5,0c-1.8,0.5-3.8,0.5-5.6,0.8c-2.6,0.4-5.1,1-7.4,2.3c-3.9,2.2-7.6,4.6-11.1,7.3c-1.9,1.4-3.9,2.3-6.4,1.9
					c-2.3-0.4-4.6-0.2-6.9-0.1c-2.6,0.2-5,1.3-7.4,2.4c-3.4,1.7-6.6,3.6-9,6.6c-1.8,2.2-2.8,4.8-3.7,7.3c-0.7,1.9-1.3,3.8-1.6,5.8
					c-0.5,3.4-0.2,6.8,0.4,10.1c0.3,2,0.9,3.9,1.6,5.8c0.3,0.8,0.7,1.6,1.5,1.8c1.1,0.3,1.7,1.1,2.3,1.8c0.7,0.9,0.4,1.7-0.7,2
					c-0.9,0.3-1.7,0.2-2.6-0.1c-2.5-0.7-4.8-1.7-7.3-2.2c-2.6-0.6-5.3-0.8-7.9-0.6c-6.1,0.6-11.9,2.1-17.1,5.4
					c-3.1,2-5.1,4.7-6.3,8.1c-0.6,1.7-1.1,3.4-1.7,5.1c-0.5,1.3-1.4,2.1-2.7,2.3c-4.2,0.7-8.2,2-11.7,4.4c-2.2,1.5-4.2,3.3-5.5,5.7
					c-1.4,2.5-2.4,5.2-3.5,7.8c-0.4,0.9-0.8,1.9-0.8,2.9c-0.2,2.4-0.2,4.9,0.3,7.3c0.4,2,0.8,3.9,2.1,5.6c0.9,1.1,1.7,2.3,2.7,3.2
					c2,1.8,3.9,3.7,6.4,5c3.2,1.6,6.4,3.1,9.7,4.5c1.3,0.6,2.4,1.4,3.5,2.3c2,1.8,3.3,4.1,4.8,6.3c1.4,2.2,2.9,4.4,5.2,5.9
					c2.7,1.8,5.6,3.5,8.3,5.4c1.5,1,3.1,1.6,4.8,2c3.6,1,7.2,2.1,10.8,3.1c3.9,1.1,7.8,2.2,11.8,2.5c1.3,0.1,2.7,0.1,4,0.1
					c1.7,0,3.3,0,4.9-0.5c3-0.9,5.9-1.9,8.7-3.3c2.4-1.2,4.5-2.8,6.5-4.5c1.9-1.5,3.9-2.7,6.5-2c1.6,0.4,3.2,0.5,4.9,0.5
					c3.1,0.1,6.2-0.1,9.2-0.5c2.2-0.3,4.4-0.5,6.4-1.4c0.8-0.4,1.6-0.8,2.4-1.2c1.7-0.7,2.7-0.5,3.9,0.8c0.3,0.3,0.6,0.7,0.9,1.1
					c1,1.6,2.2,3,3.5,4.3c2.5,2.6,5.3,4.6,8.9,5.6c3.4,1,6.7,2,10.2,2.2c2.4,0.2,4.8,0.5,7.2,0.4c2.7-0.2,5.5-0.2,8.1-1.1
					c1.3-0.5,2.7-0.9,4-1.2c3.3-0.9,6.4-2.4,9-4.7c0.4-0.3,0.7-0.7,1.4-0.9c0.9,1.5,2.1,2.9,2.8,4.5c1.5,3.7,3.9,6.9,6.9,9.5
					c4.4,3.9,9.3,7.1,14.7,9.5c2.1,0.9,4.3,1.6,6.4,2.5c2.3,0.9,4.6,1.5,7,2.2c1.4,0.4,2.9,0.4,4.3,0.8c2.2,0.6,4.5,0.7,6.7,0.8
					c2.3,0.1,4.7-0.2,7-0.1c3.2,0.2,6.4,0.1,9.6-0.3c6.5-0.8,12.9-2.3,18.6-5.8c4.6-2.8,9.1-5.5,13-9.3c3-3,6-6,8.7-9.3
					c1.8-2.1,3.4-4.4,5.2-6.6c2.9-3.4,6.3-6.3,9.7-9.1c3.3-2.6,6.9-4.4,11-5.2c3.1-0.6,6.3-1.1,9.4-1.6c1.7-0.3,3.3-0.7,4.9-1.4
					c2.8-1.2,5.6-2.6,8.3-4.1c4.2-2.4,8-5.2,11.3-8.8s6.1-7.6,8.3-11.9c2.1-4.1,3.5-8.4,3.9-13c0.1-1.8,0.3-3.6,0.3-5.4
					c0.1-2.6,0.1-5.2-0.2-7.8c-0.5-3.8-0.9-7.5-2.4-11.1c-0.2-0.4-0.3-0.9-0.8-1.2c-0.7-0.4-0.4-1.2-0.4-1.8c0-0.5,0.8-0.9,1.4-0.8
					c1,0.1,1.8-0.3,2.7-0.7c3.1-1.6,5.7-3.9,7.7-6.8c1.3-2,2.2-4.2,2.5-6.7c0.2-1.7,0-3.4,0.1-5.1c0.2-2.4,1.4-4,3.3-5.2
					c3.8-2.3,6.1-5.7,6.9-10.1c0.9-5.1,0.4-10.1-1.7-14.8c-1.1-2.5-2.8-4.7-4.9-6.6c-2.2-2-4.8-3.2-7.6-4.1
					c-2.4-0.8-4.7-1.7-7.2-1.7c-1,0-2-0.3-2.9,0.4c-0.5,0.4-1.2-0.1-1.2-0.9c0-0.4,0.2-0.7,0.3-1c0.7-2.3,1.1-4.6,0.6-6.9
					c-0.2-1.2,0.1-2,1.1-2.7c1.8-1.3,3.2-3,4.7-4.6c2.1-2.3,2.7-5.2,3.1-8.1c0.2-1.2-0.1-2.5-0.2-3.7c-0.6-5.6-2.6-10.3-7.2-13.8
					c-1.5-1.2-3-2.5-5-2.9c-0.1-0.1-0.2-0.2-0.3-0.3c-3.8-1.6-7.5-3.3-11.7-3.3c-1.8-0.4-2.7-1.6-3.2-3.2c-0.2-0.6-0.3-1.2-0.6-1.7
					c-1-2.8-1.6-5.7-3.5-8.1c-1.2-1.5-2.3-3.1-3.8-4.4c-2-1.7-4.3-2.6-6.6-3.7c-4.6-2.2-9.6-3.1-14.6-3.8c-2.7-0.4-5.5-0.1-8.2,0.1
					c-4.5,0.4-8.7,1.6-12.7,3.7c-3.9,2-7.5,4.6-10.8,7.5c-1.2,1-2.2,2.2-3,3.6c-0.6,1-0.5,1.4,0.4,2.2c0.5,0.4,0.8,0.4,1.2-0.2
					c1.1-1.7,2.6-3,4.1-4.3c2.6-2.2,5.4-4.1,8.3-5.9c1.9-1.2,3.9-2.3,6-3c4.1-1.3,8.4-1.6,12.7-1.6c2.9,0,5.7,0.7,8.5,1.6
					c3.1,1,6.1,2.2,9.1,3.5c3.9,1.6,6.9,4.2,9,7.8c1.8,3,3.1,6.2,4,9.5C360.5,509.1,360.5,509.4,360.7,509.5z M203.2,499.4
					c0.5-0.5,1.1-1,1.6-1.5c0.7-0.7,0.7-0.9-0.1-1.3c-3.1-1.5-6.1-3.1-9.5-4.2c-3.4-1.1-6.7-2.2-10.2-3c-1.4-0.3-2.8-0.4-4.1-0.7
					c-3.7-1-7.6-1.3-11.4-1.7c-0.5-0.1-1.1-0.1-1.6-0.1c-2.5,0-5.1,0.1-7.6,0.1c-1.8,0-3.6,0.1-5.4,0.5c-3.8,0.8-7.5,2.1-11,3.8
					c-2.7,1.3-5.4,2.5-8.2,3.7c-2,0.8-4.1,1.6-6.2,2.1c-2.1,0.4-3.9,0-5.2-1.6c-0.8-1-1.4-2.1-1.7-3.4c-0.4-1.6-0.7-3.2-1.5-4.7
					c-1.7-3.3-4.5-5.5-7.7-7.1c-2.9-1.4-6-2.1-9.3-1.9c-1.9,0.1-3.7,0.3-5.5,0.8c-2.2,0.6-4.2,1.5-6,3c-1.5,1.3-3.2,2.4-4.9,3.5
					c-3.2,2-6.7,2.6-10.3,1.3c-2.5-0.9-4.6-2.4-5.9-4.6c-1.5-2.8-2.1-5.9-1.7-9.1c0.2-1.4,0.9-2.1,2.3-2.1c1,0.1,2,0,3-0.1
					c1.9-0.1,3.6-0.4,5.2-1.6c1.5-1.2,2.8-2.5,4.3-3.7c2.2-1.7,3.8-4,5.2-6.3c0.6-1,0.8-2.2,1.5-3.1c0.4-0.5,0.6-1,0.7-1.6
					c0.5-3.6,0.5-7.2-0.2-10.7c-0.6-3.4-1.4-6.7-3.2-9.8c-1.4-2.4-3.2-4.5-4.9-6.6c-2.6-3.3-5.7-6-9.7-7.6c-1-0.4-1.4-1.2-1.6-2.2
					c-0.1-0.6,0.3-1.1,0.5-1.5c1-2.2,2-4.4,2.1-6.8c0-0.9-0.2-1.7-0.1-2.5c0.3-1.9-0.1-3.8-0.6-5.6c-0.3-0.9-0.5-1.8-0.7-2.7
					c-0.8-4.2-1.7-8.5-4.2-12.1c-0.8-1.1-1.2-2.6-2.3-3.5c-2.2-1.9-4.5-3.8-7.4-4.7c-2.3-0.7-4.6-1.6-7-1.5c-2,0.1-3.9,0.1-5.9-0.3
					c-0.6-0.1-1.3-0.2-1.9-0.5c-2.2-1-3.8-2.7-5.5-4.4c-1.3-1.3-2.6-2.6-4.3-3.5c-4.1-2.1-8.5-2.5-13-2.2c-1.9,0.1-3.3,1-4.4,2.5
					c-0.6,0.8-1.1,1.7-1.7,2.5c-1.5,2.2-3.7,3.3-6.2,3.2c-2.2-0.1-4.4-0.1-6.6,0c-2.9,0.2-5.8,0.1-8.4,1.6c-0.7,0.4-1.4,0.2-1.6-0.5
					c-0.3-0.9-0.9-1.5-1.4-2.3c-1.4-2.4-2.8-4.7-4.6-6.8c-1-1.2-2.2-2.3-3.3-3.4c-1.9-1.9-4-3.7-6.6-4.6c-2.3-0.9-4.8-1.5-7.2-2
					c-1.2-0.3-2.5-0.4-3.7-0.3c-2.8,0.3-5.6,0.7-8.4,1.4c-4.3,1-8,3.1-10.9,6.4c-1.6,1.8-3.5,1.9-5.4,1.3c-5.9-1.8-10.6-5.5-14.7-10
					c-2.5-2.8-4.7-5.7-6.7-8.8c-3-4.7-5.9-9.5-8.7-14.4c-1.4-2.6-2.9-5.1-5.1-7.2c-2.2-2-4.4-4-6.9-5.5c-3.7-2.2-7.5-3.9-11.6-5.3
					c-1.8-0.6-3.7-1-5.6-1.1s-3.9-0.3-5.8-0.2c-2.4,0.1-4.9,0-7.3,0.3c-2.1,0.3-4.2,0.3-6.2,1c-2.8,1-5.5,2.2-8,3.7
					c-1.7,1-3.5,1.8-4.7,3.4c-0.2,0.3-0.3,0.7-0.7,0.6c-1-0.8-1.4-1.9-1.8-3.1c-0.3-0.8-0.6-1.5-0.8-2.3c-1.1-3.3-3.1-6-5.8-8.2
					c-3-2.4-6.2-4.3-10-5.2c-0.5-0.1-0.9-0.4-1.3-0.7c-0.8-0.5-0.9-1.2-0.2-1.7c0.9-0.7,1.1-1.5,1.1-2.5c0-0.8,0.1-1.5,0.2-2.2
					c0.3-1.6-0.1-3.1-0.9-4.5c-1.7-2.9-3.3-5.8-5.9-8.1c-1.5-1.3-2.6-3-4.3-4.1c-1.4-0.9-2.7-1.9-4.1-2.8c-0.6-0.4-1.2-0.9-1.7-1.5
					c-1.3-1.4-1.9-3.1-2.3-5c-0.7-3.3-2.4-6.1-5-8.4c-4.9-4.4-10.5-7-17-7.8c-1.3-0.2-2.7-0.3-4-0.4c-3.7-0.2-7.2,0.7-10.1,3.1
					c-3.3,2.6-5.9,5.8-7.8,9.5c-0.5,1-1.2,1.7-2.2,2.2c-0.9,0.4-1.7,0.7-2.7,0.9c-1.8,0.3-3.6,0.9-5.3,1.7c-2.2,1.1-4,2.7-5.1,4.9
					c-0.8,1.5-2.1,2.2-3.7,2.2c-1,0-2,0.2-3,0.4c-1.2,0.3-2.4,0.6-3.6,1c-3.1,1-5.7,2.8-7.7,5.4c-1.7,2.1-2.7,4.5-3.8,6.9
					c-1.2,2.6-1.7,5.3-1.4,8.2c0.2,1.7,0.3,3.5,0.9,5.1c1.6,4.2,4.6,7.4,7.7,10.4c1.6,1.6,3.6,2.6,5.7,3.6c2.9,1.3,5.8,2.5,8.7,3.7
					c0.7,0.3,1.4,0.7,2.3,0.4c0.2-0.1,0.5,0.1,0.6,0.5c-0.6,0.5-1.5,0.4-2.2,0.8c-2.5,1.1-5.1,1.7-7.8,2.1c-5.2,0.9-9.8,3-13.2,7.2
					c-1.1,1.4-1.9,2.8-1.9,4.6c0,0.9-0.4,1.6-1.1,2c-0.4,0.3-0.9,0.3-1.4,0.4c-3.5,0.8-6.9,1.8-10,3.5c-1.6,0.9-3.1,2-4.7,3
					c-3.1,2-4.9,4.9-5.7,8.5c-0.5,2.6,0.5,4.8,2.1,6.8c2.4,3.1,5.2,5.7,8.7,7.4c1.8,0.9,3.5,2,5.5,2.3c1.4,0.2,2.3,0.8,2.7,2.2
					c0.7,2.4,1.7,4.7,2.9,6.9c1.8,3.3,4.6,5.3,7.9,6.8c2.9,1.3,6,1.6,9.1,1.8c1.2,0.1,2.4,0.2,3.6,0c1.9-0.3,3.9-0.4,5.8-0.8
					c1.8-0.4,3.7,1.1,3.7,2.8c0,1.3-0.1,2.7-0.6,4c-0.8,2.2-1.4,4.5-1.7,6.8c-0.3,2.5-0.3,5.1-0.2,7.6c0.2,4,1.2,7.8,2.9,11.4
					c0.7,1.4,1.3,2.8,2.2,4.1c2.2,2.9,4.7,5.5,7.1,8.2c1,1.1,2,2.2,3.2,3.1c2.8,2.1,6,3.5,9.4,4.6c0.3,0.1,0.7,0.2,1,0.1
					c1-0.4,2.1-0.1,3.1-0.2s1.8,0.3,2.5,0.9c1,1,1.9,2,2.3,3.4c0.2,0.6,0.4,1.2,0.7,1.8c0.9,2,2.1,3.9,3.2,5.8c1,1.8,2.3,3.5,3.9,5
					c2.4,2.1,4.9,3.9,8.1,4.7c2.4,0.6,4.8,1.5,7.2,2c2.9,0.6,5.8,0.5,8.6,0.1c4-0.6,7.9-1.7,11.4-4c3.7-2.4,7.7-4.5,11-7.5
					c3.4-3.1,7.2-5.5,11.4-7.4c3.6-1.6,7.3-2.7,11.2-3.1c1.7-0.2,3.4,0.5,5-0.2c1.9,0.6,3.9,0.4,5.9,0.7c1.1,0.2,2,0.9,2.8,1.7
					c3.1,3,6.5,5.4,10.5,7.1c5.3,2.3,10.6,4.6,16.3,5.8c3.4,0.7,6.9,1.1,10.3,1.1c4.2,0,8.5-0.7,12.6-1.7c3-0.8,5.6-2.4,7.4-5.1
					c0.1-0.2,0.2-0.3,0.5-0.3c1.2,1,2.5,1.7,3.8,2.5c1.5,1,3.2,1.7,4.9,2.2c1.3,0.4,2.7,0.4,4,0.6c1.2,0.1,2.1,0.7,2.4,1.8
					c0.4,1.7,1.1,3.2,1.8,4.8c0.7,1.7,1.8,3.2,3.2,4.5c2.8,2.5,5.9,4.8,9.2,6.7c4.2,2.4,8.8,3.5,13.5,4.3c2,0.4,4.1,0.2,6.1,0.1
					c4-0.2,7.8-1,11.3-3.2c0.8-0.5,1.6-0.9,2.3-1.3c1.1-0.7,2.3-1.3,3.1-2.3c0.9-1,1.9-1.1,3.1-0.8c2.6,0.7,5.3,0.8,7.7-0.6
					c1.9-1.1,3.6-0.6,5.2,0.3c1.9,1,3.7,2.3,4.8,4.3c0.5,1,0.7,1.4,0,2.1c-1.1,1.4-1.8,3.1-2.7,4.6c-0.2,0.3-0.5,0.7-0.4,1
					c0.3,1.3-0.3,2.5-0.5,3.7c-0.4,2.5,0.2,4.8,0.8,7.1c0.7,2.9,2,5.5,3.7,8c2.9,4.2,6.8,7.3,10.9,10.2c3.4,2.3,7.1,4,11.1,5.2
					c3.6,1.1,7.3,2,11.1,2.4c1.5,0.1,3,0.1,4.5,0.2c3,0.2,5.9,0,8.8-0.4c4.6-0.6,9.2-1.2,13.8-2c1.8-0.3,3.6-0.7,5.5-0.8
					c1.1-0.1,2.2,0.2,3.3,0.1c3.6-0.3,6.4,1.1,8.7,3.8c1.4,1.6,2.5,3.5,3.5,5.4c0.9,1.8,1.9,3.6,3.4,4.9c5.3,4.7,11.5,6.5,18.4,5.8
					c2.6-0.2,5-1.1,7.4-1.8c3.4-0.9,6.9-1.8,10.1-3.2c2.3-1,4.6-1.9,7-2.7c4.8-1.6,9.7-2.6,14.6-3.4c3.8-0.7,7.6-0.9,11.4-1.2
					c2.6-0.2,5.2-0.2,7.8-0.1c2.6,0.1,5,0.9,7.4,1.7c0.7,0.3,1.4,0.8,2.4,0.9c-0.5-1.4-0.9-2.6-1-4c0-0.4-0.4-0.7-0.7-0.2
					c-0.7,0.9-1.4,0.7-2.4,0.4c-3-0.9-6-1.7-9.1-1.9c-2.6-0.1-5.3-0.2-7.9,0.1c-5,0.5-9.9,1.3-14.7,2.7c-5.4,1.6-10.8,3.3-16,5.6
					c-4.8,2.1-9.9,3.5-15.2,3.9c-2.1,0.2-4.3,0.2-6.4-0.4c-2.9-0.8-5.5-2.3-8.1-3.9c-3.2-2-5.2-4.8-6.3-8.5c-1.1-4-3.6-6.7-7.5-8.1
					c-2.5-0.9-5-1.2-7.6-1.7c-0.9-0.2-1.8,0.1-2.7,0c-2-0.1-4.1,0-6.1,0.3c-2.3,0.4-4.5,1.1-6.7,1.5c-4.3,0.8-8.6,1.6-13,2.1
					c-4.7,0.5-9.3,0-13.7-1.5c-4.4-1.6-8.4-3.9-12.3-6.5c-2.3-1.5-4.4-3.3-6.3-5.3c-2.8-3-4.8-6.5-6.1-10.4c-0.7-2.1-0.7-4.3,0-6.4
					c0.6-1.7,1.3-3.3,2-5c0.4-1.2,1.4-1.6,2.6-1.2c2.2,0.7,4.4,0.9,6.7,0.6c1.2-0.2,2.5-0.2,3.7-0.2c2.3-0.1,4.6-0.1,6.7-1.4
					c0.3-0.2,0.5-0.3,0.9-0.2c0.9,0.2,1.7-0.2,2.4-0.6c1.5-0.8,3-1.6,4.3-2.7c1.4-1.1,3.2-1.7,4.8-2.4c0.2-0.1,0.4,0,0.6,0
					c0.7,0,1.4,0.1,2.1,0c0.9-0.1,1.6,0.8,1.5,1.6c-0.2,1.1,0,2.1,0,3.1c0,1.8,0.7,3.5,1,5.3c0,0.2,0.2,0.5,0.3,0.5
					c0.7,0.1,0.7,0.7,0.8,1.1c0.7,2.2,2.3,3.6,4.2,4.7c2.4,1.4,5,2.1,7.8,2.3c3.6,0.3,7-0.2,10-2.2c3.1-2.1,6.5-3.5,10-4.8
					c2.3-0.8,4.5-1.5,7-1.6c3.8-0.1,7.2,0.5,10.1,3.2c1.4,1.2,2.2,2.7,2.7,4.4c0.3,1.2,0.3,2.5,0.6,3.7c1.1,5.3,3.1,7.3,7.9,8.4
					c2.7,0.6,5.6,0.1,8.3-0.8c3-1,5.6-2.6,8.3-4.1c4-2.2,8.3-4,12.7-5.4c1.2-0.4,2.5-0.8,3.8-1c4.6-0.7,9.2-1,13.9-0.6
					c1.3,0.1,2.4,0.6,3.7,0.7c4.4,0.4,8.7,1,13,2.2c3.9,1.1,7.7,2.6,10.9,5.1C202.1,498.7,202.7,499,203.2,499.4z M346.6,644.9
					c0,1.9-0.5,3.8-1.2,5.8c-0.9,2.6-2,5.1-3.6,7.4c-1.6,2.3-3.7,4-5.9,5.8c-1.3,1-2.7,1.8-4.3,2.5c-2.3,0.9-4.7,1.3-7.2,1.5
					c-3.5,0.4-7,0.7-10.6,0.3c-1.4-0.2-2.8,0.1-4.2-0.1c-0.3,0-0.7,0.1-1,0.2c-4.2,1.3-7.7,3.6-9.8,7.6c-1.6,3-2.7,6.1-4.1,9.2
					c-1.3,3-2.5,6-4.7,8.5c-0.8,0.9-1.8,1.8-2.6,2.7c-1.9,2-4.1,3.5-6.5,4.7c-3.1,1.7-6.5,2.6-9.9,3.2c-2.3,0.4-4.6,0.7-6.8,0.1
					c-4.8-1.3-8.9-3.8-12-7.7c-1.2-1.4-2.5-2.7-3.9-4c-1-1-2.1-1.9-2.9-3c-0.7-0.9-1.5-1.8-2.4-2.5c-1.3-1.1-2.6-2.3-4.4-2.8
					c-1.6-0.5-1.3-0.3-1.9,0.8c-1.8,3.5-4.6,6.1-7.8,8.3c-2.5,1.7-5.3,2.5-8.2,3c-2.1,0.4-4.2,0.4-6.2-0.1c-0.9-0.2-1.2,0-1.5,0.7
					c-0.5,1-0.9,2.1-1.5,3.1s-0.4,1.7,0.1,2.6c1.1,2.1,2.3,4.1,3.5,6.1c1.4,2.4,3,4.9,5.2,6.7c3.4,2.9,7.1,5.5,11.4,7.1
					c3.4,1.2,6.8,2.4,10.2,3.3c3.3,0.9,6.7,1.6,10.1,2c2.8,0.3,5.6,0.2,8.4,0.3c2.1,0.1,4.2,0,6.3-0.1c4.1-0.3,8.1-1,12.1-1.9
					c6.6-1.6,12.5-4.7,17.7-9c2.2-1.9,4.4-3.8,6.3-6c1.8-2.1,3.6-4.2,4.9-6.6c1.2-2.2,2.6-4.2,4.1-6.3c1.8-2.5,4.1-4.5,6.4-6.5
					c1.2-1.1,2.5-2.2,3.9-3.1c2.6-1.7,5.4-2.8,8.3-3.7c2.4-0.8,4.8-1.3,7.3-1.6c3.8-0.5,7.5-0.9,11.2-2c2.3-0.7,4.7-1.5,6.7-2.9
					c3.7-2.7,7.2-5.8,10.2-9.3c3.8-4.5,6.6-9.6,8.7-15.1c1.3-3.5,2.2-7,2.9-10.7c0.4-2.3,0.3-4.7,0.1-7c-0.4-4.8-1.6-9.3-4.1-13.5
					c-0.4-0.6-0.8-0.9-1.5-1c-2.2-0.3-4.1-1.3-5.9-2.4c-3-1.9-5-4.7-6.9-7.6c-1.2-1.8-2.6-3.5-4.7-4.2c-1.2-0.4-2.6-0.8-3.8-0.1
					c-1.8,1.1-3.8,1.3-5.9,1.4c-2.3,0.1-4.5,0.6-6.6,1.7c-1.3,0.7-2.1,2-3.3,2.8c-0.8,0.6-0.7,0.7,0,1.3c0.9,0.8,1.8,1.6,2.5,2.5
					c1.8,2.1,2.9,4.5,4.3,6.8c1.9,3.4,3.1,7,4.1,10.8C346.6,637.9,347.1,641.2,346.6,644.9z M62.2,475.1c-0.8-0.1-1.5-0.1-2.1,0.2
					c-1.5,0.7-3.2,1.2-4.6,2.1c-2.5,1.6-5,3-7.8,3.8c-2.4,0.7-4.8,1-7.2,1.7c-3.2,0.8-6.2,0.3-9.3-0.3c-1.1-0.2-1.3-0.3-1.7,0.8
					c-0.8,2-1.2,4.1-0.8,6.3c1.3,6.1,4.9,10.8,9.8,14.5c3,2.2,6.1,4.1,9.5,5.8c5,2.6,10.4,3.7,16,3.2c6.4-0.7,12.8-1.5,19.1-3
					c4-1,8-1,12-0.7c2.1,0.1,4.2,0.7,6.1,1.3c3.1,0.9,5.8,2.5,7.8,5.1c1.4,1.8,2.1,3.9,2.8,6c0.1,0.5,0.3,0.9,0.5,1.4
					c1,1.8,2.3,3.3,4,4.4c3.4,2.1,6.7,4.1,10.9,3.9c2-0.1,4.1-0.3,6.1-0.7c3.7-0.8,7.3-1.8,10.7-3.3c2.9-1.3,5.9-2.2,8.9-3.2
					c5.6-1.8,11.3-3.4,17.2-4.2c4.7-0.7,9.3-1,14-0.5c2.1,0.2,4.2,0.8,6.3,1.4c0.4,0.1,0.8,0.3,1.2,0.2c0.9-0.2,1.8,0,2.6,0.3
					c1.1,0.4,1.4,0.1,1.5-1.1c0.1-1.9,0.5-3.7,0.9-5.5c1.2-4.6,2.7-9.1,5.2-13.2c0.3-0.5,0.2-0.8-0.2-1.1c-1.3-1-2.7-1.9-4.2-2.6
					c-4.8-2.5-10-3.5-15.2-4.2c-3.3-0.4-6.6-0.7-9.9-1c-1.8-0.2-3.6-0.4-5.4-0.2c-2.1,0.2-4.2,0.3-6.2,0.8
					c-5.9,1.4-11.4,3.9-16.7,6.9c-2.8,1.6-5.6,3.3-8.8,4c-3.6,0.9-7.2,1.1-10.7-0.3c-1.8-0.7-3.5-1.6-4.6-3.2c-1.6-2.4-2.6-5-2.8-8
					c-0.2-3.6-2.2-6-5.5-7.2c-2-0.7-4.3-1-6.5-0.6c-4.9,0.9-9.4,2.9-13.5,5.6c-3,2-6,3.5-9.7,3.5c-4,0-7.8-0.4-11.3-2.2
					c-2-1-3.7-2.4-4.8-4.3c-1.3-2.1-2.1-4.4-2.8-6.8C62.3,478.8,61.9,477,62.2,475.1z M304.2,533.3c2.9,0,5.6,0.5,8.2,1.4
					c0.9,0.3,0.9,0.3,1.1-0.7c1.1-4.3,3.3-7.8,6.6-10.6c3.2-2.7,6.8-4.9,10.9-6c3.9-1.1,7.9-1.7,12-1.1c1.2,0.2,2.5,0.5,3.7,0.6
					c4.2,0.6,7.6,2.6,10.7,5.3c1.4,1.2,2.3,2.6,3.3,4.1c1.9,2.6,2.6,5.6,2.5,8.8c0,2.4-0.7,4.6-2,6.5c-1.3,2.1-3,3.8-5.4,4.8
					c-2.1,0.8-4.3,0.9-6.5,0.6c-1.8-0.2-3.5-0.7-5-1.8c-3.4-2.2-4.4-5.4-3.8-9c0.6-3.2,4-5.1,7.5-3c0.3,0.2,0.4,0.4,0.6,0.7
					c0.8,1.5,0.5,2.6-0.8,3.8c-1.1,0.9-1.1,1.4,0,2.3c0.7,0.5,1.5,0.8,2.3,1c1.8,0.5,2.5,0.4,3.7-1.1c1.3-1.6,2.4-3.3,2.7-5.4
					c0.2-1.4,0.4-2.8-0.4-4c-1.2-1.8-2.5-3.5-4.3-4.7c-1.7-1.1-3.6-1.8-5.7-2.3c-3.1-0.7-6.1-1.1-9.2-0.2c-0.8,0.2-1.6,0.5-2.4,0.7
					c-5.4,1.7-9.5,4.8-11.8,10.1c-0.4,0.9-0.6,1.9-0.7,2.9c-0.1,0.8,0.1,1.4,0.8,1.8c1.3,0.9,2.4,1.9,3.3,3.2
					c2.3,3.5,4.8,6.9,6.4,10.8c1,2.5,2.6,4.5,5.3,5.4c1.2,0.4,2.4,0.5,3.7,0.8c3.4,0.7,6.3,2.1,8.9,4.3c1.2,1,2.3,2,3.5,3.1
					c0.9,0.8,0.9,0.8,2,0.3c0.5-0.2,0.9-0.7,1.5-0.6c0.9,0.2,1.7-0.2,2.5-0.5c3.3-1.4,6.5-3.2,9.2-5.6c3-2.7,5.1-6,5.4-10.2
					c0.1-1,0.2-2.1,0.3-3.1c0.1-1,0.4-1.9,0.7-2.7c0.4-1.3,1.5-2,2.7-2.5c2.4-1.1,4.1-3,4.9-5.6c0.5-1.6,0.6-3.3,0.6-5
					c0-2-0.7-3.9-1.6-5.7c-0.5-1.1-1.2-2.1-1.8-3.1c-2-2.8-4.4-5.3-7.6-6.8s-6.6-2.5-10.1-3c-0.8-0.1-1.6-0.3-2.3-0.6
					c-0.8-0.3-1.4-0.8-1.3-1.8c0.1-0.5-0.1-0.9-0.3-1.3c-0.8-1.8-1.6-3.7-2.4-5.5c-1.8-3.9-4.6-6.9-8.5-8.7
					c-2.8-1.3-5.6-2.3-8.5-3.4c-2.4-0.9-5-1.5-7.6-1.7c-2.1-0.1-4.1,0-6.1,0c-3.4,0.1-6.7,0.6-9.7,2.3c-2,1.1-3.9,2.4-5.9,3.6
					c-3.1,2-5.9,4.4-8.5,7.1c-0.3,0.4-0.6,0.8-0.8,1.2c-0.2,0.4-0.2,0.7,0.1,1.1c1.1,1.2,1.9,2.6,2.6,4c1.2,2.5,2.5,5,2.8,7.9
					c0.2,2.8,0.6,5.6,0.7,8.3c0.1,1.7-0.2,3.4-0.8,5C305.2,530.8,304.8,532,304.2,533.3z M342.4,644.6c-0.1,2.8-0.7,5.6-2,8.1
					s-3,4.6-5.5,6.2c-3.1,2.1-6.6,3-10.2,3.6c-2.6,0.4-5.2,0.5-7.8,0.2c-2.1-0.3-4.3-0.5-6.4-0.6c-1.3-0.1-2.7-0.1-4,0.1
					c-3.4,0.4-6.2,1.9-8.7,4.3c-2.4,2.3-3.9,5.2-4.7,8.4c-0.7,2.7-1.2,5.4-2,8.1c-1.3,4.3-3.5,8-6.8,11c-5.5,5-12.1,6.4-19.2,4.6
					c-3.7-0.9-7-2.9-10.1-5.2c-1.9-1.4-3.5-3.2-5-5.1c-1.4-1.8-2.9-3.5-4.8-4.9c-1.7-1.2-3.6-2.2-5.6-2.7c-0.8-0.2-1.1-0.1-1.3,0.7
					c-0.2,0.7,0,0.9,0.7,1.1c1.4,0.5,2.8,1.1,3.9,2.2c1.5,1.3,2.9,2.6,4.1,4.2c0.4,0.6,0.9,1.2,1.5,1.7c1.8,1.5,3.4,3.3,5,5
					c1.6,1.8,3.4,3.4,5.5,4.6c2.4,1.3,4.9,2.6,7.7,2.7c2.3,0,4.5-0.4,6.7-0.9c4.9-1.1,9.1-3.5,12.7-6.9c2.9-2.7,5-5.9,6.4-9.5
					c1.2-2.8,2.3-5.6,3.7-8.4c1.6-3.1,3.4-6.1,6.5-8c2.2-1.3,4.3-2.6,6.9-2.7c1.7-0.1,3.5,0.1,5.2,0.2c3.9,0.1,7.7-0.2,11.5-0.7
					c5-0.6,8.9-3.1,12.2-6.7c2.1-2.3,3.5-4.9,4.7-7.8c1.6-4.2,2.2-8.5,1.3-12.9c-0.5-2.6-1.3-5.1-2.1-7.7c-1.1-3.5-3-6.7-4.8-9.8
					c-0.9-1.4-1.7-3-3.1-4c-0.7-0.5-1-1.9-2-1.7c-0.9,0.1-1.8,0.9-2.6,1.4c-0.7,0.4-0.8,0.6-0.1,1.2c0.7,0.6,1.4,1.3,2.1,1.9
					c2.4,2.1,4.4,4.7,6.3,7.2c1.4,1.9,2.4,4,3.2,6.3C342.5,636.8,343,640.7,342.4,644.6z"/>
				<path class="st4" d="M-123.3,521c-2.5-0.2-4.6-0.8-6.7-1c-2.7-0.3-5,0.4-7.2,1.9c-2.4,1.6-4.9,2.3-7.8,2.1
					c-2-0.2-4.1-0.4-6.1-0.6c-1.1-0.1-2.1-0.5-3.1-1.1c-1.1-0.8-2.2-1.6-3.1-2.5c-1.2-1.2-2.4-2.4-3.4-3.8c-1.3-1.7-2.8-3.1-4.5-4.4
					c-1.3-1-2.9-1.5-4.5-2.1c-3.6-1.3-6.1-3.8-7.8-7.1c-0.8-1.4-0.8-3.1-0.9-4.7c-0.3-3.1-0.1-6.1,1-9c1-2.9,2.9-5.1,5-7.2
					c1.3-1.3,2.8-2.5,4.6-3c1-0.3,2-0.4,2.9-0.5c0.8-0.1,1.2-0.4,1.5-1.2c1.5-3.7,4.4-5.6,8.1-6.4c1.8-0.4,3.4-1.1,5.1-1.7
					c1.6-0.6,2.5-1.9,3.7-3c1.8-1.8,3.7-3.3,6-4.5c0.2-0.1,0.4-0.3,0.7-0.3c3.4-0.6,6.7-1.4,10.2-0.5c2.1,0.6,4.1,1.3,6,2.3
					c1.1,0.6,2.1,1.3,2.9,2.3c1.3,1.7,3,2.8,5.1,3.6c2.4,0.9,4.9,1.6,7.1,3.1c1.6,1,3.1,2.1,4.4,3.6c1.4,1.7,2.9,3.4,3.8,5.4
					c1.7,3.5,2.6,7.1,3.1,10.9c0.2,1.9,0.2,3.9,0.3,5.8c0,2.2-0.7,4.2-1.5,6.2c-1.4,3.4-2.9,6.7-5.3,9.5c-3.1,3.6-6.8,6.3-11.5,7.5
					c-1.4,0.4-2.9,0.7-4.4,0.5C-121,520.9-122.4,521.3-123.3,521z M-127.6,517.8c2.4,0.2,4.8,0.4,7.2,0.5c3.7,0.1,7.1-0.8,10.1-2.8
					c3.6-2.4,6.6-5.6,8.4-9.6c1.1-2.5,2.2-4.9,2.5-7.6c0.3-3.8-0.1-7.6-1.1-11.3c-1.2-4.6-3.6-8.6-7.4-11.6
					c-2.4-1.9-5.1-3.2-7.9-4.2c-2.9-0.9-5.1-2.8-6.6-5.4c-0.4-0.7-0.9-1.2-1.6-1.5c-0.5-0.3-1-0.6-1.6-0.8c-2.6-1.2-5.4-2.1-8.3-1.9
					c-2.1,0.2-4.2,0.4-6.1,1.3c-2.2,1-4.1,2.5-5.6,4.4c-2,2.6-4.7,4.1-7.9,4.9c-1.6,0.4-3.2,0.9-4.6,1.8c-1.7,1-3.1,2.4-3.8,4.3
					c-0.3,1-1,1.6-2.1,1.7c-0.5,0.1-1,0.1-1.5,0.2c-1.3,0.1-2.4,0.5-3.5,1.1s-1.9,1.6-2.8,2.4c-2.5,2-3.7,4.8-4.1,7.9
					c-0.3,2-0.1,4,0.2,6c0.6,4.8,3.2,8.1,7.8,9.7c2.3,0.8,4.3,1.8,6.1,3.5c1.1,1.1,2.1,2.1,3.1,3.3c1.3,1.4,2.4,3,3.8,4.3
					c1.5,1.4,3.1,2.8,5.2,3.3c1.1,0.3,2.3,0.3,3.4,0.4c3.3,0.4,6.2-0.6,8.8-2.6c1.8-1.5,3.8-2.3,6.2-1.9
					C-130.1,517.7-128.8,517.7-127.6,517.8z"/>
				<path class="st4" d="M218,455.8c-0.2,4.6-2.3,8.6-4.9,12.3c-1.7,2.4-3.7,4.5-6,6.2c-2.1,1.6-4.2,3-7,3.2c-2.3,0.1-4.6-0.1-6.7-1
					c-1.8-0.8-3.5-1.7-5.4-2.3c-1.1-0.3-2.2-0.4-3.3,0.1c-2.5,1.2-5.2,1.9-7.9,2.1c-3.6,0.2-7-0.7-9.8-2.9c-4-3.1-6.2-7.4-7.5-12.2
					c-0.9-3.3-1.3-6.8-1.3-10.2c0-1.6,0.3-3.3,0.7-4.9c0.4-2,0.9-4,1.6-5.9c0.9-2.5,2.1-5,3.9-7.1c2.1-2.4,4.7-4.1,7.6-5.5
					c2.5-1.2,5.1-1.4,7.9-1.5c1.4,0,2.8-0.1,4.2,0.2c2.3,0.5,4.6,0.6,6.9,1.2c1.5,0.4,3.1,0.2,4.6,0.1c4.1-0.3,8.1,0.1,11.8,1.9
					c3.1,1.5,5.7,3.6,7.5,6.7c1.3,2.2,2.6,4.4,2.8,7C217.9,447.5,218.5,451.6,218,455.8z M161.1,449.6c-0.2,2.3-0.5,4-0.2,5.7
					c0.6,4.6,1.4,9.1,4.1,13c2.5,3.8,6.2,5.3,10.5,5.3c2.7,0,5.4-0.9,7.9-2c0.8-0.4,1.7-0.5,2.6-0.4c1.7,0.2,3.3,0.9,4.8,1.5
					c1.8,0.8,3.6,1.6,5.5,1.9c3.1,0.5,5.8-0.4,8.3-2.3c2.5-1.9,4.8-4,6.6-6.7c1.5-2.3,2.9-4.5,3.7-7.1c0.4-1.3,0.8-2.6,0.7-4
					c-0.1-2.5-0.2-5-0.4-7.4c-0.3-2.8-0.4-5.7-1.8-8.3c-1.2-2.3-2.6-4.5-5.2-5.6c-1.7-0.8-3.5-1.6-5.4-1.7c-2.4-0.1-4.8-0.6-7.2-0.4
					c-2.3,0.2-4.6,0.1-6.8-0.7c-1.4-0.5-2.7-0.5-4.1-0.7c-1.7-0.3-3.5-0.3-5.2-0.2c-2.2,0.1-4.3,0.4-6.4,1.3
					c-4.6,2.1-7.9,5.4-9.8,10.1C162.2,443.9,161.2,446.9,161.1,449.6z"/>
				<path class="st4" d="M-123.4,447.2c0.8,0,1.6,0.3,2.3,0.1c0.8-0.2,1,0.2,0.9,0.8c0,0.3-0.1,0.6-0.1,0.9c-0.4,0-0.8-0.1-1.1-0.4
					C-121.9,448-122.6,447.6-123.4,447.2z"/>
				<path class="st4" d="M-120.2,449.1c0.1,0.1,0.2,0.2,0.3,0.3C-120.1,449.3-120.2,449.2-120.2,449.1z"/>
				<path class="st4" d="M360.7,509.5c1.1,0,2.2,0.6,3.3,0c4.2,0,8,1.7,11.7,3.3c0.1,0.1,0.2,0.2,0.3,0.3c-0.3,0-0.5,0-0.7,0.3
					c-1.2-0.5-2.5-1.1-3.7-1.5c-3-1.1-6.1-1.7-9.3-1.9C361.8,509.9,361.2,510.1,360.7,509.5z"/>
				<path class="st4" d="M375.5,513.4c0.3,0,0.5,0.1,0.6,0.4C375.8,513.7,375.6,513.6,375.5,513.4z"/>
				<path class="st4" d="M360.5,508.9c0.2,0.2,0.3,0.4,0.2,0.6C360.5,509.4,360.5,509.1,360.5,508.9z"/>
				<path class="st4" d="M-69.2,452.6c-3.7,1.3-7.5,2.3-11.3,2.7c-1.9,0.2-3.8-0.2-5.7-0.6c-0.5-0.1-1.1-0.3-1.6-0.3
					c-5-0.5-9.7-2-14-4.4c-3.6-2-6.8-4.5-9.6-7.5c-1.2-1.3-2.4-2.6-3.4-4.2c-1-1.5-1.3-3.2-1.3-5c0-0.7-0.1-1.3-0.4-1.9
					c-0.4-1-1.3-1.4-2.4-1.4c-1.2,0.1-2.4,0.5-3.4,1.1c-0.8,0.5-1.2,1.1-1,2.2c0.2,1.2,0.3,2.4,0.8,3.5c0.5,1.4-0.7,3.4-2.2,3.5
					c-0.9,0.1-1.9,0.2-2.8,0.1c-2.3-0.3-4.6-0.6-6.9-0.4c-2.1,0.1-4,0.6-6,1.2c-4,1.1-7.5,3.2-11,5.4c-3.8,2.4-7.1,5.4-10.6,8.2
					c-3.6,2.9-7.6,5.2-12.1,6.4c-2.2,0.6-4.4,0.8-6.7,0.8c-0.9,0-1.7,0.2-2.5,0.1c-2.3-0.3-4.5-0.8-6.7-1.6c-3.5-1.3-6.8-3-9.6-5.4
					c-2.5-2.2-4.4-4.8-5.6-7.8c-0.9-2.1-1.5-4.2-1.8-6.5c-0.1-1.3-0.9-2-2.1-2.1c-0.6-0.1-1.2-0.2-1.8-0.2c-2.6-0.1-5.1-0.7-7.4-1.7
					c-4.2-1.7-8.2-3.7-11.6-6.8c-2-1.8-3.7-3.8-5.2-6c-1.6-2.3-3-4.6-4-7.2c-0.9-2.6-1.3-5.2-1.3-7.9c0-1.8,0-3.5,0.3-5.2
					c0.5-3,1.2-5.9,2.3-8.7c0.8-2.2,2.4-3.2,4.7-3.2c3.9,0,7.7-0.8,11.4-2.2c3.2-1.2,6.4-2.5,9.3-4.4c1.2-0.8,2.2-1.7,3.3-2.6
					c1.2-1,2.3-1,3.3,0.3c1.4,1.8,2.8,3.6,2.7,6.1c0,0.3,0,0.6-0.1,0.9c-1.1,3.8-0.8,7.5,0,11.3c0.4,1.7,1.1,3.2,2.1,4.6
					c3,4.2,6.8,7.6,11.2,10.3c0.9,0.5,1.8,0.8,2.7,1.3c4.3,1.9,8.9,2.7,13.6,2.8c3.4,0,6.8-0.8,10.2-1.7c3.3-0.9,6.1-2.7,9.1-4.2
					c4.6-2.3,9.3-4.2,14.3-5.4c1.6-0.4,3.2-0.3,4.8-0.4c2.3-0.2,4.5,0.5,6.6,1c3.2,0.6,5.7,2.5,8,4.7c1.4,1.3,2.3,3,2.4,4.9
					c0.1,1.2,0.5,2.2,1,3.2c0.8,1.4,2,2.5,3.5,3.1c1.7,0.7,2.6,0,2.4-1.8c-0.1-0.9-0.4-1.7-0.8-2.6c-0.5-1-1.2-2-1.5-3.1
					c-0.5-1.8-0.5-3.7,0.3-5.4c1.3-3,2.7-5.9,5.3-8c2.2-1.8,4.7-2.7,7.3-3.2c3.3-0.6,6.5-0.6,9.8-0.3c2.1,0.2,3.5,1,4,3.1
					c0.9,3.6,3.5,6,6.2,8.2c1.1,0.9,2.3,1.8,3.4,2.7c1.9,1.4,4.1,2.3,6.3,3.2c2.3,1,4.7,1.6,6.7,3.2c1.6,1.2,3.5,1.8,5.5,2.5
					c-0.6,0.8-1.2,1.5-2,2.1c-1.5,1.1-2.7,2.5-4,3.8c-1,1-1.7,2.2-2.1,3.6c-0.2,0.6-0.3,1.3-0.6,1.9c-1.2,3.2-0.3,6.3,0.7,9.4
					c0.4,1.1,0.7,2.3,1.4,3.3c0.4,0.6,0.2,1-0.2,1.4c-0.1,0.1-0.3,0.2-0.3,0.3c0,1-0.6,1.4-1.5,1.9
					C-67.7,451.7-68.6,451.9-69.2,452.6z M-68,449.7L-68,449.7c0.8-1.6,0.7-2.4-0.5-3.7c-0.2-0.9-0.4-1.9-0.7-2.8
					c-0.9-3.2-0.8-6.3,0-9.5c1-3.9,3.1-6.9,6.7-8.8c0.3-0.1,0.7-0.1,0.7-0.7c-0.2,0-0.4-0.1-0.6-0.1c-3.6-0.1-6.8-1.3-9.9-3.2
					c-1.7-1.1-3.4-2.1-5.1-3.1c-4-2.1-7.6-4.6-9.8-8.8c-0.8-1.5-1.8-3-1.7-4.9c0-0.9-0.5-1.4-1.5-1.3c-0.5,0-1.1,0.2-1.6,0.1
					c-2.7-0.1-5.5,0-8.2,0.6c-2.3,0.5-4.3,1.4-6.2,2.9c-1.7,1.4-2.8,3.2-3.8,5.1c-1.3,2.5-1.5,5,0.5,7.4c1.2,1.5,1.5,3.4,1.2,5.4
					c-0.4,2.6-2.1,4-4.7,3.6c-1.1-0.1-2-0.6-2.9-1.3c-2.7-2.2-4.7-4.8-4.9-8.4c0-0.5-0.2-1-0.5-1.4c-1.6-2.1-3.6-3.6-6-4.6
					c-2.4-0.9-4.9-1.1-7.3-1.4c-1.6-0.2-3.1,0.1-4.6,0.4c-4.8,1.1-9.2,3.1-13.5,5.3c-2.1,1-4.1,2-6.3,2.9c-2.7,1-5.5,1.6-8.3,2.2
					c-2,0.4-4,0.8-6.1,0.7c-3.6-0.2-7.2-0.5-10.6-1.6c-2.9-1-5.8-1.8-8.4-3.6c-3.9-2.7-7.7-5.6-10.3-9.7c-1-1.6-2.1-3.3-2.7-5.2
					c-0.5-1.7-0.8-3.4-1-5.2c-0.3-2.2-0.1-4.5,0.5-6.7c0.4-1.3,0.4-2.5-0.1-3.8c-0.3-0.8-0.9-1.3-1.3-2c-0.5-0.8-0.7-0.9-1.3-0.2
					c-1.9,2.2-4.4,3.4-6.9,4.7c-2,1.1-4.2,1.8-6.3,2.5c-3.9,1.4-7.9,2.4-12.1,2.4c-1,0-1.8,0.4-2,1.3c-0.7,2.6-1.4,5.2-1.7,7.9
					c-0.2,1.9-0.4,3.9-0.3,5.8c0.1,2.6,0.6,5,1.5,7.4c0.8,2.1,2,3.9,3.2,5.7c2.1,3.2,4.8,5.7,8,7.8c2.3,1.5,4.8,2.7,7.3,3.8
					c2.3,1.1,4.8,1.6,7.3,1.5c3.4-0.2,5.6,1.9,5.9,4.4c0.3,1.9,1,3.7,1.7,5.4c1,2.4,2.3,4.6,4.2,6.4c2.6,2.5,5.8,4.3,9.2,5.6
					c1,0.4,1.9,0.9,3,0.9c1.8,0.1,3.5,0.6,5.3,0.6c3-0.1,6-0.4,8.7-1.8c3-1.4,5.8-3.1,8.3-5.3c1.4-1.3,2.8-2.6,4.3-3.7
					c2-1.4,4-2.9,6-4.2c3.4-2.2,6.9-4.3,10.7-5.7c3.9-1.5,7.9-1.9,12.1-1.5c1.3,0.1,2.6,0.3,3.9,0.4c0.5,0.1,1,0,1.5-0.1
					s0.8-0.4,0.7-0.9c-0.3-1.3-0.2-2.6-0.3-3.9c-0.1-0.7,0.1-1.3,0.5-1.8c1.2-1.8,3.1-2.5,5.1-2.8c1.8-0.3,3.3,0.1,4.4,1.6
					c0.1,0.2,0.3,0.3,0.4,0.4c0.2,0.5,0.4,0.9,0.5,1.5c0.1,0.8,0.1,1.6,0.6,2.2c0.1,1.7,0.8,3.3,1.7,4.7c0.7,1.2,1.6,2.1,2.6,3.1
					c3,3,6.4,5.4,10.2,7.2c4,1.9,8.3,2.7,12.7,3.4c2.4,0.4,4.8,0.7,7.2,0.7c3.7,0,7.4-0.6,10.8-2.2C-68.3,450.3-68.1,450.1-68,449.7
					z"/>
				<path class="st4" d="M39.6,377.1c0.7,0.4,0.9,1.2,1.2,1.8c0.5,1,1.3,1.4,2.4,1.6c2.4,0.4,4.7,0,7-0.3c4.4-0.6,7.9,1.2,11,4
					c2.3,2.1,4.1,4.5,5.6,7.2c2,3.6,3.1,7.4,3.2,11.6c0.1,3-0.3,5.8-1.3,8.5c-1.5,4.4-4.1,7.9-8.6,9.6c-1.3,0.5-2.6,0.7-3.9,0.9
					c-0.8,0.1-1.5-0.1-2.1-0.7c-0.4-0.4-0.7-0.3-1.2-0.1c-1.2,0.7-2.1,0.2-2-1.2c0.1-1.2,0.2-2.4,0.5-3.6c0.5-1.8,0.3-3.7-0.1-5.5
					c-1.1-5.6-3.5-10.6-7.3-14.9c-2.9-3.4-6.6-5.5-11.1-6.3c-2-0.4-3.9-0.8-5.9-1c-3.7-0.5-7.3,0.2-10.7,2.2c-2.3,1.4-4,3.3-5.5,5.4
					c-2.9,4-1.4,9.5,3.1,11.6c1.1,0.5,2.2,1,3.3,1.4c1.1,0.4,2.2,0.4,3.2-0.2c0.8-0.4,1.3-1,1.4-1.8c0.1-0.9-0.3-1.7-1.1-2.1
					c-0.6-0.3-1.2-0.6-1.8-0.8c-3.4-1.5-3.5-3.6-2.6-6.5c0.5-1.6,1.6-2.6,3-3.4c2.3-1.3,4.8-1.7,7.3-1.9c0.8-0.1,1.6,0.3,2.3,0.5
					c2.3,0.5,4.7,1,6.9,1.9c3.7,1.6,7,3.8,8.9,7.5c1.8,3.4,3,7.1,3,11c0,2.2,0.1,4.5-0.9,6.6c-2.1,4.5-5.2,7.8-10.2,9
					c-3.2,0.8-6.4,1.1-9.7,0.6c-4.9-0.7-9.3-2.7-12.6-6.6c-0.6-0.7-1.3-1.4-1.9-2.1c-0.3-0.4-0.7-0.4-1.1-0.2
					c-0.1,0.1-0.3,0.1-0.4,0.2c-2.1,1.4-4.5,1.1-6.7,0.5c-3.8-0.9-6.8-3.2-9.3-6.1c-1.4-1.6-2.8-3.1-3.7-5.1c-0.9-1.9-1.2-3.9-0.5-6
					c0.2-0.7,0.3-1.4,0.6-2s0-1.2-0.3-1.7c-1.3-2.1-2.2-4.4-2.3-6.9c-0.2-3.1,0.5-6,2.4-8.5c2.5-3.4,5.9-5.8,9.7-7.6
					c2.2-1,4.5-1.5,7-1.1c1.7,0.3,3.4,0.4,5,0.8c1.8,0.4,3.5-0.4,5-1.5c0.9-0.7,1.7-1.4,2.5-2.2c1.7-1.7,3.6-2.8,6.2-2.5
					c1.1,0.1,2.3,0,3.4,0.1c1.2,0.1,2.3,0.3,3.4,0.7c0.2,0.4,0.5,0.3,0.9,0.4l0,0c0.2,0.4,0.4,0.8,0.8,1c1.3,0.6,2.1,1.7,2.9,2.7
					C38.7,376.5,39,377,39.6,377.1z M44.9,415.3c0.3-2.4,0.2-4.8-0.5-7.1c-1.2-3.7-3.1-6.8-6.5-8.9c-2.8-1.7-5.9-2.8-8.9-3.9
					c-0.2-0.1-0.4-0.1-0.6-0.1c-2.5,0.1-4.9,0.7-7.2,1.9c-0.6,0.4-1.2,0.9-1.5,1.7c-0.5,1.3-0.4,1.6,0.9,2.2
					c0.2,0.1,0.5,0.1,0.7,0.2c2.4,1,4.3,3.9,3.9,6.3c-0.4,2.9-3.3,5.3-6.3,5.2c-1.5-0.1-2.8-0.7-4.1-1.3c-3.1-1.5-5.6-3.6-7.2-6.7
					c-0.8-1.6-1.4-3.4-1.2-5.2c0.3-1.9,1-3.7,2.1-5.2c0.9-1.4,2-2.6,3.2-3.8c4.1-4.3,9.1-6.1,14.9-5.7c3.3,0.2,6.5,1,9.7,1.9
					c2.6,0.7,4.9,1.9,7,3.7c2.8,2.4,5.2,5.1,7,8.3c2.3,4.1,4.2,8.4,4.7,13.2c0.2,1.8,0.2,3.6-0.2,5.4c-0.3,1.2-0.2,1.4,1,1.3
					c3.4-0.3,5.9-1.8,7.8-4.6c1.2-1.8,2-3.8,2.5-5.9c0.9-3.7,0.8-7.4-0.4-10.9c-1.5-4.5-4.3-8.2-7.8-11.4c-2.2-2-4.6-3.4-7.6-3.4
					c-1.6,0-3.3,0.1-4.9,0.4c-1.7,0.3-4.2-0.5-5.4-1.9c-1.4-1.7-2.7-3.6-4.4-5.1c-2.2-1.9-4.7-3-7.7-2.1c-2.5,0.7-4.5,2.1-6.3,4
					c-1.3,1.4-2.9,2.3-4.6,2.9c-0.4,0.1-0.7,0.1-1.2,0c-1.4-0.4-2.8-0.7-4.2-0.8c-2.1-0.1-4.2,0.1-6.2,0.5
					c-4.3,0.8-7.5,3.3-10.6,6.2c-0.5,0.4-0.9,0.9-1.3,1.5c-2.3,3.6-2.2,8.4,0.6,11.9c1.1,1.4,1.3,2.6,0.5,4.1
					c-0.1,0.2-0.2,0.5-0.3,0.7c-0.5,1.7-0.5,3.3,0.5,4.9s2.2,2.9,3.5,4.3c1.9,2.1,4.1,3.5,6.7,4.3c2,0.6,3.8,0.7,5.7-0.3
					c1.1-0.6,2.2-0.4,3.2,0.3c0.5,0.4,1,0.8,1.4,1.3c3.5,4.2,8.1,6.3,13.5,7c2.1,0.3,4.2-0.2,6.2-0.4
					C39.8,425.5,45.1,419.7,44.9,415.3z"/>
				<path class="st4" d="M-223.1,292.6c-1.3-0.4-2.4-0.4-3.4-0.7c-3.2-0.7-3.9-4.1-3-6.3c1.1-2.7,3.3-3.8,5.9-4.4
					c1.6-0.4,3.2-0.4,4.8-0.4c0.8,0,1.7,0.1,2.5,0c1.3-0.1,2.6,0.4,3.8,0.8c1.3,0.4,2.6,1.1,3.8,1.7c2.8,1.4,4.4,3.9,5.7,6.6
					c1.3,2.6,1.9,5.3,1.4,8.3c-0.2,1.1-0.6,1.7-1.6,2.1c-2.9,1.3-5.9,2.5-8.7,4.1c-1.2,0.7-2.3,1.6-3.7,2c-0.6,0.2-1.1,0.3-1.8,0.3
					c-3.8-0.1-7.6-0.1-11.3,0.9c-4.7,1.3-8.9,3.5-12,7.5c-0.4,0.5-0.8,1-1,1.7c-0.4,1.1-1,1.5-2.1,1.5c-5.4-0.1-10.3-1.9-14.5-5.3
					c-2.1-1.6-4.2-3.2-5.8-5.4c-1.7-2.4-3-5.1-3.3-8.1c-0.4-3.9,0.7-7.4,2.7-10.7c3-4.9,7.5-7.5,13.2-7.8c1.3-0.1,2.7,0.2,4,0.1
					c1.5,0,2.4-0.8,2.8-2c1-2.4,2.8-4,4.8-5.4c2.6-1.9,5.7-2.7,8.8-3c1.2-0.1,2-0.5,2.6-1.7c2.3-4.8,6.2-7.9,11-9.9
					c4.1-1.8,8.4-2.1,12.8-1.4c1.5,0.2,2.9,0.8,4.1,1.8c2.8,2.2,5.4,4.5,6.9,7.8c1.1,2.3,1.9,4.7,2.2,7.3c0.1,0.8,0.4,1.5,1.3,1.8
					c3.7,1.1,6.6,3.4,9.3,5.9c3.8,3.5,5.7,8,5.8,13.2c0,1.4,0,2.8-0.2,4.2c-0.3,3.2-2.7,5.4-6.2,5.6c-0.9,0-1.7-0.4-2.4-0.8
					c-2.3-1.2-4.7-2.2-7.1-3.2c-1.4-0.5-3-0.8-4.5-0.9c-0.6,0-1.2,0-1.3-0.9c0-0.3-0.4-0.4-0.6-0.6c-0.4-0.3-0.4-0.7-0.2-1.1
					c1.1-1.6,0.7-3.4,0.5-5.1c-0.5-4-2.5-7-5.8-9.2c-1.4-0.9-2.6-2-4.2-2.6c-3.6-1.5-7.5-2.5-11.4-2.4c-4.4,0.1-8.7,0.9-12.5,3.2
					c-2.4,1.5-4.1,3.6-4.5,6.4c-0.6,3.9,0.7,4.7,3.4,5.5c1.3,0.4,2.7,0.7,4.1,0.9C-226,294.4-224.7,293.5-223.1,292.6z
					 M-223.7,304.5c0.4,0,0.9,0.2,1.2-0.2c1.9-0.1,3.7,0,5.5,0.2c0.7,0.1,1.4-0.1,2-0.5c3.1-2.1,6.4-3.7,9.8-5.1
					c1.7-0.7,2-1.1,1.8-2.9c-0.3-2.6-1.3-4.8-2.6-7c-0.6-1.1-1.3-2.1-2.3-2.9c-4.8-3.4-10.1-3.7-15.6-2.7c-1.6,0.3-3,1.1-3.8,2.7
					c-0.8,1.7-0.1,3.4,1.7,3.9c0.7,0.2,1.4,0.4,2.2,0.3c0.7-0.1,1.5,0,2.2,0.2c0.8,0.2,1.2,0.9,0.9,1.6c-0.6,1.3-1.4,2.6-2.9,3.1
					c-2.9,1.1-5.9,1.6-9,1.1c-2.1-0.4-3.9-1.5-4.6-3.8c-0.6-2.2-0.5-4.4,0.1-6.5c0.9-3.5,3.4-5.6,6.5-7.1c3.5-1.7,7.2-2.9,11.2-2.8
					c4.1,0,8.2,0.5,12.1,1.8c2.8,0.9,5.2,2.4,7.3,4.5c1.3,1.4,2.5,2.9,3.4,4.5c1.6,2.6,2,5.5,1.6,8.5c-0.3,2.2-0.2,2.2,1.9,2.4
					c1.3,0.1,2.4,0.5,3.6,0.9c2.6,0.9,5.1,2.1,7.5,3.4c0.5,0.3,0.9,0.3,1.4,0.2c2.3-0.3,2.9-2,3.1-4c0.1-1.2-0.1-2.5-0.2-3.7
					c-0.2-3.2-1.3-6.1-3.4-8.5c-3-3.3-6.6-6-11-7.3c-1.1-0.4-2-1-2-2.3c0-0.4-0.1-0.8-0.1-1.2c-0.3-2.3-0.9-4.6-1.9-6.7
					c-1.2-2.5-3.1-4.4-5.2-6.1c-1.5-1.2-3.1-1.9-5-2.1c-0.8-0.1-1.5,0.1-2.2,0.1c-2,0-4,0.3-5.9,1c-2,0.7-3.8,1.6-5.6,2.8
					c-2.8,1.9-4.8,4.3-6.1,7.4c-0.4,1-1,1.6-1.9,1.9c-0.7,0.2-1.4,0.3-2,0.5c-2.5,0.4-4.9,1.1-7.1,2.4c-2.1,1.3-3.8,2.9-4.6,5.3
					c-0.5,1.4-1.5,1.9-2.8,2c-0.2,0-0.4,0-0.6,0c-3.5,0-6.9,0.6-10.2,1.5c-1,0.3-2,0.7-2.8,1.4c-3.8,2.9-5.7,6.7-5.6,11.5
					c0.1,3.2,1.4,6.1,3.6,8.3c3.9,3.9,8.5,6.6,13.9,8c2.3,0.6,2.7,0.4,4.3-1.6c1.3-1.6,2.8-3,4.6-4.1c2.7-1.8,5.6-2.9,8.6-3.7
					c0.7,0.1,1.4,0.2,2,0.4C-225.4,306.1-224.6,305.8-223.7,304.5L-223.7,304.5z"/>
				<path class="st4" d="M-224.6,333.3c-0.6-0.2-1.2-0.3-1.8-0.2c-2.1,0.1-4.1,0-6-0.8c-2.2-0.9-4.1-2.3-5.3-4.4
					c-1.1-2-1.1-4-0.8-6.2c0.5-3.2,2.5-5,4.9-6.7c3.1-2.1,6.5-3.8,10.2-4.7c2.6-0.6,5.3-1.1,8-1.1c0.8,0,1.7-0.2,2.5-0.1
					c0.5,0.1,1-0.3,1.3-0.7c2.6-3.4,6.3-4.7,10.2-5.5c1.7-0.4,3.4-0.3,5.1-0.3c4.6,0,8.8,1.5,12.8,3.5c1.5,0.7,3,0.6,4.5,0.1
					c1.6-0.6,3.3-0.8,5-0.6c1.4,0.2,2.8,0.7,4.2,1.2c4.4,1.6,7.9,4.5,10.7,8.2c1.8,2.4,3,5.2,3.5,8.2c0.3,1.7,0.6,3.3,0.4,5.1
					c-0.5,3.6-2.1,6.5-4.8,8.8c-2.8,2.4-5.9,3.7-9.5,4.1c-1.3,0.1-2.5,0-3.7-0.3c-1.8-0.4-2.7-2.4-1.9-4.1c0.9-1.9,1.5-3.8,1.5-5.9
					c0-3.4-0.6-6.7-3.1-9.3c-2.6-2.6-5.7-4.5-9.2-5.8c-2.3-0.9-4.6-1.4-7-1.6c-4.5-0.3-8.8,0.5-12.8,2.4c-4.2,2-5.1,7.1-2.8,10.3
					c1.5,2.1,3.6,3.6,6.2,4.3c1.3,0.4,2.6,0.7,4,0.1c0.2-0.1,0.4-0.1,0.6-0.2c0.5-0.3,0.9-0.7,0.8-1.3c-0.1-0.6-0.6-0.9-1.2-1
					c-1.1-0.1-2.2-0.2-3.2-0.6c-1.5-0.5-2.5-1.4-3.2-2.7c-0.8-1.4-0.2-2.9,0.7-3.8c0.8-0.8,1.8-1.4,2.9-1.8c2.2-0.8,4.5-1.2,6.9-1.3
					c2.6-0.1,5.1,0.4,7.4,1.5c1.5,0.7,2.7,1.6,3.8,2.9c1.6,2.1,3.3,4.2,4.2,6.7c0.9,2.4,1.3,4.7,0.7,7.2c-0.4,2.1-1.6,3.8-3.1,5.2
					c-2.1,2-4.6,3.3-7.4,4.1c-4.3,1.4-8.8,1.9-13.2,2.5c-2.3,0.3-4.6-0.1-6.9-0.3c-3.6-0.2-7-1.2-10.1-3.1s-5.2-4.5-6-8.1
					C-225.2,335.8-224.9,334.6-224.6,333.3z M-209.4,345.5c2.2,0.3,4.1,0.5,6,0.3c4.6-0.5,9.2-1,13.7-2.5c3.5-1.1,6.3-3.2,8.2-6.4
					c0.7-1.2,0.8-2.4,0.7-3.8c-0.2-2.4-1.1-4.6-2.5-6.5c-0.9-1.3-1.8-2.6-3-3.5c-1.8-1.4-3.9-1.9-6.3-1.9c-2.2,0-4.3,0.2-6.4,0.6
					c-1.1,0.3-2.1,0.7-3,1.4c-0.9,0.6-0.9,1.1-0.1,1.9c0.5,0.5,1.2,0.7,1.9,0.8c0.6,0.1,1.2,0.1,1.8,0.2c1.7,0.2,3.2,1.8,3.5,3.5
					c0.2,1.5-0.6,2.8-2.2,3.7c-2.2,1.1-4.5,1-6.7,0.1c-4-1.4-7.1-3.9-8.6-8c-1.1-3-0.3-5.7,1.6-8.2c1.6-2.2,4-3.3,6.5-4.1
					c2.6-0.8,5.1-1.6,7.9-1.5c2.6,0,5.1,0.2,7.6,0.7c3.7,0.8,7.1,2.4,10.2,4.6c1.9,1.4,3.8,2.8,5.1,4.8c2.6,4.3,3.3,8.9,1.8,13.7
					c-0.2,0.6-0.5,1.2-0.7,1.8c-0.2,0.5,0,0.8,0.5,0.9c0.6,0.1,1.3,0.2,1.9,0.1c2.8-0.3,5.2-1.4,7.4-3c2.9-2.1,4.4-5,4.7-8.5
					c0.2-2-0.3-4-1-5.9c-2.1-5.9-6.3-9.7-12-11.9c-2.6-1-5.2-1.3-7.9-0.3c-1.4,0.6-2.8,0.5-4.3,0.3c-1-0.2-1.8-0.7-2.6-1.1
					c-2.9-1.4-6-2.2-9.2-2.5c-1.7-0.2-3.5-0.1-5.2,0.1c-3.8,0.6-7.3,1.8-9.7,5.1c-1,1.3-2.4,1.8-4,1.6c-0.7-0.1-1.4-0.2-2.1-0.1
					c-5.7,0.4-11.1,2-15.9,5.1c-2,1.3-3.6,2.8-4,5.3c-0.3,1.7-0.2,3.3,0.9,4.7c1.9,2.4,4.5,3.6,7.6,3.6c1.2,0,2.5,0.1,3.7-0.3
					c1-0.3,1.3,0.4,1.8,1s0.7,1.2,0.1,1.9c-1,1.3-1,2.8-0.5,4.3c0.8,2.1,2.2,4,4.1,5.2C-215.5,344.6-212.5,345.5-209.4,345.5z"/>
				<path class="st4" d="M-243.3,331.2c1.3,0.1,2.3,0.3,3.4,0.3c1.4,0,2.5,0.7,3.5,1.5c1,0.9,2.1,1.3,3.3,1.6c1,0.2,1.9,0.5,2.9,0.7
					s1.7,0.7,2,1.8c0.4,1.7,1.1,3.3,1.9,4.9c0.2,0.4,0.4,0.7,0.3,1.1c-0.1,0.6-0.4,0.9-1,0.9c-0.2,0-0.5,0-0.7-0.1
					c-1-0.5-2-0.3-3.1-0.3c-3,0-6.1-0.1-9.1,0.3c-1.4,0.2-2.7,0.7-4.1,1.1c-4.6,1.3-8.6,3.6-11.7,7.2c-2.2,2.6-3.2,6.3-1.5,9.9
					c1.6,3.4,4.4,4.9,7.7,5.9c2.2,0.7,4.5,0.5,6.8,0.4c1.5-0.1,2.9-0.6,4.3-1.3c1.3-0.7,1.9-1.9,2.4-3.2c0.4-1.1-0.3-2-1.5-2
					c-1.1,0-2.1,0.3-3,0.9c-2.7,1.8-5.7,1.8-8.7,1.2c-2.8-0.5-4.8-3.6-4.4-5.8c0.1-0.6,0.2-1.2,0.2-1.8c0-1,0.4-1.8,1.1-2.4
					c1.6-1.4,3.2-2.9,5.1-3.9c2.5-1.3,5.2-2,8-2.2c3.2-0.3,6.5-0.2,9.7,0.5c1.7,0.4,3.5,0.7,5.2,1.2c2.2,0.6,4.2,1.6,6.1,2.8
					c1.5,0.9,2.9,2,4.3,3c4,2.9,6.3,6.8,6.8,11.7c0.4,3.5-1.1,6.3-2.9,9c-2.3,3.4-5.5,5.4-9.4,6.5c-2.5,0.7-4.9,1.5-7.4,1.7
					c-1,0.1-2.1,0.1-3.1,0.1c-1.9-0.1-3.9,0-5.8-0.1c-2.2-0.1-4.3-0.4-6.5-0.9c-0.5-0.1-0.7,0.2-1.1,0.4c-2.9,1.9-6,2.8-9.5,2.7
					c-3.7-0.2-7.2-1.1-10.6-2.6c-3.1-1.4-5.1-3.8-6.5-6.8c-0.8-1.6-1.1-3.4-1.4-5.2c-0.1-0.4-0.1-0.9-0.2-1.3c-0.3-1.1-1-1.8-2.2-2
					c-1.3-0.2-2.5-0.6-3.8-0.9c-3.1-0.8-5.4-2.6-7.6-4.8c-1.2-1.1-2.1-2.4-2.6-4c-0.8-2.5-0.5-4.9,1.2-7c2.5-3.2,5.7-5.6,9.5-7.1
					c2.7-1.1,5.5-1.9,8.5-1.7c0.7,0.1,0.9-0.2,1.1-1c0.4-2.4,1.4-4.6,3.3-6.4c3-2.8,6.7-4.1,10.7-4.7
					C-250.1,330.7-246.6,330.9-243.3,331.2z M-243.2,333.7c-2.1-0.3-4.4-0.1-6.7-0.1c-3,0.1-6,0.5-8.8,1.8s-5.1,3.2-5.9,6.3
					c-0.2,0.9-0.5,1.7-0.9,2.5c-0.5,1-0.8,1.3-1.9,1.2c-0.8-0.1-1.6,0-2.4,0.1c-5.6,0.7-10.5,2.8-14.3,7.1c-2,2.2-2.5,3.8-0.9,6.9
					c0.4,0.8,1.1,1.3,1.6,1.9c2.6,2.8,5.8,4.3,9.6,4.8c2.5,0.3,4.2,1.7,4.5,4.1c0.2,1.3,0.4,2.6,0.8,3.8c0.8,3,2.4,5.5,5,7
					c3.9,2.2,8,3.2,12.5,2.6c1.6-0.2,3.2-0.4,4.5-1.4c0.9-0.7,2.1-0.9,2.9-1.8c0.2-0.2,0.6-0.3,1-0.2c0.5,0.2,1,0.3,1.4,0.4
					c1.9,0.6,3.8,1.1,5.7,1c1.6-0.1,3.1,0,4.6,0c4.1-0.1,8-0.7,11.9-2.1c3.1-1.2,5.3-3.1,7-5.8c2.7-4.4,2.1-9.4-0.9-13.5
					c-1.4-1.9-3.3-3.1-5.1-4.4c-2.1-1.5-4.2-3-6.6-3.7c-2.5-0.8-5.1-1.3-7.7-1.7c-3.7-0.6-7.4-0.4-11,0.7c-3,0.9-5.5,2.4-7.5,4.8
					c-1.5,1.8-1.2,4.3,0.6,5.4c1,0.6,2.2,0.9,3.4,0.8c1.8-0.1,3.3-0.9,4.8-1.7c1.2-0.6,2.4-1.1,3.7-1.2c1.7-0.1,4.2,0.8,4.4,3.2
					c0.1,1.1,0.1,2.1-0.3,3.1c-0.7,1.8-2,3-3.7,3.9c-2.9,1.6-6,1.5-9.2,1.5c-1.8,0-3.5-0.6-5.3-1.1c-3-1-5.6-2.5-7.2-5.4
					c-2.1-3.8-2.7-7.6-0.6-11.6c0.7-1.3,1.6-2.3,2.6-3.3c2.8-2.9,6.1-5.1,10-6.5c4.9-1.7,10-2.4,15.2-1.8c0.7,0.1,1.4,0.1,2.1,0.2
					c0.5,0,0.7-0.3,0.6-0.8c-0.2-0.8-0.5-1.6-0.8-2.4c-0.2-0.5-0.4-0.8-1-0.8c-0.9,0-1.8-0.4-2.6-0.6c-1.9-0.6-3.7-1.2-5.3-2.5
					c-0.4-0.4-0.9-0.6-1.5-0.6C-241.5,333.9-242.2,333.8-243.2,333.7z"/>
				<path class="st4" d="M-200.3,393.8c0.2-1.2,0.1-2.2,0.7-3.1c0.8-1.1,1.5-1.2,2.4-0.3c1.5,1.3,3.3,1.8,5.1,2.4
					c2.5,0.9,5.2,1,7.9,1.1c2.5,0.1,5.1-0.4,7.5-1.1c2.5-0.7,5-1.6,7.3-3c1.6-1,2.7-2.2,3.5-3.8c0.4-0.7,0.9-1.2,1.4-1.7
					s1.1-0.5,1.7-0.3c5.8,1.4,11.1,0.6,15.8-3.3c1.9-1.6,3.7-3.4,5.2-5.4c1.2-1.6,1.6-3.4,2.2-5.2c1-3.2,0.4-6.4-0.2-9.5
					c-0.4-2,0.1-3.6,1.3-5.1c1.2-1.7,2.6-3.1,4.1-4.5s3.4-2.3,5.4-2.8c0.9-0.2,1.8-0.4,2.6-0.6c4.9-1.2,9.2,0,12.9,3.5
					c2.1,2,3.5,4.4,4.4,7.2c1.3,3.6,1.7,7.4,3.4,10.9c1.3,2.7,2.9,5.1,4.9,7.3c3.9,4.2,8.8,6.2,14.1,7.8c1,0.3,1.8,1.1,2.8,1.4
					c0.5,0.1,0.5,0.7,0.3,1.2c-0.6,1.5-1.1,3-1.4,4.6c-0.4,1.9-1.3,3.8-0.8,5.9c0.1,0.2,0,0.5-0.1,0.7c-0.2,1-0.7,1.3-1.6,1
					c-1.2-0.4-2.4-0.8-3.6-0.9c-5.7-0.4-11.2,0.6-16.5,2.9c-2.5,1.1-4.6,2.8-6.7,4.5c-0.8,0.7-1.5,1.4-1.6,2.6
					c-0.1,0.7-0.6,1-1.4,1.1c-1.1,0.1-2-0.2-2.9-0.8c-2.3-1.5-4.8-2.4-7.4-3c-2-0.5-4-1.1-6-1.2c-4.4-0.2-8.7,0.1-13,1.6
					c-4.5,1.5-8.7,3.8-13.3,5.2c-3.7,1.2-7.5,2.5-11.4,3c-3.6,0.5-7.1,0.3-10.7-0.4c-3-0.6-5.8-1.3-8.5-2.7
					c-3.6-1.9-6.3-4.7-8.3-8.2C-200.4,399.8-200.5,396.7-200.3,393.8z M-197.5,393.6c-0.4,1.5-0.1,2.9,0,4.2c0,0.7,0.1,1.5,0.4,2.2
					c1,2.3,2.7,4.1,4.4,5.8c0.8,0.8,1.8,1.5,2.9,2.1c2.4,1.2,4.9,2.1,7.5,2.6c3,0.6,6.1,1,9.2,0.7c2.9-0.3,5.6-1.2,8.3-2.1
					c2-0.6,4.1-1.2,6.1-2.1c3-1.3,6-2.5,9-3.7c4.3-1.6,8.8-2.3,13.3-2.2c2.8,0.1,5.5,0.6,8.2,1.1c3.2,0.7,6.2,2.1,9.2,3.3
					c0.7,0.3,0.9,0.2,1.4-0.3c1.2-1.4,2.5-2.7,3.8-4c1.8-1.8,4.3-2.6,6.5-3.6c3.3-1.4,6.8-2,10.3-2.3c2.6-0.2,5.3-0.4,7.9,0.4
					c0.7,0.2,1,0,1.1-0.9c0.2-2.1,0.7-4.1,1.3-6.1c0.2-0.7,0.1-1-0.7-1.2c-3.2-0.9-6.3-2.2-9.2-3.8c-3.8-2.1-6.5-5.3-8.9-8.8
					c-0.7-0.9-1.2-2-1.7-3c-1.4-2.8-2.3-5.8-3-8.9c-0.6-2.4-1.2-4.8-2.5-7c-1.9-3.4-4.8-5.2-8.6-5.7c-1.5-0.2-3,0.1-4.5,0.1
					c-3.1,0.2-5.4,2.1-8,3.5c-0.1,0.1-0.2,0.2-0.3,0.3c-0.9,1-1.7,2.1-2.6,3.1c-0.7,0.8-1.1,1.6-0.7,2.7c0.2,0.6,0.3,1.4,0.4,2.1
					c0.3,1.9,0.5,3.9,0.5,5.8c0,1-0.5,1.8-0.6,2.8c-0.3,2.2-1.1,4.3-2.3,6.1c-2,3.1-4.7,5.6-7.8,7.7c-4.6,3.2-9.8,3.6-15.2,2.6
					c-0.6-0.1-0.9-0.1-1.2,0.5c-1.4,2.9-3.7,4.8-6.7,6c-4.3,1.8-8.7,3.1-13.5,3.1c-2.9,0-5.8-0.4-8.6-1.1
					C-194.1,395-195.7,394.3-197.5,393.6z"/>
				<path class="st4" d="M4.7,439.1c0.5-3.1,0.4-5.9-0.2-8.7c-0.2-1-0.6-1.9-1-2.8c-0.3-0.3-0.5-0.7-0.5-1.1
					c-0.1-0.8,0.8-1.6,1.4-1.2c1.4,1,2.7,0.2,3.9-0.3c0.2-0.1,0.3-0.2,0.5-0.3c0.9-0.4,1.4-0.3,1.9,0.5c1.7,2.6,4,4.6,6.8,5.9
					c0.8,0.4,1.5,1.1,1.7,2c0.8,3.5,2.3,6.7,2.9,10.2c0.4,2.4,0.8,4.8,0.7,7.3c-0.2,3.2-1.5,6.2-2.9,9.1c-1.7,3.6-4.6,6.1-8.1,7.9
					c-1.6,0.8-3.2,1.1-4.9,0.9c-1.3-0.1-2.6,0-3.8-0.6c-0.4-0.2-0.8,0.1-1.1,0.4c-0.3,0.3-0.5,0.6-0.8,0.9c-2.2,2.6-5.3,3.5-8.3,4.5
					c-2.7,0.9-5.6,1.6-8.5,1.8c-3,0.3-6,0.3-9.1-0.4c-3.8-0.8-7.1-2.3-9.9-4.9c-3.6-3.4-7.1-6.9-9-11.6c-0.4-1-0.8-1.9-1.6-2.7
					c-1.1-1.1-2.5-1.2-3.9-1.4c-4.1-0.6-7.4-2.6-10.1-5.7c-1.4-1.6-2.6-3.4-3.5-5.4c-1.5-3.8-0.8-7.2,1.5-10.5
					c2.4-3.4,5.7-5.4,9.6-6.5c1.8-0.5,3.5-1.3,5.1-2.2c2-1.2,2.5-1.9,3.1-4.5c1.1-4.4,3.7-7.5,7.7-9.4c2.2-1,4.6-1.6,7.1-1.3
					c2,0.2,4.1,0.2,6.1,1c1.8,0.7,3.7,1.2,5.4,2c1.1,0.5,2,1.5,3,2.3c1.9,1.5,4,2.6,5.7,4.4c4.1,4.3,7.5,8.8,8.2,15
					c0.2,2,0.5,4,0.2,6c-0.5,3.6-1.7,7-4.3,9.7c-0.6,0.7-1.4,1.1-2.2,1.5c-3,1.5-6.3,2.2-9.6,2c-2.2-0.1-4.3-0.9-5.8-2.7
					c-1.6-1.8-2.6-3.9-2.9-6.3c-0.1-1.5,0.3-2.1,1.7-2.6c0.1,0,0.3-0.1,0.4-0.1c1.7-0.5,1.9-1,0.7-2.3c-0.9-1-2.1-1.1-3.3-0.6
					c-1.3,0.6-2.2,1.7-3,2.8c-0.7,0.9-0.8,2-0.5,3.1c1.1,4.2,3.4,7.5,6.9,10.1c0.8,0.6,1.8,0.8,2.8,1.1c5.8,1.8,11.4,1.4,16.5-2.1
					c2.7-1.8,4.6-4.3,5.7-7.3C4,443.8,4.8,441.4,4.7,439.1z M6.1,428.1c0.3,1,0.6,1.9,0.7,2.8c0.6,4.2,0.6,8.4-0.5,12.6
					c-1.1,4.8-3.4,8.8-7.4,11.8c-2.2,1.7-4.7,2.8-7.3,3.3c-3.4,0.6-6.8,0.7-10.2-0.3c-1.7-0.5-3.4-1-4.8-2.1
					c-3.3-2.6-5.7-5.9-7.1-9.8c-1.1-3-0.8-5.9,1.6-8.3c0.8-0.8,1.8-1.6,2.8-2.3c0.8-0.6,1.9-0.7,2.9-0.5c2.1,0.5,3.5,1.9,4.2,3.9
					c0.6,1.7,0.1,3-1.6,3.8c-0.3,0.1-0.6,0.2-0.9,0.3c-0.7,0.1-0.9,0.6-0.9,1.2c0,0.4,0.1,0.9,0.3,1.3c1.4,3.6,4.1,4.7,7.6,4.7
					c1.8,0,3.7-0.5,5.4-1c2.5-0.7,4.3-2.3,5.4-4.6c1.1-2.2,1.4-4.5,1.6-6.8c0.4-3.8-0.6-7.2-2.1-10.6c-0.8-1.7-2.1-3-3.3-4.4
					c-2.3-2.9-5-5.4-8-7.6c-0.7-0.6-1.5-1.2-2.6-1c-0.3,0.1-0.6-0.1-0.8-0.3c-1.5-1-3.1-1.8-4.9-2.1c-2.2-0.4-4.3-0.8-6.5-0.6
					c-2.8,0.2-5.3,1.3-7.4,3.3c-1.8,1.8-3.2,3.7-3.5,6.3c-0.3,2-1.2,3.6-2.9,4.7c-1.2,0.8-2.3,1.5-3.7,2c-1.8,0.7-3.6,1.4-5.3,2
					c-2.4,0.9-4.4,2.4-5.9,4.5c-2.6,3.5-3.1,6.1-0.7,10c0.7,1.1,1.6,2.2,2.5,3.2c2.5,2.8,5.5,4.7,9.4,5.1c1.6,0.2,3,0.6,4.2,1.8
					c0.8,0.8,1.3,1.8,1.7,2.8c0.9,1.9,1.8,3.7,3.1,5.3c1.1,1.4,2.5,2.6,3.7,3.9c2.6,2.9,5.7,5,9.4,6.1c3,0.9,6,1.2,9,1
					c3.4-0.2,6.7-1,9.9-2.1c2.9-1,5.6-2,7.5-4.7c0.4-0.5,1-1,1.7-0.7c1.5,0.5,3.2,0.2,4.7,0.4c0.8,0.1,1.8,0,2.6-0.3
					c2.2-1,4.3-2.3,5.9-4.1c2.4-2.7,3.8-6,4.6-9.5c0.8-3.5,0.3-7.1-0.7-10.5c-0.6-2.2-1.4-4.3-2-6.5c-0.3-1.3-1-2-2-2.6
					c-2.3-1.2-4-3-5.5-5.1c-0.4-0.6-0.7-0.9-1.5-0.5C7.8,427.5,7,427.8,6.1,428.1z"/>
				<path class="st4" d="M87.5,452.1c-0.2,4.2-2.3,8-5.2,11.5c-3.1,3.8-7.1,4.9-11.6,5.1c-2.4,0.1-4.9-0.1-7.3,0.1
					c-2,0.2-3.7,1.1-5.3,2.2c-1.9,1.3-3.7,2.7-5.8,3.6c-2.5,1.1-5.1,1.8-7.8,2c-1.9,0.1-3.8,0.3-5.7,0c-4-0.7-8-1.7-11.6-3.8
					c-1.2-0.7-2.4-1.4-3.5-2.3c-1-0.9-1.3-1.7-0.8-2.9c0.6-1.6,1.5-3.1,2.4-4.5c1.4-2.2,2.1-4.6,2.9-7c1.4-4.8,0.6-9.4-1-14
					c-0.9-2.6-1.6-5.2-2.6-7.7c-0.2-0.6-0.3-1.1,0.3-1.5c0.2-0.1,0.4-0.3,0.7-0.1c1.8,1,3.8,0.9,5.8,0.8c0.5,0,1.1-0.1,1.6-0.2
					c1.2-0.1,1.6,0.3,1.8,1.5c0.2,1.1,0.4,2.3,0.4,3.4c0.2,3.1,1.6,5.6,3.4,8c2.2,3.1,5.3,5,8.8,6.2c3.2,1.1,6.4,1.1,9.5-0.4
					c4.2-2,4.8-6.3,3.4-9.7c-0.4-1-1.9-1.4-2.8-0.9c-0.5,0.3-0.5,0.7-0.3,1.2c0.3,0.9,0.4,1.7,0.6,2.6c0.3,1.3-0.2,2.3-1,3.2
					c-1.4,1.6-3.3,2.3-5.4,2.1c-5.7-0.5-10.4-4.3-11.8-9.7c-0.4-1.4-0.7-2.8-0.8-4.3c-0.1-0.9,0.2-1.7,0.7-2.4
					c0.7-1,1.6-1.9,2.5-2.8c1.6-1.4,3.1-2.8,4.5-4.4c1.7-1.8,3.6-2.4,6.1-1.8c3.9,0.9,7.7,0.5,11.2-1.3c1.1-0.5,2.1-1.2,3-2
					c0.7-0.7,1.4-0.8,2.4-0.5c1.9,0.6,3.7,1.2,5.4,2.1c3.3,1.9,6.3,4.2,8.3,7.6c1.8,3,3.4,6,4.2,9.4c0.5,2.1,0.6,4.3,0.7,6.5
					C87.7,448.7,87.6,450.2,87.5,452.1z M84.3,450.7c0.1-1.6,0.3-3.2,0.2-4.8c-0.1-2.9-0.7-5.6-1.8-8.3c-1.8-4.6-5-8-9-10.7
					c-1.3-0.9-2.6-1.7-4.1-2.3c-0.6-0.3-1.1-0.2-1.6,0.3c-1.7,1.8-3.7,3.1-6.1,3.9s-4.9,1.3-7.4,0.7c-1.2-0.3-2.4-0.4-3.5-0.6
					c-1.3-0.3-2.3,0.1-3.1,1.1c-1.1,1.3-2.6,2.4-3.9,3.5c-0.8,0.6-1.4,1.4-2.2,2.1c-0.5,0.5-0.8,1.2-0.7,1.9
					c0.4,3.5,1.7,6.5,4.8,8.6c1.3,0.8,2.8,1,4.2,1.5c1.5,0.5,2.7,0.1,3.9-0.8c0.6-0.5,0.8-1,0.6-1.7c-0.3-1-0.5-2-0.6-3.1
					c-0.2-1.6,1.1-3.4,2.7-3.5c3-0.3,5.3,1.3,6.1,4.2c0.3,1.2,0.5,2.4,0.5,3.5c0,2.3-0.2,4.5-2.4,6c-0.2,0.2-0.4,0.4-0.6,0.6
					c-1.9,1.9-4.2,2.9-6.9,3.2c-1.4,0.2-2.7-0.2-4-0.4c-2.4-0.3-4.6-1.3-6.8-2.3c-2.4-1.1-4.4-2.6-6.1-4.5c-2.4-2.7-3.2-6.1-4.1-9.4
					c-0.2-0.6-0.3-1.2,0-1.9c0.2-0.5-0.1-1.2-0.7-1.3c-1-0.2-2-0.2-3-0.3c-0.3,0-0.5,0.2-0.4,0.5c0.1,0.2,0.2,0.5,0.2,0.7
					c0.4,1.6,1.3,3.2,1.4,4.9c0.1,1.8,0.5,3.5,0.7,5.2c0.1,1.2,0.3,2.4,0.3,3.6c-0.2,4.6-1.3,9-3.6,13c-0.6,1.1-1.2,2.2-1.8,3.3
					c-0.5,1-0.3,1.4,0.6,2c1.2,0.8,2.4,1.4,3.7,2c2.3,1,4.6,1.7,7.1,2.3c3,0.7,5.8,0.5,8.7,0c3.4-0.5,6.2-2.4,9-4.3
					c1.3-0.9,2.6-1.7,4-2.3c2.4-1.1,5-0.8,7.5-0.8c2.3,0,4.6,0.1,6.9-0.3c1.6-0.3,3-0.8,4.2-1.9C81.3,460.3,84.1,456.2,84.3,450.7z"
					/>
				<path class="st4" d="M-120.4,315.1c3.4,0.2,6.6,1,9.7,2.3c4.2,1.7,8,4,11.3,7.2c1.8,1.8,3.3,3.7,4.5,6c1.9,3.6,3.8,7.1,5.6,10.8
					c1.9,3.7,4.1,7.3,6.9,10.5c3.4,3.9,7.2,7.5,11.5,10.4c2.3,1.5,5,2.6,7.7,3.4c1.7,0.5,3.3,1.2,4.6,2.4c1.5,1.3,1.7,2.3,0.9,4.1
					c-0.2,0.4-0.1,0.8-0.1,1.2c0,0.7-0.3,1-1,1s-1.5-0.1-2.2-0.2c-3.4-0.3-6.7-0.2-10,0.6c-3.5,0.9-6.8,2.5-9.1,5.4
					c-0.1,0.1-0.2,0.3-0.3,0.4c-1.2,1.3-2.5,2-4.5,1.5c-3.9-1-7.4-2.8-10.3-5.5c-3.9-3.7-6.7-8.2-7.8-13.6c-0.4-1.8-0.9-3.5-1.4-5.2
					c-0.3-1.1-0.7-2.2-1.4-3.2c-0.4-0.6-0.7-1.2-0.9-1.9c-0.5-1.9-1.7-3.3-3.2-4.4c-2.1-1.6-4.4-2.9-6.9-3.8
					c-4.2-1.4-8.3-1.2-12.5,0c-3.2,0.9-6,2.5-8.5,4.6c-0.9,0.7-1.8,1.5-2.7,2.2c-0.6,0.5-1.1,0.4-1.3-0.3c-0.8-1.9-2.3-3.3-3.6-4.8
					c-1.2-1.4-2.9-1.8-4.6-2.4c-1.1-0.4-2.3-0.7-3.4-1c-0.8-0.2-1.4-0.7-1.8-1.5c-0.2-0.6-0.2-1,0.2-1.5c2.5-2.8,3.8-6.2,5.1-9.6
					c0.9-2.4,2.3-4.5,4.1-6.4c2.4-2.7,5.5-4.2,8.8-5.6c4.1-1.7,8.4-2.6,12.8-3.1C-123,314.7-121.7,315.1-120.4,315.1z M-120.4,318.5
					c-1.1-0.1-2.2-0.4-3.3-0.3c-5.7,0.7-11.2,1.9-16.2,5c-3.2,2-5.8,4.6-7.2,8.1c-1.1,2.5-2.2,5.1-3.9,7.2c-0.1,0.2-0.2,0.3-0.3,0.5
					c-0.5,1.1-0.4,1.1,0.6,1.7c1.9,1,3.9,1.9,5.6,3.3c1.2,1,2.1,2.1,3.1,3.3c0.7,0.8,0.9,0.9,1.6,0.1c1.6-1.7,3.4-2.9,5.4-3.9
					c4.9-2.5,10.2-3.3,15.7-2.4c3.5,0.6,6.6,2.1,9.6,4c0.9,0.6,1.7,1.3,2.4,2c2.6,2.5,4,5.8,5.2,9c0.8,2.2,1.4,4.5,1.9,6.8
					c1.1,4.8,3.8,8.6,7.5,11.7c2.7,2.3,6,3.8,9.3,5c0.6,0.2,0.8-0.1,1.1-0.5c1.3-1.7,2.6-3.3,4.5-4.3c4.8-2.7,9.9-3.5,15.3-3.1
					c0.7,0.1,1.5,0.1,2.2,0.2c0.3,0,0.7,0.1,0.9-0.3c0.1-0.4,0-0.7-0.2-1c-0.5-0.6-1.1-1-1.9-1.2c-0.9-0.3-1.9-0.6-2.9-0.9
					c-4.1-1.2-7.8-2.9-11.1-5.7c-2.6-2.3-5.2-4.7-7.6-7.2c-2.4-2.6-4.4-5.4-6.3-8.4c-3.1-4.8-5.4-10-8-15.1
					c-1.6-3.1-3.7-5.6-6.5-7.5C-108.8,321.1-114.3,319-120.4,318.5z"/>
				<path class="st4" d="M-83.1,394.7c0.2-3.1,0.9-6.2,2.8-8.7c2.5-3.3,5.4-6.2,9.3-7.9c1.1-0.5,2.3-1,3.5-1.4
					c4.2-1.4,8-0.7,11.6,1.7c1.4,0.9,2.8,1.7,3.9,3c2.2,2.6,2.7,5.5,2,8.7c-0.3,1.6-2.2,2.6-3.9,2.1c-0.9-0.3-1.8-0.4-2.8-0.2
					c-1.3,0.3-1.7,1.5-0.8,2.5c1.1,1.1,2.6,1.7,4.2,1.8c0.8,0.1,1.6-0.1,2.4-0.3c3.5-0.6,5.7-3.7,5.9-6.5c0.3-2.8-0.1-5.4-1.5-7.8
					c-1.3-2.1-3-4-5.2-5.4c-0.6-0.4-1.1-0.9-1.6-1.3c-1-0.8-1.1-1.7-0.8-2.8c0.8-3.2,2.4-5.8,4.7-8c2.5-2.5,5.5-4.3,9-5.1
					c2.8-0.7,5.6-0.8,8.4,0c2,0.5,4.1,1,6,1.9c3.7,1.8,7,4.3,9.8,7.2c2,2,3.7,4.2,4.9,6.7c0.8,1.6,1.1,3.2,0.7,4.9
					c-0.2,0.9-0.7,1.7-1.3,2.3c-2.5,2.9-3.6,6.3-3.9,10c-0.2,2.7,0.4,5.2,2.2,7.3c0.2,0.2,0.3,0.4,0.5,0.6c1,0.9,1,1.9,0.5,3.1
					c-0.6,1.2-1,2.5-1,3.9c0,0.2,0,0.4-0.1,0.6c-0.3,1.4-1,2-2.4,1.8c-1.3-0.2-2.6-0.8-3.9-1.1c-1.3-0.3-2.6-0.5-3.9-0.5
					c-0.9,0-1.8,0.1-2.7-0.1c-3-0.4-6,0-8.9,0.4c-0.2,0-0.4,0.1-0.5,0.2c-2.4,1.6-5.1,2.7-7.3,4.6c-1.9,1.6-3.1,3.5-3.8,5.8
					c-0.8,2.4-3.1,3.5-5.5,2.5c-1.3-0.5-2.6-1.3-3.9-1.9c-1.4-0.6-2.9-0.7-4.4-1c-2.6-0.5-4.9-1.7-7.4-2.5c-2.7-0.9-4.9-2.5-7-4.2
					c-1.4-1.1-2.9-2.2-4.2-3.7c-3.1-3.6-4.2-7.8-3.8-12.5C-83.2,395.3-83.1,395-83.1,394.7z M-34.9,361.4c-1.3-0.1-2.6-0.2-3.9,0.1
					c-2.7,0.6-5.1,1.9-7.5,3.4c-2.6,1.7-4.1,4-5.2,6.7c-0.3,0.7-0.5,1.6,0.2,2.1c1.1,0.8,1.8,2,3,2.7c0.6,0.4,1.1,0.8,1.6,1.3
					c2.9,3.5,4.4,7.4,3.9,11.9c-0.5,4.4-2.8,7.4-7.1,8.7c-3.3,1-6.4,0.8-9.2-1.6c-1.4-1.2-1.9-2.7-1.6-4.4c0.3-1.4,1-2.4,2.5-2.7
					c1.4-0.3,2.8-0.1,4.2,0.2c1.1,0.2,1.3,0.1,1.7-0.9c0.4-0.8,0-1.5,0-2.2c-0.1-1.5-0.7-2.9-1.9-3.9c-1-0.8-2-1.5-3.1-2.1
					c-2.9-1.7-5.9-2.5-9.2-1.5c-4.1,1.2-7.7,3.2-10.5,6.6c-1.3,1.5-2.6,2.9-3.1,4.9c-0.5,2.2-1.2,4.3-1,6.6
					c0.3,4.2,1.5,7.9,4.9,10.7c3.2,2.6,6.5,5.1,10.4,6.4c1.7,0.6,3.3,1.4,5.1,1.7c1.3,0.2,2.6,0.5,3.9,0.9c1.6,0.5,3,1.4,4.4,2.2
					c1.3,0.7,2,0.9,2.7-0.9c0.5-1.3,1.1-2.6,1.9-3.8c1.6-2.5,3.8-4.3,6.5-5.7c1.1-0.6,2.2-1.1,3.2-1.7c1.3-0.8,2.8-1.4,4.3-1.6
					c3.2-0.6,6.5-0.3,9.7-0.3c2.4,0,4.6,0.7,6.9,1.5c0.9,0.3,1.1,0.2,1.2-0.7c0.1-1.1,0.3-2.1,0.7-3c0.4-0.8,0.3-1.3-0.3-1.9
					c-1.9-2.1-2.5-4.8-2.5-7.4c0-4.7,1.1-9.2,4.5-12.7c1-1,0.9-1.9,0.7-3.1c-0.1-0.6-0.4-1.2-0.8-1.6c-0.9-1.1-1.6-2.3-2.4-3.4
					c-2-2.8-4.8-4.8-7.5-6.8C-26.8,363.4-30.7,362-34.9,361.4z"/>
				<path class="st4" d="M-159.2,379.9c-2.1-0.1-4.1-0.8-6.2-1c-1.2-0.1-2,0.2-2.6,1.3c-0.3,0.7-0.8,1.4-1.2,2.1
					c-1.3,2.3-3.4,3.7-5.7,4.7c-2.5,1.2-5.2,1.6-8,1.7c-1.4,0-2.7,0.1-4-0.1c-4.3-0.7-8.4-1.9-11.8-4.8c-2.7-2.3-4.8-4.9-5.3-8.6
					c-0.3-1.8,0.5-3.4,1.1-5c0.3-0.9,0.8-1.8,1-2.8c0.7-2.2,0.5-4.2-0.4-6.3c-0.9-2.1-2.3-3.9-3.9-5.5c-0.9-0.9-0.8-1.4,0.3-2
					c0.9-0.4,2-0.5,2.9-0.5c3.2,0.1,6.4-0.3,9.4-1.4c0.6-0.2,1.2-0.3,1.8-0.4c1.3-0.2,2.3,0.5,2.3,1.8c0,0.9,0,1.9-0.3,2.7
					c-0.4,1.1-0.3,2.1,0,3.1c1.4,4.4,5.6,8.4,10.5,8.6c2.6,0.1,5-0.5,7.1-1.9c0.8-0.6,1.5-1.4,1.4-2.5c0-0.9-0.6-1.6-1.5-1.8
					c-1.7-0.4-3.3-0.2-4.6,1.1c-1.2,1.2-2.7,1.2-4.1,0.7c-2.3-0.8-4.3-2.2-5.3-4.5c-0.3-0.6-0.3-1.2-0.4-1.8c-0.2-3.2,0.5-5.9,3.1-8
					c2.1-1.7,4.5-3,7.2-3.4c0.9-0.1,1.7,0,2.4,0.6c2,1.7,4.3,2,6.7,1c1.5-0.6,3-1.2,4.6-1.3c2.7-0.3,5.3,0.3,7.7,1.3
					c2,0.8,3.8,1.8,5.5,3c1.9,1.3,3.2,3.2,4.3,5.1c1.9,3.2,3,6.7,2.9,10.4c-0.1,4.1-1.3,7.8-4.7,10.4c-1.1,0.9-2.2,1.7-3.4,2.4
					C-152.7,379.8-155.4,380.3-159.2,379.9z M-202.4,356c0,0.7,0.4,1,0.7,1.4c3.2,3.9,3.5,8.2,1.7,12.8c-0.3,0.7-0.6,1.4-0.9,2.1
					c-0.5,1.4-0.8,2.9-0.2,4.4c0.6,1.8,1.7,3.3,3.1,4.6c2.6,2.3,5.7,3.8,9.1,4.4c3.8,0.7,7.7,0.7,11.4-0.3c2.6-0.7,4.8-1.9,6.2-4.4
					c0.4-0.8,0.9-1.7,1.4-2.5c0.6-1.1,1.5-1.7,2.7-1.8c2.1-0.2,4.1,0.1,6.1,0.5c3.5,0.7,6.8,0.8,10-1c1.4-0.8,2.6-1.9,3.8-2.9
					c1.6-1.2,2.4-3,2.7-4.9c0.6-2.8,0.6-5.6-0.4-8.3c-1-2.8-2.4-5.3-4.5-7.3s-4.7-3.1-7.4-4.2c-2.6-1-5.2-0.9-7.7,0
					c-1.1,0.4-2.2,0.8-3.3,1.1c-0.8,0.2-1.6,0.5-2.3,0.3c-1.6-0.4-3.2-0.8-4.5-1.8c-0.5-0.4-1.1-0.5-1.8-0.3
					c-1.5,0.3-2.6,1.2-3.9,1.9c-1.8,1.1-3.1,2.5-3.6,4.5c-1,3.5,0.8,5.6,3.4,6.8c0.8,0.3,1.7,0.4,2.4-0.3c0.6-0.7,1.5-1,2.3-1.4
					c1.8-1,3.6-0.4,5.4-0.1c0.2,0,0.4,0.2,0.5,0.3c2.3,1.9,2.4,4.6,1,6.7c-0.8,1.1-1.8,2-3.1,2.5c-0.7,0.3-1.4,0.6-2.1,0.8
					c-2.7,0.9-5.4,0.8-8.1,0c-2.2-0.6-4.1-1.9-5.8-3.6c-3.1-3.2-4.9-6.7-4.1-11.5C-195.6,355.5-199,356.2-202.4,356z"/>
				<path class="st4" d="M39.6,377.1c-0.6-0.1-0.9-0.6-1.2-1c-0.8-1-1.6-2.1-2.9-2.7c-0.4-0.2-0.7-0.6-0.8-1c0.6,0,1,0.4,1.4,0.7
					C37.5,374.1,38.9,375.3,39.6,377.1z"/>
				<path class="st4" d="M-69.2,452.6c0.6-0.7,1.5-1,2.2-1.4c0.8-0.4,1.4-0.9,1.5-1.9c0-0.1,0.2-0.2,0.3-0.3c-0.1,0.5-0.1,1-0.2,1.5
					c-0.1,0.6-0.4,1.1-1.2,1.1C-67.5,451.7-68.2,452.7-69.2,452.6z"/>
				<path class="st4" d="M34.6,372.3c-0.3,0-0.7,0-0.9-0.4C34.1,372,34.5,372,34.6,372.3z"/>
				<path class="st4" d="M205.1,623.7c1.3,1.2,2.4,2.2,3.5,3.2c2.7,2.4,4,5.4,4.4,8.9c0.1,1.3,0.3,2.6,0.2,3.9
					c-0.1,3-1.5,5.5-3.4,7.8c-2.8,3.3-6.5,4.6-10.7,4.8c-1.6,0.1-3.2,0.2-4.8,0.1c-2.5,0-4.9-0.9-7.2-1.8c-2.8-1-5.4-2.4-7.8-4.1
					c-1-0.7-2.1-1.1-3.1-1.7c-0.2-0.2-0.5-0.1-0.7,0c-0.7,0.1-1.3,0-1.7-0.7s0-1.3,0.4-1.9c1.1-1.4,2.2-2.7,2.9-4.3
					c1-1.9,1.7-3.9,1.9-6.1c0.4-4.3,0.5-8.6-0.3-12.8c-0.6-3.1-1.3-6.2-3.1-8.9c-1.6-2.5-3.7-4.5-6.7-5.2c-1.8-0.4-2.6-1.6-3.1-3.3
					c-0.6-2.2-1.7-4.1-3.1-5.9c-2-2.4-4.4-4-7.3-5.1c-1.6-0.6-3.3-0.9-4.9-1.4c-1.2-0.3-2.5,0-3.7-0.1c-4.6-0.3-9.3-0.3-13.8,1
					c-3.5,1-6.9,2.2-9.7,4.5c-2.1,1.7-3.3,4.1-3.5,6.8c-0.2,2.6,0.3,5.2,1,7.7c0.6,2,1.2,4,2.7,5.6c0.8,0.9,1.7,1.6,2.6,2.3
					c2.7,1.9,5.5,3.4,8.7,4.3c4,1.1,8,1.3,11.9-0.3c1.7-0.7,3.1-2,4.1-3.6c0.6-0.9,0.3-3.1-0.5-3.8c-0.2-0.2-0.5-0.3-0.8-0.4
					c-0.7-0.2-1.4,0-2.1,0.1c-1.2,0.3-1.4,0.6-0.8,1.8c0.7,1.5,0.7,1.5-0.6,2.5c-1.6,1.2-3.6,1.5-5.5,1.9c-2.6,0.6-5-0.4-7.4-1.4
					c-1-0.4-1.9-1-2.7-1.5c-4.9-3-7.2-7.6-7.7-13.2c-0.2-2.4,1.1-4.3,2.6-6c1.4-1.7,3.4-2.6,5.3-3.5c2.1-0.9,4.2-1.6,6.4-2.3
					c1-0.3,2.1-0.4,3.1-0.4c2.5,0,5-0.2,7.5,0.1c0.8,0.1,1.5-0.2,2.2-0.1c3.7,0.4,6.9,1.6,9.4,4.5c0.8,0.9,1.6,1.7,2.3,2.8
					c0.9,1.5,1.3,3.1,1.4,4.8c0.1,1.7,0.8,3,2.6,3.4c0.3,0.1,0.6,0.2,0.8,0.3c3.3,0.6,5.3,2.8,6.8,5.6c0.9,1.7,1.6,3.4,2.1,5.3
					c0.3,1.2,0.3,2.4,0.3,3.6c0,1.1-0.3,2.3-0.1,3.4c0.1,0.9-0.4,1.6-0.5,2.5c-0.7,3.6-1.9,7.1-4.4,9.9c-2.2,2.5-4.9,4.4-7.9,5.8
					c-3.1,1.5-6.4,2.1-9.9,2c-1.9,0-3.7-0.1-5.5-0.5c-2.6-0.7-4.9-1.9-7-3.6c-1.1-1-2.4-1.2-3.8-0.8c-4.5,1.1-9,1.5-13.5,0.7
					c-2.2-0.4-4.2-1.2-6.2-2.2c-2.9-1.5-5.6-3.2-8-5.5c-2.8-2.6-5.2-5.6-6.6-9.2c-0.4-0.9-1-1.6-1.8-2.2c-1.7-1.3-3.5-2.3-5.1-3.7
					c-1.7-1.5-2.7-3.5-3.3-5.6c-1.1-3.6-1.8-7.3-2.1-11c-0.2-3-0.2-6,1-8.8c1.1-2.7,2.8-5,4.8-7c3.4-3.5,7.7-5.3,12.3-6.6
					c2.2-0.6,4.4-0.6,6.7-0.6c0.5,0,1.1,0,1.6-0.1c0.8,0,1.6-0.3,2.4,0.3c0.5,0.4,1.2,0.1,1.8-0.3c1.7-1.4,3.4-2.8,5.1-4.2
					c3.1-2.4,6.4-4.4,10.2-5.5c1.9-0.5,3.9-1,5.8-1.5c1.6-0.4,3.1-0.4,4.7-0.4c2.1,0,4.3-0.1,6.4-0.2c1.3-0.1,2.5,0.4,3.7,0.7
					c3.1,0.8,6,2.3,8.8,3.9c4.4,2.5,8.4,5.5,12.2,9c1.7,1.6,4,1.9,6.3,1.8c4.7-0.4,9.3,0.3,13.6,2.3c1.9,0.9,3.5,2.3,4.9,3.9
					c1,1.2,2,2.5,3.1,3.7c2.4,2.6,4,5.6,5.1,8.9c1.4,4.1,1.9,8.3,1.6,12.7c-0.2,2.5-1.3,4.7-2.8,6.7c-0.9,1.3-2,2.5-3.5,3.2
					C205.7,623.3,205.4,623.5,205.1,623.7z M143.9,616.2c-0.3-0.6-0.4-0.9-0.6-1.3c-0.5-1.3,0-3.3,1.2-4.1c1.5-1,3.3-1.3,5-1.1
					c4,0.6,5.4,4.3,4.6,7.7c-0.6,2.5-2.4,4.3-4.6,5.5c-4.9,2.8-10.1,3-15.5,1.4c-3.4-1-6.5-2.7-9.4-4.7c-1.4-1-2.9-2-3.9-3.5
					c-3-4.9-4.3-10.2-3.8-15.9c0.4-4.6,2.8-7.9,6.8-10.2c4.3-2.5,8.9-4,13.9-4.4c2.4-0.2,4.9-0.3,7.3-0.3c1.5,0,3.1,0.1,4.6,0.2
					c1.8,0.1,3.5,0.5,5.3,1.1c3,0.9,5.6,2.4,7.9,4.4c2.8,2.5,4.6,5.7,5.8,9.3c0.2,0.7,0.5,1.2,1.3,1.4c3.2,0.5,5.5,2.3,7.4,4.7
					c2.9,4,4.3,8.5,4.8,13.4c0.3,2.3,0.3,4.7,0.3,7c0,3-0.3,6-1.2,8.9c-0.8,2.4-2,4.6-3.5,6.6c-0.5,0.6-0.4,0.8,0.3,1
					c0.5,0.1,1,0.3,1.3,0.6c2.3,1.9,5,3,7.6,4.1c2,0.9,4,1.5,6.2,1.6c1.2,0.1,2.3,0.1,3.4,0c3-0.2,6-0.5,8.5-2.3
					c1.9-1.4,3.4-3.1,4.2-5.3c1-2.8,0.7-5.6-0.2-8.4c-1.1-3.7-3.9-6-6.9-8c-0.9-0.6-1.9-0.9-2.6-1.7c-0.7-0.7-0.6-1.5,0.3-1.7
					c1.5-0.4,2.5-1.4,3.8-2.1c2.9-1.6,4.3-4.2,4.6-7.3c0.4-3.5-0.3-7-1.3-10.3c-0.8-2.4-1.7-4.8-3.2-6.9c-1.4-2.1-3.1-4-4.7-5.9
					c-1.4-1.7-3.3-2.7-5.4-3.3c-0.5-0.2-1-0.4-1.6-0.5c-1.7-0.3-3.3-0.9-5.2-0.7c-2.1,0.3-4.3,0.4-6.4,0c-2.2-0.4-4.2-1.1-5.9-2.7
					c-1-0.9-2-1.9-3-2.7c-4.3-3.7-9.2-6.4-14.4-8.6c-1.6-0.6-3.2-1-4.9-1.2c-4.3-0.5-8.6-0.1-12.8,0.5c-3.2,0.4-6,1.6-8.7,3.4
					c-2.4,1.5-4.4,3.5-6.6,5.2c-0.5,0.4-0.9,0.8-1.5,1.1c-2.3,1.3-4.8,1.6-7.4,1.7c-1.4,0-2.9,0-4.3,0c-2.9,0.1-5.6,1.1-8.2,2.3
					c-4.2,1.8-7.1,5-9.2,8.9c-0.2,0.3-0.3,0.7-0.4,1.1c-0.9,2.2-0.5,4.5-0.5,6.8c0,2.8,0.9,5.4,1.5,8.1c0.7,3.1,2.1,5.9,4.9,7.8
					c0.9,0.6,1.8,1.3,2.7,1.9c1.3,0.8,2.2,1.9,2.8,3.2c1.6,4,4.2,7.1,7.5,9.8c2,1.6,4.2,2.9,6.4,4.1c2.8,1.6,5.9,2.1,9.1,2
					c3-0.1,6-0.5,8.9-1.3c1.4-0.4,2.7-0.1,3.8,0.7c0.9,0.6,1.7,1.2,2.6,1.8c3.9,2.6,8.3,2.8,12.7,2.4c3.3-0.3,6.3-1.6,9-3.5
					c2.6-1.9,4.8-4.1,5.8-7.2c0.5-1.4,0.9-2.9,1.3-4.3c0.6-2,0.4-4.1,0.3-6.1c-0.1-2.3-0.9-4.4-2-6.4c-1.1-1.8-2.6-3-4.5-3.7
					c-0.6-0.2-1.2-0.3-1.7-0.5c-1.3-0.6-2.5-1.4-3.2-2.8c-0.6-1.3-0.9-2.7-1.1-4c-0.2-1.2-0.5-2.4-1.2-3.4c-2-2.8-4.6-4.8-8.2-5
					c-2.5-0.1-5-0.2-7.5-0.2c-2.6-0.1-5.1-0.1-7.5,0.9c-2.5,1-5.1,1.7-7.3,3.5c-1.8,1.5-3,3.3-2.5,5.9c0.8,4.1,2.5,7.7,6.4,9.8
					c1.3,0.7,2.7,1.3,4.1,1.8C138.8,617.5,141.3,616.9,143.9,616.2z"/>
				<path class="st4" d="M138.4,646.6c4.1,0.4,8.1,1.1,11.8,3c4.6,2.3,7.5,6.1,8.5,11.2c0.6,3,0.7,6.1,0.7,9.2
					c0,5.1-1.5,9.8-3.8,14.3c-1.1,2.3-2.9,4.1-4.7,5.8c-2.1,1.8-4.1,3.7-6.5,5.1c-2.7,1.5-5.6,2.3-8.7,2.6c-2.4,0.2-4.7-0.1-7-0.5
					c-1.8-0.3-3.7-0.5-5.5-0.8s-3.3,0.3-4.8,1.3c-3.6,2.4-7.1,4.9-10.9,6.8c-3,1.5-6.2,2.1-9.6,1.9c-2.8-0.2-5.5-0.6-8.2-1.2
					c-5.9-1.4-11.8-2.9-17.3-5.6c-2.1-1.1-4.4-1.9-6.4-3.2c-3.5-2.2-6.4-4.9-8.9-8.2c-0.5-0.7-0.9-1.4-1.3-2.2
					c-1.6-3.3-4.3-5.3-7.8-6.4c-2.3-0.7-4.6-1.4-6.7-2.5c-2.5-1.2-4.7-2.8-6.6-4.9c-1.5-1.6-2.8-3.4-4-5.2c-1.6-2.4-2.1-5.1-2.3-7.8
					c-0.3-3.1,0.4-6.2,1.7-9c1.4-2.9,3.4-5.4,5.8-7.6c2.4-2.2,5.4-3.1,8.7-3.4c1.2-0.1,2.5-0.3,3.7-0.5c1-0.1,1.6-0.6,2.1-1.5
					c1.1-1.9,2.1-4,3.3-5.9c2.4-3.5,5.2-6.4,8.8-8.6c2.2-1.4,4.4-2.5,6.9-3.2c3-0.7,5.9-1.3,9-0.9c4.7,0.5,9.3,1.4,13.6,3.5
					c3.2,1.5,6.1,3.4,8.8,5.7c0.8,0.7,1.4,1.5,2.1,2.4c1.5,1.8,3.2,3.2,5.3,4.3c2.3,1.2,4.3,2.8,6.1,4.8c2.9,3.3,5,7.1,6.5,11.2
					c1.2,3.4,1.4,6.8,0.5,10.3c-0.6,2.4-1.5,4.5-3.2,6.3c-1.6,1.6-3.4,2.6-5.5,3.2c-3.3,0.9-6.7,1.7-10.2,1.8
					c-1.7,0-3.5-0.2-5.2-0.6c-2.1-0.5-4.2-1-6.2-1.6c-4.1-1.3-7.7-3.4-10.5-6.9c-1.8-2.2-2.4-4.8-2.3-7.6c0-1.3,0.1-2.6,0.8-3.8
					c1.7-3.1,6-5.7,9.6-5.3c1.2,0.1,2.5,0.3,3.7,0.7c2.9,1,4.6,3.1,5.1,6.1c0.1,0.3,0,0.7,0.1,1c0.3,0.9,0.7,1.1,1.6,0.9
					c1.9-0.5,2.4-1.5,1.8-3.4c-0.5-1.4-1.5-2.5-2.4-3.6c-1.6-2-3.8-3.2-6.2-4c-2.1-0.7-4.1-1.5-6.3-1.7c-5.9-0.3-10.6,2.6-12.2,8.1
					c-1.3,4.2-0.7,8.5,2.2,12.1c3.5,4.4,7.9,7.6,13.2,9.5c2.2,0.8,4.4,1.6,6.7,2.2c1.6,0.4,3.2,0.5,4.9,0.5c1.9,0,3.9-0.1,5.8-0.1
					c3.9-0.1,7.6-1.3,11-3c3.2-1.6,5.5-4.2,7.3-7.3c1.1-1.8,2-3.7,2-5.9c0-2.4,0-4.9-0.8-7.3c-0.4-1.3,0.4-3.2,1.7-3.8
					c1.7-0.8,3.6-1.2,5.5-1.3C135.1,646.3,136.8,646.5,138.4,646.6z M128.8,693.1L128.8,693.1c1.4,0.2,2.8,0.3,4.2,0.4
					c1,0.1,2,0.3,3,0.2c3.5-0.4,6.6-1.6,9.3-3.8c1.1-0.9,2.1-2,3.2-3c1.6-1.5,3.1-3.1,4.2-5.1c1.9-3.4,2.8-7.1,3.3-10.8
					c0.5-3.2-0.1-6.5-0.6-9.7c-0.8-4.4-3.6-7.2-7.5-8.8c-3.8-1.5-7.8-2.3-11.8-2.5c-1.7-0.1-3.5-0.1-5.2,0.6
					c-1.2,0.5-1.3,0.5-0.9,1.7c0.6,2.1,0.6,4.3,0.7,6.5c0,0.6-0.1,1.2-0.2,1.8c-0.5,2-1.3,3.9-2.4,5.8c-2,3.3-4.6,5.9-7.9,7.9
					c-4.2,2.5-8.9,3.7-13.9,3.9c-2,0.1-4.1,0-6.1,0.1c-2.1,0.1-4.1-0.4-6-0.9c-2.2-0.5-4.2-1.4-6.3-2.3c-5.6-2.2-10.5-5.3-14.1-10.3
					c-1.4-2-2.6-4.1-2.9-6.6c-0.4-3,0.2-5.9,0.5-8.8c0-0.1,0.1-0.3,0.2-0.4c1.6-4.3,4.4-7.5,8.6-9.2c2.6-1.1,5.4-1.2,8.1-0.8
					c2.6,0.4,5.1,1.5,7.5,2.4c4.4,1.6,7.3,4.7,8.9,9c1.5,4.1-0.4,7-4.3,8c-1,0.3-2.3,0.4-3.1-0.5c-1-1-2.1-2.2-1.9-3.9
					c0-0.3-0.1-0.6-0.2-0.9c-0.7-1.8-1.9-2.9-3.8-3.5c-3.4-1-6.2-0.4-8.9,2.6c-0.9,0.9-1.3,2-1.3,3.3c-0.1,3.3,1.2,5.9,4,7.9
					c3.8,2.7,8.1,3.9,12.5,4.8c4.5,0.9,9,0.7,13.5-0.5c2.1-0.6,4-1.5,5.6-3.1c1.9-1.9,2.2-4.5,2.5-6.9c0.2-2-0.1-4.1-0.9-6
					c-1.5-3.5-3-7-5.7-9.8c-1.4-1.5-2.9-2.9-4.8-3.7c-1.7-0.8-3.4-1.7-4.7-3.1c-1.1-1.1-2-2.2-2.9-3.4c-1-1.2-2.1-2.1-3.3-3
					c-1.2-0.8-2.3-1.5-3.6-2.2c-1.5-0.9-3.1-1.5-4.8-2.1c-2-0.7-4-1.2-6.1-1.6c-2.1-0.4-4.1-0.8-6.2-0.6c-6.5,0.6-11.9,3.3-16.4,8.1
					c-2.2,2.4-3.8,5.1-5.3,8c-1.2,2.3-3,3.8-5.7,4.2c-1.3,0.2-2.7,0.3-4,0.6c-1.5,0.2-2.9,0.7-4.2,1.5c-3,1.8-5.3,4.4-6.9,7.5
					c-1.3,2.4-1.7,5.1-1.3,7.9c0.4,2.5,1.2,4.8,2.7,6.9c2.7,3.9,6.1,6.6,10.5,8.3c1.6,0.6,3.3,1.2,4.9,1.7c2.7,0.9,5,2.3,6.6,4.7
					c0.6,0.9,1.2,1.8,1.8,2.8c0.5,0.8,0.9,1.6,1.4,2.3c2.5,3.4,5.8,6,9.6,7.8c4.5,2.2,9.1,4.3,14,5.6s9.9,2.5,15,2.9
					c2.5,0.2,4.9-0.2,7.1-1.3c4-1.9,7.7-4.4,11.3-7c2.1-1.4,4.1-2.3,6.7-2C125.4,692.8,127.1,692.9,128.8,693.1z"/>
				<path class="st4" d="M200.8,518.4c0.4-4,1.4-7.1,2.8-10.1c1.1-2.3,2.9-4.1,4.7-5.8c2-1.9,4.3-3.3,6.8-4.4c1.3-0.6,2.7-1,4.1-1.3
					c2.4-0.6,4.3-2,6.4-3.2c2.4-1.4,4.1-3.5,6-5.4c1.8-1.8,3.8-3.3,6.1-4.3c2.8-1.1,5.5-2.4,8.5-2.8c2.9-0.4,5.7-0.1,8.6,0.5
					c2,0.4,3.9,0.8,5.8,1.6c4,1.7,7.8,3.9,10.9,7c1.6,1.6,2.7,3.6,4,5.4c1,1.4,2,2.8,3.4,4c0.5,0.4,1.1,0.7,1.8,0.7
					c1.1,0.1,2.3,0.2,3.4,0.3c4.5,0.6,8.3,2.4,11.5,5.6c3,2.9,4.4,6.5,4.7,10.7c0.1,2.2-0.3,4.3-0.9,6.3c-0.5,2-1,4.1-1.7,6
					c-0.9,2.6-2.1,4.9-4,7c-2,2.1-4.4,3.6-6.8,5.1c-0.7,0.5-1.4,0.9-2.1,1.4c-1.3,0.9-2.9,1-4.4,1.5c-2.1,0.7-4.1,1.6-6.3,1.7
					c-2.3,0.1-4.7,0.2-6.9-0.8c-1.4-0.7-1.5-1.2-0.4-2.3c1.9-2.1,3.1-4.5,3.5-7.3c0.3-1.9,0.2-3.6,0-5.5c-0.3-1.7-0.6-3.4-0.6-5
					c0-1.5,0.1-3,1.4-4.1c2.3-1.9,2.7-4.5,2.8-7.3c0.1-2.6-1.5-4.2-2.7-6.1c-1.3-2-3.2-3.3-5.4-4.2c-2.9-1.3-5.8-2.7-8.7-4
					c-4.4-2-9-2.4-13.8-1.4c-2.1,0.4-4.3,0.5-6.2,1.5c-2,1-4,2-5.5,3.7c-0.5,0.6-1.2,1-1.7,1.7c-0.6,0.7-1,1.5-1.3,2.3
					c-1.3,3.8-1.1,7.6,0.9,11.1c1.4,2.3,3.3,3.8,6.1,4.4c2.3,0.5,4.4,0.5,6.7,0.3s3.6-1.6,4.2-3.7c0.2-0.8,0.4-1.5,0.6-2.3
					c0.2-1.4-0.4-2.5-1.4-3.3c-1.3-1-2.8-1.4-4.5-1.1c-1.7,0.3-2.3,1.9-1.3,3.3c0.5,0.7,1.4,1.5,0.9,2.4c-0.6,1.1-1.8,1.7-3,1.8
					c-2.1,0.1-4-0.3-5.2-2.3c-1.1-1.7-1.1-3.6-0.7-5.5c0.5-2.2,1.7-3.8,3.4-5.3c2.1-1.8,4.5-3,6.8-4.4c1.3-0.7,2.7-1,4.2-1.2
					c2.5-0.4,5-0.6,7.6-0.3c4.1,0.4,7.5,2.3,10.6,4.9c1.5,1.3,2.2,3.1,2,5.1c-0.1,1.5-0.4,2.9-1.3,4.3c-1,1.5-0.3,3.1,0,4.6
					c0.2,1,0.6,2,0.8,3c0.8,4,0.2,7.9-1.9,11.4c-1.1,1.8-2.2,3.5-3.8,5c-0.8,0.8-1.7,1.3-2.5,1.8c-4.2,2.5-8.8,3.9-13.8,3.9
					c-2.1,0-4.1-0.1-6.1-0.6c-2.3-0.6-4.2-1.8-5.9-3.4c-1.6-1.5-3.5-2.2-5.6-2.6c-2.5-0.5-5.1-0.7-7.6-1.1c-4-0.6-8-1.7-11.3-4.2
					c-3.1-2.4-5.7-5.2-6.4-9.3C200.7,522,200.4,519.9,200.8,518.4z M263.9,510.4L263.9,510.4c-0.4-1.5-1.6-2.5-2.6-3.5
					c-2.3-2.1-5.1-3-8.2-3.3c-1.1-0.3-2.1-0.8-3.2-0.8c-2.7,0-5.4,0.2-7.8,1.7c-0.7,0.4-1.4,0.7-2.1,1.1c-1.6,0.8-3.1,1.9-4.4,3.1
					c-1.5,1.4-1.6,3.4-1.7,5.3c-0.1,1.4,0.7,2.5,1.9,3.1c1.2,0.5,1.5,0.3,1.3-0.9c-0.2-1.6,0.3-2.9,1.6-4c2-1.7,4.2-2,6.6-1.4
					c1.5,0.4,2.7,1.2,3.4,2.7c0.7,1.4,0.9,2.9,0.8,4.4c0,1.4-0.5,2.5-1.4,3.5c-2.1,2.4-4.8,3.7-7.9,4.2c-1.1,0.2-2.2,0-3.3,0
					c-2.6,0.1-5-0.7-6.9-2.4c-3.8-3.3-5.3-7.7-5.1-12.6c0.1-3.3,1.7-5.9,3.9-8.2c1.6-1.6,3.4-3,5.5-3.8c2.7-1,5.5-1.8,8.3-2.8
					c4.9-1.7,9.7-1.4,14.6,0.2c4.2,1.3,8,3.5,11.7,5.8c3.9,2.4,6.4,5.8,7.1,10.4c0.3,2.2,0.4,4.4-0.4,6.5c-0.5,1.4-1.3,2.6-2.2,3.7
					c-0.9,1.2-1.5,2.5-1.3,4.1c0.6,3.3,0.7,6.6,0.3,10c-0.2,1.8-0.7,3.5-1.8,5c-0.4,0.6-0.9,1.2-1.1,2c1.8,0.3,3.5,0.1,5.2-0.1
					c3.3-0.5,6.6-1.1,9.5-3c3.1-1.9,5.9-4.1,8.3-6.9c1.4-1.6,2.3-3.3,3-5.3c0.8-2.2,1-4.5,1.5-6.7c0.3-1.4,0.1-2.8,0.1-4.2
					c-0.1-1.4-0.3-2.9-0.8-4.3c-1.5-4.3-4.8-6.7-8.8-8.3c-2.3-0.9-4.7-1.2-7.2-1.4c-1.7-0.1-3.2-1-4.3-2.2c-1.7-1.9-3.3-3.9-4.6-6.1
					c-2.5-4.4-6.1-7.4-10.7-9.4c-4.3-1.8-8.8-1.9-13.4-1.7c-0.6,0-1.3-0.2-1.9,0.2c-1.5,0-3,0-4.4,0.4c-2.4,0.8-4.5,2-6.5,3.5
					c-2.2,1.7-3.9,3.9-6.1,5.6c-0.1,0.1-0.2,0.4-0.2,0.5c-0.2,0.1-0.4,0.2-0.5,0.3c-2.2,2.3-5.1,3.3-8,4.1c-4.1,1.1-7.8,2.8-10.7,6
					c-1.2,1.4-2.7,2.6-3.3,4.4c-0.8,1.9-1.5,3.9-2,5.9c-0.6,2.7-0.9,5.5,0.2,8.3c0.5,1.2,1.3,2.1,1.8,3.3c0.9,1.9,2.1,3.4,3.8,4.7
					c2.4,1.9,5.2,3.1,8.1,3.4c2.5,0.3,5,0.5,7.5,0.7c1.4,0.1,2.6,0.5,3.9,0.9c2.4,0.7,4.4,2.1,6.3,3.7c1.9,1.5,3.9,2.7,6.4,2.9
					c2.2,0.2,4.2-0.3,6.2-0.7c2.8-0.5,5.4-1.7,8-3c2.2-1.1,4.5-2.2,5.9-4.4c1-1.5,1.7-2.9,1.9-4.6c0.4-2.6,0-5.1-0.7-7.6
					c-0.5-2.1-0.8-4.2-0.4-6.4c0.7-0.9,1.2-1.9,1.6-3C264.4,512.4,264.9,511.3,263.9,510.4z"/>
				<path class="st4" d="M306.9,538c3,0.2,5.4,0.9,7.9,1.6c0.6,0.2,1.1,0.5,1.6,0.8c0.6,0.4,1.2,0.8,1.9,0.9c0.6,0.1,1,0.5,1.4,0.8
					c3.9,2.9,6.7,6.5,8.5,11c0.7,1.7,1.3,3.5,2.2,5.1c1.3,2.3,3,4.1,5.7,4.8c2.2,0.5,4.4,1.2,6.6,1.9c2.4,0.7,4.2,2.2,5.9,4
					c2.3,2.4,4,5.2,5.3,8.3c0.9,2.2,1.3,4.5,1.1,6.9c-0.1,0.8,0.2,1.6,0.1,2.4c-0.5,3-1.1,5.9-2.6,8.6c-0.9,1.7-2,3.4-3.3,4.8
					c-1.9,2.1-4.3,3-7,3.1c-1.4,0-2.8,0.1-4.2,0.2c-1.4,0.1-2.5,0.8-3.4,1.9c-0.9,1.2-1.7,2.4-2.8,3.5c-2.8,3-6.2,4.7-10.1,5.5
					c-2.1,0.4-4.1,0.4-6.3,0.4c-4.3-0.1-8.3-1.4-12.3-2.7c-2.4-0.8-4.8-1.4-7.2-2.1c-2.5-0.8-4.9-1.7-7.3-2.6
					c-0.8-0.3-1.7-0.4-2.5-0.4c-2.7,0.2-5.4,0.1-8.1-0.3c-4.3-0.7-8.4-1.8-12.1-4.2c-1.6-1-3.1-2.1-4.4-3.4c-1-1.1-1.8-2.3-2.3-3.6
					c-0.9-2.1-1.7-4.3-2.2-6.5c-0.8-3.2-1.4-6.4-1.9-9.7c-0.3-1.9-1.2-3.5-2.4-5c-1.6-2-3.1-4.2-4.6-6.3c-0.9-1.3-1.2-2.9-1.4-4.4
					c-0.2-1.3-0.3-2.6-0.2-3.9c0.1-2.4,0.7-4.7,2.1-6.8c0.8-1.2,1.7-2.2,2.5-3.4c0.4-0.5,0.8-0.8,1.5-0.8c2.4,0,4.3-1.1,6.2-2.4
					c0.6-0.4,0.8-1,1.2-1.6c0.3-0.4,0.6-0.7,1.1-0.6c0.5,0.1,0.7,0.6,0.6,1c-0.1,0.8,0.3,1.4,0.9,1.9c1,0.8,2.1,1.5,3.3,2.1
					c0.6,0.3,1.3,0.5,2,0.4c1.8-0.1,3.6-0.2,5.4-0.3c0.3,0,0.6-0.1,0.8,0.1c0.3,0.3,0,0.6-0.1,0.9c-0.6,1.4-1.5,2.7-2.5,3.9
					c-1.3,1.7-2.2,3.6-1.9,5.8c0.1,0.6,0,1.2-0.1,1.8c-0.2,1.7-0.2,3.4,0.1,5.1c0.3,1.7,0.7,3.3,1,5c0.6,2.9,2.2,5.2,4.1,7.2
					c1.6,1.6,3.3,3.1,5.1,4.6c1.8,1.5,3.9,2.5,6.1,3.2c2.5,0.8,5,1.8,7.6,2.2c2.7,0.4,5.3-0.2,7.9-0.7c1.6-0.3,3.3-0.5,4.9-0.9
					c4.7-1,8.1-3.6,9.4-8.3c0.8-2.7,0.3-5.3-1.3-7.7c-0.9-1.3-1.9-2.6-2.6-4c-0.6-1.3-1.6-2.1-2.9-2.7c-2.6-1.2-5.2-1.7-8-0.7
					c-0.8,0.3-1.7,0.3-2.5,0.4c-0.9,0.1-1.8,0.3-2.6,0.8c-1.4,0.7-1.9,2-1.4,3.5c0.4,1.3,1.1,2.4,2.1,3.2c0.2,0.1,0.3,0.2,0.5,0.3
					c0.9,0.5,2.1,0.3,3-0.3c0.6-0.4,0.5-0.9,0.3-1.5c-0.4-1-0.7-2.1-2-2c-0.5,0-0.8-0.1-0.9-0.5s0.1-0.7,0.4-1.1
					c2.2-2.4,5.9-2.4,8.3-1.2c1.8,0.9,3.6,2,4.9,3.7c0.4,0.6,0.8,1.2,0.9,1.9c0.3,2,0.4,4-0.2,5.9c-0.3,1-0.3,2.2-0.8,3.2
					c-1.2,2.7-3.2,4.3-6,5c-2.5,0.7-5,1-7.5,1.3c-1.1,0.1-2.2,0-3.3-0.3c-2-0.4-4-0.8-5.9-1.5c-3.9-1.5-7.7-3.1-10.3-6.7
					c-2.6-3.5-4.3-7.4-4.3-11.9c0-1.6,0.1-3.2,0.2-4.8c0.3-4.1,2-7.7,4.4-11c0.1-0.1,0.2-0.1,0.2-0.2c0.8-2,2.5-2.7,4.4-3.3
					c4.2-1.4,7.9-3.6,11.4-6.2c1-0.7,2.1-1.4,3.1-2s2.3-0.6,3.4-0.6c0.3,0,0.6,0,0.9,0c0.8-0.1,1.6-0.3,2.4-0.3
					C305.2,537.7,306.2,537.9,306.9,538z M301.1,567c-0.1,0.5,0.3,0.7,0.5,1c0.5,0.7,1,1.5,1,2.5c0.1,0.8,0.1,1.6-0.5,2.3
					c-1.1,1.3-3.9,2-5.3,1.3c-2.7-1.3-3.8-3.5-4.2-6.3c-0.3-1.9,0.5-3.3,2.1-4.3c1-0.6,2.1-1.2,3.3-1.3c1.1-0.1,2.2-0.4,3.2-0.7
					c2.6-0.8,5.2-0.5,7.8,0.6c2.3,1,4.1,2.3,5,4.7c0.3,0.8,0.9,1.5,1.4,2.1c2.4,3.2,3.5,6.7,2.4,10.7c-1.3,4.8-4.4,7.7-9,9.2
					c-2.5,0.8-5.1,1.1-7.6,1.6c-2.7,0.5-5.4,0.9-8.2,0.4c-2.7-0.5-5.2-1.4-7.7-2.2c-2.4-0.8-4.6-1.9-6.6-3.5c-1.8-1.5-3.4-3-5.1-4.7
					c-2.1-2.1-3.7-4.5-4.4-7.3c-1-3.9-1.9-7.8-1.3-11.8c0.1-0.4,0.1-0.8,0-1.2c-0.2-2.5,0.5-4.7,2-6.7c0.4-0.6,1-1,1.2-1.7
					c-0.3-0.2-0.5-0.1-0.7-0.1c-1.1,0-2.3,0.3-3.4,0c-2-0.6-3.9-1.4-5.3-3.2c-0.7-0.9-1.7-0.9-2.5,0c-1.2,1.3-2.7,2.2-4.5,2.6
					c-0.6,0.1-1.2,0.2-1.8,0.3c-0.4,0.1-0.9,0.2-1.2,0.6c-1.3,1.9-2.7,3.9-2.9,6.3c-0.1,1.2,0,2.3,0,3.4c0.1,1.8,0.3,3.6,1.4,5.1
					c1.3,1.9,2.6,3.8,4.1,5.6c1.8,2.1,2.8,4.6,3.2,7.3c0.4,2.8,0.9,5.5,1.6,8.2c0.6,2.5,1.3,4.9,2.6,7.1c0.5,0.9,0.9,1.8,1.7,2.5
					c2.6,2.4,5.5,4.2,8.8,5.3c1.3,0.4,2.6,0.7,3.9,1c2.9,0.7,5.8,0.9,8.8,1c1.7,0.1,3.4,0.1,5,0.6c1.3,0.4,2.6,0.9,4,1.4
					c4.2,1.4,8.5,2.5,12.7,3.9c2.5,0.9,5.2,1.5,7.9,1.8c1,0.1,1.9-0.1,2.8-0.1c2.1,0,4.2-0.2,6.2-0.8c3.7-1.1,6.7-3.4,8.7-6.7
					c1.5-2.4,3.6-3.9,6.5-4c1.3-0.1,2.6-0.1,3.9-0.1c2.3-0.1,4.2-0.8,5.6-2.7c2-2.6,3.4-5.5,4.3-8.7c0.8-3.2,0.9-6.4,0.1-9.5
					c-0.9-3.6-2.8-6.8-5.5-9.5c-1.3-1.4-2.8-2.6-4.6-3.2c-1.9-0.6-3.7-1.3-5.7-1.8c-2.7-0.6-5.1-1.7-6.7-4.1
					c-0.5-0.7-0.9-1.4-1.3-2.2c-1.2-1.9-1.9-4-2.8-6c-1.1-2.5-2.7-4.6-4.6-6.6c-2-2.1-4.3-3.8-7.1-4.7c-2.9-1-5.8-1.8-8.9-1.9
					c-2.8-0.1-5.3,0.8-7.9,1.4c-0.2,0.1-0.4,0.3-0.6,0.4c-1.9,1.2-3.7,2.5-5.6,3.7c-2.7,1.7-5.6,2.9-8.5,4c-0.7,0.3-1.4,0.5-2,1.1
					c-2.4,2.5-3.9,5.6-4.5,9c-0.4,1.9-0.5,3.9-0.6,5.8c-0.1,1.4-0.1,2.8,0.3,4.2c0.7,3,2.1,5.6,4,8c1,1.3,2.3,2.4,3.8,3.1
					c2.5,1.2,4.8,2.6,7.6,3.2c2.9,0.6,5.7,1.4,8.7,0.7c1.5-0.3,3.1-0.4,4.6-0.8c2.5-0.6,4.3-2.1,5.1-4.6c0.6-1.8,0.7-3.6,0.9-5.5
					c0.1-1.3-0.2-2.4-1.1-3.4c-1.2-1.3-2.7-2.2-4.3-2.9C303.9,566.4,302.4,566.3,301.1,567z"/>
				<path class="st4" d="M175.8,659.7c-3.1-0.3-6.2,0.2-9.1,1.2c-0.6,0.2-1.1,0.4-1.7,0.5c-1.6,0.4-2.4-0.1-3-1.6
					c-0.5-1.3-0.9-2.6-1.3-3.8c-0.4-1.1-1-2.2-1.8-3.1c-1.7-2.1-1.3-3,1.1-4.2c2-1,4.2-1.2,6.3-1.8c1.3-0.4,2.6-0.8,3.8-1.4
					c0.5-0.3,1-0.5,1.6-0.1c2.3,1.5,4.9,2.3,7.2,3.6c3.3,1.8,6.6,3.6,10,5.1c2,0.8,4,1.7,6.3,2c2.6,0.3,5.1,0,7.6-0.6
					c2.4-0.5,4.7-1.2,7-2.2c0.2-0.1,0.5-0.1,0.7-0.3c1.1-1.2,2.6-1.2,3.9-1.5c0.5-0.1,0.9-0.1,1.3,0c2.8,0.6,5.7,0.9,8.3,2.4
					c1.4,0.8,2.7,1.7,3.8,2.9c2.2,2.4,4.2,4.8,5.3,7.9c1.1,2.8,0.8,5.6,0.2,8.4c-0.8,3.4-2.6,6.2-4.8,8.9c-1,1.2-1.9,2.4-3.1,3.5
					c-1.7,1.4-3.6,2.3-5.7,3c-2.8,1-5.7,1.4-8.7,0.9c-0.4-0.1-0.8-0.1-1.2-0.2c-1.1-0.3-1.2-0.2-1.4,0.8c-0.7,3.6-2.4,6.7-4.8,9.3
					c-2.3,2.5-5.1,4.3-8.2,5.7c-3.7,1.8-7.7,2.5-11.7,2.8c-2.3,0.2-4.7,0.2-7-0.1c-5.4-0.8-10.6-2.4-15.1-5.7
					c-1.1-0.8-2.3-1.4-3.4-2.3c-2.2-1.8-2.8-3.9-1.6-6.5c0.7-1.5,1.5-3,2.4-4.3c1.7-2.5,2.5-5.4,3.2-8.3c0.6-2.7,1.1-5.4,1.5-8.1
					c0.2-1.4,0.5-2.8,0.7-4.1c0.1-0.9,0.5-1.7,1.2-2.4c2.6-2.5,5.6-4,9.1-4.5c1.4-0.2,2.7,0.2,4,0.6c1.7,0.5,3.3,1.2,4.8,2
					c0.7,0.4,1.4,0.8,1.9,1.5c1.3,1.8,2.9,3.3,4,5.2c1.7,3.2,2.1,6.5,0.4,9.9c-1.1,2.1-4,3.3-6.5,2.5c-0.8-0.2-1.2-0.8-1.3-1.7
					c0-0.1,0-0.3,0-0.4c0.1-1.7-0.1-2-1-2.3c-1.2-0.3-2.7,0.2-3.3,1.2c-0.8,1.4-0.4,2.7,0.3,4c0.9,1.5,2.1,2.4,3.9,2.8
					c3.9,0.9,7.1-0.2,9.9-2.7c1.4-1.2,2.1-3,2.4-4.7c1-5.2-0.7-9.7-4.2-13.5c-0.3-0.3-0.7-0.6-1.1-0.8c-3.1-2-6.1-4-9.8-4.6
					C177.9,660.1,176.9,659.8,175.8,659.7z M161.4,651.1c0.4,0.6,0.7,1.1,1,1.7c0.8,1.3,1.3,2.8,1.8,4.3c0.4,1.3,0.5,1.3,1.8,0.9
					c4-1.3,8-1.8,12.1-1.1c2.5,0.4,4.9,1.1,7.1,2.2c1.5,0.8,3,1.7,4.4,2.6c1.8,1.2,3.4,2.7,4.6,4.7c0.6,1,1.1,1.9,1.5,2.9
					c1.6,3.9,2.4,7.7,0.8,11.9c-1.2,3-3.1,5.2-5.8,6.7c-3,1.7-6.3,1.9-9.6,1.3c-3.3-0.7-5.3-2.9-6.1-6.1c-0.2-0.8-0.4-1.7-0.2-2.5
					c0.5-2.5,2.3-4.1,4.9-4.4c1.4-0.1,2.7,0.1,3.8,1c0.9,0.8,1.3,1.7,1,2.9c-0.1,0.6,0.3,0.8,0.8,0.7c1.7-0.1,3.4-1.9,3.3-3.9
					c-0.1-2.2-0.5-4.2-2-6c-0.7-0.9-1.5-1.8-2.2-2.6c-2.1-2.6-5-3.6-8-4.3c-3.1-0.7-5.7,0.8-8,2.8c-0.4,0.3-0.9,0.7-0.9,1.3
					c-0.1,1.3-0.7,2.5-0.7,3.8c0,0.9-0.1,1.9-0.3,2.8c-0.5,2.3-1.1,4.7-1.6,7c-0.6,2.9-1.6,5.6-3.2,8c-0.8,1.2-1.5,2.5-2.2,3.8
					c-1,1.8-0.7,2.7,1,3.9c1.5,1.1,3,2.1,4.6,3.1c3.1,1.8,6.4,3,9.9,3.7c4.7,0.8,9.3,0.8,14-0.4c4.9-1.2,9.2-3.6,12.7-7.3
					c2.3-2.4,3.6-5.4,4.2-8.6c0.4-2.3,2-3.4,4.2-2.7c0.4,0.1,0.8,0.2,1.2,0.3c3.4,0.6,6.7-0.2,9.8-1.4c1.4-0.6,2.6-1.4,3.5-2.5
					c2.6-3.3,5.2-6.5,5.9-10.9c0.3-1.8,0.2-3.4-0.3-5.1c-0.5-1.8-1.6-3.3-2.7-4.8c-1.3-1.9-3-3.4-4.9-4.5c-2-1.2-4.1-1.8-6.4-1.9
					c-0.8,0-1.6,0-2.3-0.5c-0.5-0.4-0.9-0.2-1.3,0.1c-1,1-2.3,1.6-3.6,2.1c-1.4,0.5-2.8,1-4.3,1.5c-3.2,0.9-6.4,1.5-9.8,1.1
					c-2.9-0.3-5.6-1.3-8.3-2.5c-5-2.2-9.6-5-14.3-7.6c-0.6-0.3-1.2-0.7-2-0.3c-2.3,1-4.7,1.5-7.1,2
					C162.6,650.5,162,650.6,161.4,651.1z"/>
				<path class="st4" d="M356.2,571.7c2.3-1.2,4.8-1.4,7.3-1.7c2.8-0.4,5.2-1.6,7.3-3.2c1.8-1.4,3.6-2.9,5.4-4.4
					c2.2-1.9,4.9-2.5,7.7-2.5c3,0,6.1,0.4,9,1.4c1.2,0.4,2.3,1,3.2,1.8c2.6,2.3,4.7,4.9,6,8.1c1,2.3,1.5,4.8,1.4,7.3
					c-0.2,3.1-0.7,6-2.3,8.7c-1.3,2.2-3,3.8-5.1,5.2c-0.2,0.2-0.5,0.3-0.8,0.4c-2.5,1.4-3.7,3.6-3.4,6.4c0.1,1.1-0.2,2.2-0.4,3.2
					c-0.4,2.1-1.1,4.1-1.8,6c-1.4,3.6-3.7,6.4-7.3,8.2c-1.5,0.7-3.2,0.9-4.8,1.1c-2.6,0.3-5.1,0-7.5-1c-1.6-0.7-3.1-1.6-4.2-3
					c-1.5-1.9-2.8-3.9-4.2-5.8c-1.9-2.6-4.2-4.7-7.3-5.8c-1.1-0.4-1.2-0.5-0.4-1.5c2.2-3.2,3.6-6.8,4.6-10.5
					c0.6-2.2,0.8-4.5,1.1-6.8c0.7-4.3-0.4-8-3.1-11.3C356.2,572,356.2,571.9,356.2,571.7z M374.5,615.8c1.7,0.3,3.4,0,5.2-0.3
					c2.3-0.4,4.1-1.6,5.5-3.3c3.3-3.9,4.5-8.5,4.9-13.4c0.1-0.9,0.2-1.8,0.3-2.6c0.3-2.2,1.5-3.8,3.4-4.6c2.9-1.3,4.7-3.4,6.2-6
					c1.1-2,1.3-4.2,1.6-6.3c0.2-1.6-0.2-3.4-0.6-5c-1-4.2-5.5-10.6-10.5-11.4c-1.3-0.2-2.6-0.5-3.8-0.6c-1.2-0.1-2.4-0.2-3.6-0.2
					c-2.4,0.1-4.8,0.8-6.5,2.6c-1.5,1.5-3.1,2.6-4.7,3.9c-3.3,2.5-7.1,3.6-11.1,4c-1.2,0.1-1.3,0.2-0.7,1.4c1.5,3,2.2,6.2,1.7,9.6
					c-0.3,2.5-0.5,5.1-1.2,7.5c-0.8,3.2-2.1,6.2-3.7,9.2c-0.6,1.1-0.6,1.1,0.5,1.8c3.1,1.8,5.3,4.5,7.3,7.4c0.8,1.2,1.6,2.3,2.5,3.3
					C369.2,614.6,371.6,615.6,374.5,615.8z"/>
				<path class="st4" d="M-161.3,481.8c0.2-0.4,0.4-0.8,0.6-1.2c1.7-3.8,4.6-6,8.7-6.6c1.7-0.3,3.4-0.7,5.1-1.2
					c0.4-0.1,0.8-0.3,1.2-0.6c1.4-1.1,2.9-2.2,4-3.6c2.2-2.9,5.4-4,8.7-3.8c3.8,0.2,7.6,1.5,10.3,4.6c1.8,2.1,3.8,3.6,6.4,4.1
					c3.1,0.6,5.2,2.7,7.2,4.8c4,4.2,5.5,9.5,5.9,15.2c0.1,2.4-0.1,4.7-0.5,7c-0.5,2.7-1.5,5.2-3,7.4c-1.3,2-2.9,3.7-4.7,5.2
					c-3,2.4-6.5,3.8-10.3,4c-1.5,0.1-3-0.2-4.5-0.5c-2.2-0.5-4.4-1.2-6.8-0.8c-1.4,0.2-2.6,0.7-3.8,1.2c-1.1,0.4-2.1,1-3.1,1.4
					c-2.4,1.2-5.1,1.3-7.7,1.6c-1.6,0.1-3.1-0.7-4.5-1.5c-3.1-1.7-5.9-4-7.5-7.3c-1.3-2.7-3.4-4.3-6.3-5.1c-2.6-0.7-4.4-2.5-5.8-4.7
					c-2.1-3.4-2.6-7.1-1.9-10.8c0.6-3.6,2.5-6.4,6-7.9c1.5-0.7,2.9-0.4,4.2,0.6c0.2,0.2,0.5,0.3,0.7,0.5c0.4,1.5,0.6,3.1,0.5,4.7
					c-0.1,2.8,1.3,5,3.5,6.7c2,1.6,4.4,2.4,6.9,2.6c1.8,0.2,3.2,1,4.6,2c1.6,1.2,2.9,2.8,4.4,4c2.3,1.9,4.8,3.2,7.9,2.9
					c0.9-0.1,1.8-0.2,2.7-0.4c2.6-0.5,5.1-1.4,6.9-3.4c2.1-2.2,3.9-4.6,4.6-7.8c1.1-5.1,0.5-9.6-3.1-13.6c-1.4-1.5-3-3-5.1-3.6
					c-1.4-0.4-2.9-0.8-4.4-0.8c-1.9,0-3.8,0.1-5.6,0.8s-2.7,2-2.7,3.4c0,0.6,0.1,1.1,0.8,1.3c0.7,0.1,1.3,0.2,1.6-0.7
					c0.5-1.1,1.4-1.8,2.5-2.2c1.3-0.5,2.6-0.8,3.9-1c3.2-0.5,7.4,1.7,8.7,4.7c0.7,1.7,1.3,3.4,1.5,5.3c0.1,0.8,0,1.7,0.1,2.5
					c0.3,3.8-1,7.1-3.9,9.6c-2.3,2-4.9,3.3-8.1,3.6c-2.1,0.2-4-0.1-5.9-1s-3.2-2.4-4.5-3.9c-1-1.1-2.2-2-3.5-2.7
					c-1.7-0.8-3.5-1.2-5.3-1.3c-1.5-0.1-2.9-0.7-4.1-1.7c-2.1-1.7-3.2-3.9-3.6-6.5C-161.9,485.7-161.4,483.8-161.3,481.8z
					 M-106.1,498.2c0.1-1.6,0.2-2.8,0.1-4.1c-0.1-4.3-1.1-8.4-3.5-11.9c-1.8-2.7-3.9-5.3-7.3-6.1c-0.2-0.1-0.5-0.1-0.7-0.2
					c-2.2-0.7-4.3-1.5-5.8-3.5c-0.5-0.7-1.2-1.3-1.9-1.9c-1.7-1.4-3.8-2.2-5.9-2.7c-3.6-0.9-6.7-0.3-9.2,2.6
					c-1.2,1.4-2.6,2.7-4.1,3.7c-2.3,1.5-4.9,2.1-7.6,2.6c-3.6,0.6-5.7,2.9-6.9,6.1c-0.9,2.2-0.5,4.4,0.2,6.5
					c0.9,2.5,2.6,4.3,5.6,4.5c1.2,0.1,2.5,0.1,3.7,0.5c2.8,0.9,5.1,2.4,6.9,4.7c1.3,1.7,3,2.9,5.1,3.3c4,0.7,7.4-0.7,10.2-3.4
					c1.4-1.3,2.2-3,2.3-4.9c0.1-2.4,0-4.7-0.6-7c-0.7-2.4-2.1-4.2-4.5-4.9s-4.7-0.9-6.6,1.2c-0.5,0.5-1.1,0.9-1.6,1.3
					c-0.5,0.4-1,0.5-1.7,0.5c-2.9-0.2-3.7-3-2.7-4.9c1.3-2.4,3.5-3.4,6-3.8c1.9-0.3,3.9-0.3,5.8,0c1.6,0.2,3.3,0.5,4.6,1.5
					c1.6,1.2,3.1,2.4,4.3,3.9c2.8,3.5,3.4,7.6,3,11.9c-0.3,3-1.6,5.7-3.4,8.2c-3.3,4.6-8,6.3-13.4,6.5c-3,0.1-5.8-1-8.1-3
					c-1.1-0.9-2.1-2-3.1-3c-1.8-1.8-3.8-3.2-6.5-3.3c-1.9-0.1-3.6-0.9-5.2-1.9c-3-1.9-4.4-4.7-4.9-8.2c-0.2-1.1,0.2-2.3-0.2-3.4
					c-0.4-1.2-0.8-1.5-2-1.1c-2.2,0.8-3.7,2.3-4.7,4.3c-0.5,1-0.8,2.2-0.8,3.3c-0.1,1.4,0.1,2.8,0.4,4.1c0.9,3.3,2.6,6,6,7.2
					c0.9,0.3,1.8,0.7,2.6,1.1c2.3,1.2,3.8,3,4.9,5.3c1.6,3.1,4.1,5.2,7.3,6.6c2.5,1.1,5,1.1,7.6,0.1c1.7-0.7,3.4-1.6,5.2-2.3
					c2.4-1,4.8-1.6,7.4-1.3c2.6,0.3,5.1,1,7.7,1.1c0.9,0,1.7,0.1,2.5-0.2c3.2-0.8,5.9-2.3,8.2-4.6
					C-108.3,506.2-106.4,502.5-106.1,498.2z"/>
				<path class="st4" d="M198,454.4c1.9-1,2.5-2.4,1.3-3.9c-1.8-2.2-4.1-3.7-7.2-3.7c-1.2,0-2.3,0.1-3.4,0.4c-2,0.5-3.7,1.5-4.8,3.4
					c-1.6,2.7-2.8,5.6-2.9,8.9c0,2.1,0.3,4.3,0.6,6.4c0.1,0.7,0.1,1.3,0,1.9c-0.2,1.5-0.8,2.1-2.2,2.4c-2.1,0.4-4.1-0.1-5.9-1.1
					c-5.7-3.3-8.5-8.4-8.6-14.9c-0.1-4.9,1.3-9.4,3.8-13.4c1.4-2.2,3.1-4,5.3-5.4c1-0.6,1.9-1.5,2.9-2.1c2.3-1.4,4.8-2.1,7.4-2
					c1.3,0,2.5,0.6,3.6,1.2c0.9,0.5,1.7,1.1,2.6,1.5c2.3,1,4.6,1.4,7,0.4c1.3-0.5,2.6-0.9,4.1-0.9c2.6,0.1,4.3,1.7,6,3.4
					c3.5,3.5,4.5,7.9,4.6,12.6c0.1,2.1-0.1,4.1-0.4,6.1c-0.6,5.1-2.8,9.4-6.9,12.7c-3.8,3.1-8,3.8-12.8,2.2c-5-1.7-7.7-6.9-7.3-11.5
					c0.2-1.7,0.2-3.4,1.1-4.9c0.9-1.5,1.9-2.8,3.5-3.6c2.3-1.2,4.8-0.8,6.5,1.1C196.9,452.4,197.6,453.3,198,454.4z M209.4,453.5
					c0.3-2.6,0-5.3-0.4-7.9c-0.3-1.8-0.6-3.5-1.7-5.1c-1.4-1.9-2.9-3.6-5.5-3.8c-1.1-0.1-2.2,0.3-3.2,0.7c-1.5,0.6-3.1,0.9-4.7,0.6
					c-2.1-0.4-4-1.2-5.8-2.4c-2.3-1.6-4.7-1.7-7.1-0.7c-3.3,1.4-6.2,3.4-8.5,6.2c-2.9,3.4-4.1,7.4-4.7,11.7
					c-0.5,3.3,0.2,6.4,1.8,9.4c1.6,2.9,3.9,4.5,6.9,5.2c1.7,0.4,2.5-0.3,2.3-2c0-0.2-0.1-0.4-0.1-0.6c-0.4-3.2-0.7-6.3,0-9.5
					c0.5-2.2,1.4-4.2,2.4-6.1c0.9-1.7,2.1-3,3.8-3.9c2.6-1.4,5.4-1.8,8.1-1.2c3.3,0.6,6,2.5,7.9,5.3c2.2,3.1,2,4.3-0.2,6.9l-0.1,0.1
					c-0.8,0.9-2.3,1.3-3.4,0.9c-1.1-0.4-2.2-1.8-2.1-3c0-0.7-0.3-1.1-0.9-1.4c-1.9-0.9-3.3-0.2-4.4,1.1c-2.7,3-2.6,6.4-1.6,10
					c0.5,1.7,1.7,2.6,3.2,3.3c0.4,0.2,0.8,0.3,1.3,0.5c4.4,1.5,8.2,0.3,11.4-2.8C207.5,462,209.1,458,209.4,453.5z"/>
				<path class="st4" d="M-115,429.6c1.2,0.6,1.4,0.8,1.3,2c0,0.6-0.1,1.2-0.2,1.8c-0.5-0.7-0.5-1.5-0.6-2.2
					C-114.5,430.6-114.7,430.1-115,429.6z"/>
				<path class="st4" d="M-68,449.7c0.1-0.7-0.1-1.4-0.4-2.1c-0.2-0.5-0.2-1-0.2-1.6C-67.4,447.3-67.2,448.2-68,449.7z"/>
				<path class="st4" d="M-68.7,450.3c0.1-0.3,0.4-0.4,0.7-0.5C-68.1,450.1-68.3,450.3-68.7,450.3z"/>
				<path class="st4" d="M-228.9,305.2c0.4-0.4,0.9-0.2,1.4-0.2c1.3-0.2,2.5-0.3,3.8-0.4c-0.9,1.3-1.7,1.6-3.2,1.1
					C-227.6,305.4-228.2,305.3-228.9,305.2z"/>
				<path class="st4" d="M-223.7,304.5c0.4-0.4,0.8-0.2,1.2-0.2C-222.8,304.7-223.3,304.5-223.7,304.5z"/>
				<path class="st4" d="M245.3,484.4c-1.2,0.6-2.5,0.7-3.7,1.1c-1.8,0.5-3.3,1.4-4.7,2.5c-1.7,1.3-3.3,2.7-4.9,4
					c-0.4,0.4-0.8,0.8-1.1,1.2c-0.2,0.3-0.4,0.7-0.9,0.2c-0.2-0.2-0.4,0.1-0.6,0.2c-0.4,0.3-0.8,0.8-1.3,0.9
					c0.1-0.2,0.1-0.4,0.2-0.5c2.2-1.7,3.9-4,6.1-5.6c2-1.5,4.1-2.7,6.5-3.5C242.4,484.3,243.9,484.3,245.3,484.4z"/>
				<path class="st4" d="M263.9,510.4c-0.5-0.3-0.8-0.8-1.2-1.3c-2-2.5-4.5-4-7.6-4.7c-0.7-0.2-1.5-0.2-2-0.8
					c3.1,0.3,5.9,1.1,8.2,3.3C262.3,507.9,263.5,508.9,263.9,510.4z"/>
				<path class="st4" d="M262.4,516.3c0-0.1,0-0.2,0-0.3c0.3-1.1,0.7-2.2,1.1-3.3c0.3-0.8,0.5-1.5,0.4-2.3c1,0.9,0.5,2,0.1,2.9
					C263.7,514.4,263.1,515.4,262.4,516.3z"/>
			</g>
		</g>
	</g>
</g>
</svg>
