<svg id="Layer_1" data-name="Layer 1" xmlns="http://www.w3.org/2000/svg" viewBox="0 0 100 50"><defs><style>.cls-1{fill:none;stroke:#fff;stroke-linecap:round;stroke-linejoin:round;stroke-width:0.75px;}</style></defs><circle class="cls-1" cx="49.95" cy="20.95" r="1.4"/><line class="cls-1" x1="92.05" y1="31.15" x2="92.05" y2="32.55"/><line class="cls-1" x1="92.05" y1="35.75" x2="92.05" y2="37.15"/><line class="cls-1" x1="88.95" y1="34.05" x2="90.35" y2="34.05"/><line class="cls-1" x1="93.55" y1="34.05" x2="94.95" y2="34.05"/><line class="cls-1" x1="80.95" y1="12.85" x2="80.95" y2="13.75"/><line class="cls-1" x1="80.95" y1="15.75" x2="80.95" y2="16.55"/><line class="cls-1" x1="79.05" y1="14.65" x2="79.85" y2="14.65"/><line class="cls-1" x1="81.85" y1="14.65" x2="82.75" y2="14.65"/><path class="cls-1" d="M79,32.25s5.9.1,5.9-5.9-6.6-6.3-8.2-5.2c0,0-1-2.4-4.5-2.4s-5.1,3.8-4.7,5.1"/><path class="cls-1" d="M68.35,20.65s-.1-.8-1.8-.8-3.3,1.6-3.2,2.8"/><path class="cls-1" d="M62.15,25.35s-.1-.4-.8-.4a1.52,1.52,0,0,0-1.5,1.4,1.88,1.88,0,0,0,2.1,1.9,2.69,2.69,0,0,0,2.6-2.8,3.31,3.31,0,0,0-3.5-3.4,3.77,3.77,0,0,0-3.6,2.9h-1.4s-1.1-.1-3.7,1.8-4.9,3-7.3,0c0,0,2,3.3,4.5,3.3s2.4-.8,4.5-.8,2.9,3,3.9,3.7,3.5.6,3.5.6"/><path class="cls-1" d="M80.75,32c.3.5.4,3.2-1.5,4s-3.6-.1-3.8-.6"/><path class="cls-1" d="M76.55,34.35s-1.1,1.5-4.2,1.5a6.32,6.32,0,0,1-5.3-2.6,4.3,4.3,0,0,1-.1-3.7c.7-1.1,1.7-2.1,2.8-2.1a2.58,2.58,0,0,1,2.7,2.6c0,1.9-1.2,2.1-1.9,2.1a1.33,1.33,0,0,1-1.4-1.2c0-.7.4-.8.4-.8"/><path class="cls-1" d="M68.75,35s-.5,1.6-2.9,1.6a4.29,4.29,0,0,1-4.4-4.3"/></svg>