<?xml version="1.0" encoding="utf-8"?>
<!-- Generator: Adobe Illustrator 24.3.0, SVG Export Plug-In . SVG Version: 6.00 Build 0)  -->
<svg version="1.1" id="Layer_1" xmlns="http://www.w3.org/2000/svg" xmlns:xlink="http://www.w3.org/1999/xlink" x="0px" y="0px"
	 viewBox="0 0 280 50" style="enable-background:new 0 0 280 50;" xml:space="preserve">
<style type="text/css">
	.st0{fill:#E5242A;}
	.st1{fill:none;stroke:#FFFFFF;stroke-width:0.75;stroke-linecap:round;stroke-linejoin:round;stroke-miterlimit:10;}
</style>
<g>
	<path class="st0" d="M265.9,50H14.1C6.3,50,0,43.7,0,35.9l0-21.8C0,6.3,6.3,0,14.1,0l251.8,0c7.8,0,14.1,6.3,14.1,14.1v21.8
		C280,43.7,273.7,50,265.9,50z"/>
</g>
<g>
	<g>
		<ellipse class="st1" cx="50.8" cy="20.7" rx="1.2" ry="1.4"/>
		<g>
			<line class="st1" x1="14" y1="31.1" x2="14" y2="32.5"/>
			<line class="st1" x1="14" y1="35.8" x2="14" y2="37.2"/>
			<line class="st1" x1="16.8" y1="34" x2="15.6" y2="34"/>
			<line class="st1" x1="12.8" y1="34" x2="11.6" y2="34"/>
		</g>
		<g>
			<line class="st1" x1="23.7" y1="12.3" x2="23.7" y2="13.2"/>
			<line class="st1" x1="23.7" y1="15.3" x2="23.7" y2="16.1"/>
			<line class="st1" x1="25.4" y1="14.1" x2="24.7" y2="14.1"/>
			<line class="st1" x1="23" y1="14.1" x2="22.2" y2="14.1"/>
		</g>
		<path class="st1" d="M25.5,32.2c0,0-5.1,0.2-5.1-6.1s5.8-6.5,7.1-5.3c0,0,0.9-2.4,3.9-2.4s4.5,3.9,4.1,5.3"/>
		<path class="st1" d="M34.8,20.4c0,0,0.1-0.8,1.5-0.8s2.9,1.6,2.8,2.9"/>
		<path class="st1" d="M40.2,25.1c0,0,0.1-0.4,0.7-0.4c0.6,0,1.3,0.6,1.3,1.5s-0.4,2-1.8,2c-1.4,0-2.3-1.4-2.3-2.8
			c0-1.4,0.8-3.5,3-3.5c2.2,0,3.2,2.7,3.1,3h1.3c0,0,1-0.1,3.3,1.9c2.2,2,4.3,3,6.3,0.1c0,0-1.7,3.4-4,3.4s-2.1-0.8-3.9-0.8
			c-1.9,0-2.6,3.1-3.4,3.8c-0.9,0.7-3,0.6-3,0.6"/>
		<path class="st1" d="M24,31.9c-0.2,0.5-0.3,3.3,1.3,4.1c1.7,0.9,3.1-0.1,3.3-0.7"/>
		<path class="st1" d="M27.6,34.4c0,0,1,1.6,3.6,1.6s4.3-1.9,4.6-2.6s0.7-2.7,0.1-3.8c-0.6-1.1-1.5-2.2-2.5-2.2
			c-1,0-2.4,0.7-2.4,2.7s1,2.2,1.7,2.2S34,31.7,34,31c0-0.7-0.3-0.8-0.3-0.8"/>
		<path class="st1" d="M34.4,35c0,0,0.4,1.6,2.5,1.6c2.1,0,3.8-1.9,3.8-4.4"/>
	</g>
	<g>
		<ellipse class="st1" cx="229.2" cy="20.7" rx="1.2" ry="1.4"/>
		<g>
			<line class="st1" x1="266" y1="31.1" x2="266" y2="32.5"/>
			<line class="st1" x1="266" y1="35.8" x2="266" y2="37.2"/>
			<line class="st1" x1="263.2" y1="34" x2="264.4" y2="34"/>
			<line class="st1" x1="267.2" y1="34" x2="268.4" y2="34"/>
		</g>
		<g>
			<line class="st1" x1="256.3" y1="12.3" x2="256.3" y2="13.2"/>
			<line class="st1" x1="256.3" y1="15.3" x2="256.3" y2="16.1"/>
			<line class="st1" x1="254.6" y1="14.1" x2="255.3" y2="14.1"/>
			<line class="st1" x1="257" y1="14.1" x2="257.8" y2="14.1"/>
		</g>
		<path class="st1" d="M254.5,32.2c0,0,5.1,0.2,5.1-6.1s-5.8-6.5-7.1-5.3c0,0-0.9-2.4-3.9-2.4s-4.5,3.9-4.1,5.3"/>
		<path class="st1" d="M245.2,20.4c0,0-0.1-0.8-1.5-0.8c-1.4,0-2.9,1.6-2.8,2.9"/>
		<path class="st1" d="M239.8,25.1c0,0-0.1-0.4-0.7-0.4s-1.3,0.6-1.3,1.5s0.4,2,1.8,2c1.4,0,2.3-1.4,2.3-2.8c0-1.4-0.8-3.5-3-3.5
			s-3.2,2.7-3.1,3h-1.3c0,0-1-0.1-3.3,1.9s-4.3,3-6.3,0.1c0,0,1.7,3.4,4,3.4s2.1-0.8,3.9-0.8s2.6,3.1,3.4,3.8s3,0.6,3,0.6"/>
		<path class="st1" d="M256,31.9c0.2,0.5,0.3,3.3-1.3,4.1c-1.7,0.9-3.1-0.1-3.3-0.7"/>
		<path class="st1" d="M252.4,34.4c0,0-1,1.6-3.6,1.6c-2.7,0-4.3-1.9-4.6-2.6c-0.3-0.7-0.7-2.7-0.1-3.8c0.6-1.1,1.5-2.2,2.5-2.2
			c1,0,2.4,0.7,2.4,2.7s-1,2.2-1.7,2.2c-0.6,0-1.2-0.5-1.2-1.2c0-0.7,0.3-0.8,0.3-0.8"/>
		<path class="st1" d="M245.6,35c0,0-0.4,1.6-2.5,1.6c-2.1,0-3.8-1.9-3.8-4.4"/>
	</g>
</g>
</svg>
