<svg id="Layer_1" data-name="Layer 1" xmlns="http://www.w3.org/2000/svg" viewBox="0 0 100 50"><defs><style>.cls-1{fill:none;stroke:#fff;stroke-linecap:round;stroke-linejoin:round;stroke-width:0.75px;}</style></defs><circle class="cls-1" cx="50" cy="20.95" r="1.4"/><line class="cls-1" x1="7.9" y1="31.15" x2="7.9" y2="32.55"/><line class="cls-1" x1="7.9" y1="35.75" x2="7.9" y2="37.15"/><line class="cls-1" x1="11" y1="34.05" x2="9.7" y2="34.05"/><line class="cls-1" x1="6.4" y1="34.05" x2="5" y2="34.05"/><line class="cls-1" x1="19" y1="12.85" x2="19" y2="13.75"/><line class="cls-1" x1="19" y1="15.75" x2="19" y2="16.55"/><line class="cls-1" x1="20.9" y1="14.65" x2="20.1" y2="14.65"/><line class="cls-1" x1="18.1" y1="14.65" x2="17.3" y2="14.65"/><path class="cls-1" d="M21,32.25s-5.9.1-5.9-5.9,6.6-6.3,8.2-5.2c0,0,1-2.4,4.5-2.4s5.1,3.8,4.7,5.1"/><path class="cls-1" d="M31.6,20.65s.1-.8,1.8-.8,3.3,1.6,3.2,2.8"/><path class="cls-1" d="M37.8,25.35s.1-.4.8-.4a1.52,1.52,0,0,1,1.5,1.4,1.88,1.88,0,0,1-2.1,1.9,2.69,2.69,0,0,1-2.6-2.8,3.31,3.31,0,0,1,3.5-3.4A3.77,3.77,0,0,1,42.5,25H44s1.1-.1,3.7,1.8,4.9,3,7.3,0c0,0-2,3.3-4.5,3.3s-2.4-.8-4.5-.8-2.9,3-3.9,3.7-3.5.6-3.5.6"/><path class="cls-1" d="M19.2,32c-.3.5-.4,3.2,1.5,4s3.6-.1,3.8-.6"/><path class="cls-1" d="M23.4,34.35s1.1,1.5,4.2,1.5a6.49,6.49,0,0,0,5.3-2.6,4.3,4.3,0,0,0,.1-3.7c-.7-1.1-1.7-2.1-2.8-2.1a2.58,2.58,0,0,0-2.7,2.6c0,1.9,1.2,2.1,1.9,2.1A1.33,1.33,0,0,0,30.8,31c0-.7-.4-.8-.4-.8"/><path class="cls-1" d="M31.2,35s.5,1.6,2.9,1.6a4.23,4.23,0,0,0,4.4-4.3"/></svg>