<?xml version="1.0" encoding="utf-8"?>
<!-- Generator: Adobe Illustrator 25.2.1, SVG Export Plug-In . SVG Version: 6.00 Build 0)  -->
<svg version="1.1" id="Layer_1" xmlns="http://www.w3.org/2000/svg" xmlns:xlink="http://www.w3.org/1999/xlink" x="0px" y="0px"
	 viewBox="0 0 111.5 117.2" style="enable-background:new 0 0 111.5 117.2;" xml:space="preserve">
<style type="text/css">
	.st0{fill-rule:evenodd;clip-rule:evenodd;fill:#FFC15E;}
</style>
<path class="st0" d="M82.8,107.8c-0.1,1.5-0.3,3.1-0.3,4.5c-0.1,4,0.4,4.7,4,4.8c3.4,0.1,6.9,0,10.3,0v-0.1c3.8,0,7.6,0,11.4,0
	c1.5,0,2.3-0.6,2.4-2.4c0.8-7.7,0.4-15.5,0.3-23.2c0-2.4-1.3-3.4-3.5-3.5c-2-0.1-4-0.1-6-0.1c-3.1-0.1-3.1-0.1-3.2-3.6
	c-0.2-6.2-0.2-6.2,5.5-6.4c3.2-0.1,4.1-0.8,4.2-4.4c0.2-5.5,0.4-11.1-0.2-16.5c-0.5-4.7-0.7-4.9-4.9-5c-5.5,0-10.9,0-16.4,0.1
	c-1.7,0-2.5-0.5-2.5-2.6c0.1-4.7,0.1-9.4,0-14.1c0-1.8,0.8-2.5,2.3-2.4c2.1,0.1,4,0.1,6.1,0c1.7-0.1,2.3,0.8,2.2,2.5
	c-0.1,1.6,0,3.3,0,4.9c0.1,3.1,0.8,4.1,3.6,4.2c2.8,0.1,5.6-0.1,8.4-0.1c1.5,0,2.3-0.9,2.5-2.6c0.5-2.8,0.7-5.6,0.5-8.5
	c-0.1-2.7-0.8-3.4-3.2-3.6c-2-0.2-4-0.2-6.1-0.1s-2.2-1.3-2.2-3c0-1.5,0.3-2.7,2.1-2.7c2.1,0,4-0.1,6.1-0.1c1.7,0,2.6-0.7,2.5-2.7
	c-0.1-5.1-0.1-10.3-0.3-15.3c0-1.2,0.5-3.5-1.2-3.4c-1.5,0.1-1.1,2.2-1.1,3.5c-0.1,4-0.1,8,0,12c0,1.8-0.7,2.9-2.4,2.7
	c-1.5-0.1-3-0.1-4.5,0c-3.2,0.2-4.2,1.4-4.4,4.8c0,0.5-0.1,1.1,0,1.6c0.1,1.8-0.8,2.4-2.4,2.4c-2.2-0.1-4.3,0-6.5,0
	c-3.7,0.1-4.2,0.5-4.3,4.5c-0.2,5.2-0.1,10.5-0.1,15.8c0,4.5,0.3,4.7,4.6,4.8c5.5,0.1,10.9,0.3,16.4,0.4c2.6,0.1,2.7,0.1,2.7,3.1
	c0,4.4-0.1,8.8,0,13.2c0,2.1-0.6,3.2-2.5,2.9c-0.7-0.1-1.2-0.1-1.9,0c-1.6,0.1-2.3-0.7-2.3-2.5c0.1-1.6,0-3.3-0.1-4.9
	c-0.3-2.7-0.9-3.4-3.4-3.4c-2.8-0.1-5.6,0-8.4,0.1c-3,0.1-3.1,0.3-3.4,3.6c-0.1,0.7-0.1,1.3-0.1,2.1c-0.3,4.9-0.3,4.9-5,5.1
	c-0.3,0-0.5,0-0.8,0c-2-0.1-3,0.9-3.3,3.1c-0.4,2.5-0.6,4.9-0.5,7.4c0.1,1.9-0.8,2.8-2.4,2.7c-1.6-0.1-3.3,0-5,0.1
	c-2.9,0.1-3.9,1.1-4,4.2c-0.1,1.6,0,3.3,0,4.9c0.1,8.5-0.1,7.3,7.2,8c4.3,0.4,4.2-0.3,4.2,4.9c0,0.1,0,0.3,0,0.4
	c-0.1,3.1-0.1,3.1-2.7,3.1c-5.4,0.1-10.6,0.1-16,0c-2.8,0-2.8-0.1-2.9-3.4c0-5,0-9.9,0-15c-0.1-3.1-0.9-4.1-3.6-4.2
	c-5.9-0.1-11.9,0-17.9,0c-1.6,0-2.5,0.8-2.7,2.7c-0.2,1.9,0.8,4.5-0.8,5.8c-1.5,1.2-3.7,0.3-5.6,0.5c-0.1,0-0.3,0-0.4,0
	c-1.8-0.1-2.4,0.9-2.4,2.8c0,1.9,0,3.9-0.1,5.8c-0.1,3-0.1,3.1-2.7,3.1c-3.6,0-7.1,0-10.6,0c-0.8,0-1.8,0.1-2.6,0.3
	c-0.7,0.1-1.1,0.7-1,1.5c0,0.8,0.5,1.3,1.1,1.4c0.8,0.2,1.8,0.3,2.6,0.3c3.2,0,6.3,0,9.5,0c7.1,0,7.2-1.6,7-7.5
	c-0.1-4.2,0.7-4.7,4.4-4.2c1.3,0.2,1.7,0.9,1.7,2.2c0,1.8,0,3.6,0,5.4c0.1,2.6,0.6,3.2,3,3.3c2.6,0.1,5.4,0,8,0.1
	c2.1,0.1,3.1-1.1,3.3-3.2c0.3-2.5,0.4-4.9,0.3-7.5c-0.1-2.7-0.9-3.6-3.6-3.8c-1.9,0.3-3.6,0.4-5.2,0.3c-2.8-0.1-3-0.3-3-2.9
	c0-2.7,0.2-2.9,2.9-2.9c3.8,0,7.6,0,11.4,0c3.9,0,3.9,0,3.9,4c0,4.4-0.1,8.8,0,13.2c0.1,4.4,0.8,5,4.7,5.1c4.1,0,8.4,0.1,12.5,0
	c2.5,0,5.1,0,7.6-0.1c2.4-0.2,2.7-0.6,2.8-3.4c0.1-1.9,0.1-3.9,0-5.8c0-1.5,0.5-2.4,2-2.3c0.8,0,1.5,0,2.3,0
	C82.4,105.2,82.9,106.2,82.8,107.8z M103,33.2c0.1,0,0.6,0,1,0c1.7-0.2,2.5,0.5,2.5,2.6c0,7,1.1,7-5.8,6.2c-3-0.4-3-0.4-3-3.7
	C97.6,32.4,97.5,33.3,103,33.2z M85.4,71.9c0-0.4,0-0.8,0-1.2c-0.1-3.5-0.1-3.5,3-3.6c0.7,0,1.2,0,1.9,0l0,0c0.5,0,1,0,1.5,0
	c3.8,0.1,3.8,0.1,3.7,4.2c-0.1,3.3-0.1,3.3-3.3,3.4c-1.4,0.1-2.8,0-4.1,0.1C85.9,75,85.3,73.9,85.4,71.9z M95.4,83.5
	c0,0.8,0,1.6,0,2.5c0,1.3-0.7,1.9-1.9,1.9c-0.5,0-1,0-1.5,0c-7.5-0.1-6.5,1.1-6.5-6.8c0-3.1,0.1-3.1,3-3.2c0.7,0,1.2,0,1.9,0
	C95.8,78,95.4,77.3,95.4,83.5z M77.6,87.7c-0.8-0.3-1.1-1-1.1-1.9c0-1.5-0.1-3,0-4.5c0-3.3,0.2-3.4,3.2-3.3c2.6,0.1,2.7,0.1,2.8,3
	c0,0.7,0,1.3,0,2.1l0,0c0,0.4,0,0.8,0,1.2C82.4,87.5,80.5,88.8,77.6,87.7z M39.1,105.8c0,0.3,0,0.5,0,0.8c0.4,5.1,0.4,5.1-4.4,5.1
	c-0.8,0-1.5,0-2.3,0c-1.5,0-1.9-0.8-2.1-2.3c-0.5-5.2-0.2-5.5,4.7-5.6c0.7,0,1.2,0,1.9-0.1C38.3,103.6,39.2,104.1,39.1,105.8z
	 M95.4,97.4c0,0.5,0,1.1,0,1.6c-0.1,2.9-0.2,2.9-2.8,3c-0.8,0-1.5,0-1.5,0c-5.9-0.4-5.7,1-5.7-5.7c0-5.3-0.3-5,4.5-4.9
	C96.1,91.3,95.3,90.3,95.4,97.4z M64.8,98.7c0-0.7,0-1.3,0-1.5c0.4-6.2-0.9-5.9,5.3-5.8c3.3,0,3.3,0.1,3.4,3.7c0,0.3,0,0.5,0,0.8
	c-0.1,6.6,0.8,6.2-5.7,6.2C64.9,102,64.9,101.9,64.8,98.7z M77.4,101.6c-0.8-0.4-0.9-1.2-0.9-2.1c0-2.1,0-4.1,0-6.2
	c0-1.6,0.8-2.2,2.2-2.2c5-0.1,4.3,0.2,4.3,4.2c0,0.4,0,0.8,0,1.2c0,0.4,0,0.8,0,1.2C82.8,101.5,80.2,103.1,77.4,101.6z M90.5,105.2
	c8.8-0.9,7.6,0.8,7.7-8.8c0.1-5.5-0.4-5.1,4.8-5.1c5.7,0,5.1-0.6,5.1,5.5c0,4.5,0.1,9.1,0.1,13.6c0,3.7,0,3.8-3.2,3.8
	c-2.6,0-5.4,0-8,0c-2.9,0-5.8,0-8.8,0c-1.8,0-2.7-0.5-2.8-2.8C85.1,105.5,85,105.8,90.5,105.2z"/>
</svg>
