<?xml version="1.0" encoding="utf-8"?>
<!-- Generator: Adobe Illustrator 24.3.0, SVG Export Plug-In . SVG Version: 6.00 Build 0)  -->
<svg version="1.1" id="Layer_1" xmlns="http://www.w3.org/2000/svg" xmlns:xlink="http://www.w3.org/1999/xlink" x="0px" y="0px"
	 viewBox="0 0 111.5 117.2" style="enable-background:new 0 0 111.5 117.2;" xml:space="preserve">
<style type="text/css">
	.st0{fill-rule:evenodd;clip-rule:evenodd;fill:#FFC15E;}
</style>
<path class="st0" d="M102.4,30.3c1.5,0.1,3,0.3,4.4,0.3c3.9,0.1,4.6-0.4,4.7-4.3c0.1-3.6,0-7.3,0-10.9c0,0-0.1,0-0.1,0
	c0-4,0-8.1,0-12.1c0-1.6-0.6-2.4-2.3-2.6C101.6-0.1,94,0.3,86.5,0.4c-2.3,0-3.3,1.4-3.4,3.7C83,6.2,83,8.4,83,10.5
	c-0.1,3.3-0.1,3.3-3.5,3.4c-6,0.2-6,0.2-6.2-5.8c-0.1-3.4-0.8-4.4-4.3-4.5c-5.4-0.2-10.8-0.4-16.1,0.2C48.3,4.3,48.1,4.5,48,9
	c0,5.8,0,11.6,0.1,17.4c0,1.8-0.5,2.7-2.5,2.7c-4.6-0.1-9.2-0.1-13.7,0c-1.8,0-2.4-0.8-2.3-2.4c0.1-2.2,0.1-4.3,0-6.5
	c-0.1-1.8,0.8-2.4,2.4-2.3c1.6,0.1,3.2,0,4.8,0c3-0.1,4-0.9,4.1-3.8c0.1-3-0.1-5.9-0.1-8.9c0-1.6-0.9-2.4-2.5-2.7
	C35.6,2,32.8,1.8,30,2c-2.6,0.1-3.3,0.8-3.5,3.4c-0.2,2.1-0.2,4.3-0.1,6.5c0.1,2.2-1.3,2.3-2.9,2.3c-1.5,0-2.6-0.3-2.6-2.2
	c0-2.2-0.1-4.3-0.1-6.5c0-1.8-0.7-2.8-2.6-2.7c-5,0.1-10,0.1-14.9,0.3C2.1,3.1-0.1,2.6,0,4.4C0.1,6,2.1,5.6,3.4,5.6
	c3.9,0.1,7.8,0.1,11.7,0c1.8,0,2.8,0.7,2.6,2.6c-0.1,1.6-0.1,3.2,0,4.8c0.2,3.4,1.4,4.5,4.7,4.7c0.5,0,1.1,0.1,1.6,0
	c1.8-0.1,2.3,0.8,2.3,2.5c-0.1,2.3,0,4.6,0,6.9c0.1,3.9,0.5,4.5,4.4,4.6c5.1,0.2,10.2,0.1,15.4,0.1c4.4,0,4.6-0.3,4.7-4.9
	c0.1-5.8,0.3-11.6,0.4-17.4c0.1-2.8,0.1-2.9,3-2.9c4.3,0,8.6,0.1,12.9,0c2,0,3.1,0.6,2.8,2.7c-0.1,0.7-0.1,1.3,0,2
	c0.1,1.7-0.7,2.4-2.4,2.4c-1.6-0.1-3.2,0-4.8,0.1c-2.6,0.3-3.3,1-3.3,3.6c-0.1,3,0,5.9,0.1,8.9c0.1,3.2,0.3,3.3,3.5,3.6
	c0.7,0.1,1.3,0.1,2,0.1c4.8,0.3,4.8,0.3,5,5.3c0,0.3,0,0.5,0,0.8c-0.1,2.1,0.9,3.2,3,3.5c2.4,0.4,4.8,0.6,7.2,0.5
	c1.9-0.1,2.7,0.8,2.6,2.6c-0.1,1.7,0,3.5,0.1,5.3c0.1,3.1,1.1,4.1,4.1,4.3c1.6,0.1,3.2,0,4.8,0c8.3-0.1,7.1,0.1,7.8-7.6
	c0.4-4.6-0.3-4.5,4.8-4.5c0.1,0,0.3,0,0.4,0c3,0.1,3,0.1,3,2.9c0.1,5.7,0.1,11.3,0,17c0,3-0.1,3-3.3,3.1c-4.9,0-9.7,0-14.6,0
	c-3,0.1-4,1-4.1,3.8c-0.1,6.3,0,12.7,0,19c0,1.7,0.8,2.7,2.6,2.9c1.9,0.2,4.4-0.9,5.7,0.9c1.2,1.6,0.3,3.9,0.5,5.9
	c0,0.1,0,0.3,0,0.4c-0.1,1.9,0.9,2.6,2.7,2.6c1.9,0,3.8,0,5.7,0.1c2.9,0.1,3,0.1,3,2.9c0,3.8,0,7.5,0,11.3c0,0.9,0.1,1.9,0.3,2.8
	c0.1,0.7,0.7,1.2,1.5,1.1c0.8,0,1.3-0.5,1.4-1.2c0.2-0.9,0.3-1.9,0.3-2.8c0-3.4,0-6.7,0-10.1c0-7.5-1.6-7.6-7.3-7.4
	c-4.1,0.1-4.6-0.7-4.1-4.7c0.2-1.4,0.9-1.8,2.1-1.8c1.8,0,3.5,0,5.3,0c2.5-0.1,3.1-0.6,3.2-3.2c0.1-2.8,0-5.7,0.1-8.5
	c0.1-2.2-1.1-3.3-3.1-3.5c-2.4-0.3-4.8-0.4-7.3-0.3c-2.6,0.1-3.5,1-3.7,3.8C95,79.2,95.1,81,95,82.7c-0.1,3-0.3,3.2-2.8,3.2
	c-2.6,0-2.8-0.2-2.8-3.1c0-4,0-8.1,0-12.1c0-4.1,0-4.1,3.9-4.1c4.3,0,8.6,0.1,12.9,0c4.3-0.1,4.9-0.8,5-5c0-4.4,0.1-8.9,0-13.3
	c0-2.7,0-5.4-0.1-8.1c-0.2-2.6-0.6-2.9-3.3-3c-1.9-0.1-3.8-0.1-5.7,0c-1.5,0-2.3-0.5-2.2-2.1c0-0.8,0-1.6,0-2.4
	C99.8,30.8,100.8,30.2,102.4,30.3z M29.6,8.9c0-0.1,0-0.6,0-1.1c-0.2-1.8,0.5-2.7,2.5-2.7c6.8,0,6.8-1.2,6,6.2
	c-0.4,3.2-0.4,3.2-3.6,3.2C28.9,14.6,29.7,14.7,29.6,8.9z M67.4,27.6c-0.4,0-0.8,0-1.2,0c-3.4,0.1-3.4,0.1-3.5-3.2c0-0.7,0-1.3,0-2
	c0,0,0,0,0,0c0-0.5,0-1.1,0-1.6c0.1-4,0.1-4,4.1-3.9C70,17,70,17,70.1,20.4c0.1,1.5,0,3,0.1,4.4C70.4,27,69.3,27.7,67.4,27.6z
	 M78.7,16.9c0.8,0,1.6,0,2.4,0c1.3,0,1.9,0.7,1.9,2c0,0.5,0,1.1,0,1.6c-0.1,8,1.1,6.9-6.6,6.9c-3,0-3-0.1-3.1-3.2c0-0.7,0-1.3,0-2
	C73.3,16.5,72.6,16.9,78.7,16.9z M82.8,35.9c-0.3,0.9-1,1.2-1.9,1.2c-1.5,0-2.9,0.1-4.4,0c-3.2,0-3.3-0.2-3.2-3.4
	c0.1-2.8,0.1-2.9,2.9-3c0.7,0,1.3,0,2,0c0,0,0,0,0,0c0.4,0,0.8,0,1.2,0C82.6,30.8,83.9,32.8,82.8,35.9z M100.4,76.8
	c0.3,0,0.5,0,0.8,0c5-0.4,5-0.4,5,4.7c0,0.8,0,1.6,0,2.4c0,1.6-0.8,2-2.2,2.2c-5.1,0.5-5.4,0.2-5.5-5c0-0.7,0-1.3-0.1-2
	C98.3,77.6,98.8,76.7,100.4,76.8z M92.2,16.9c0.5,0,1.1,0,1.6,0c2.8,0.1,2.8,0.2,2.9,3c0,0.8,0,1.6,0,1.6c-0.4,6.3,1,6.1-5.6,6.1
	c-5.2,0-4.9,0.3-4.8-4.8C86.3,16.2,85.3,17,92.2,16.9z M93.5,49.5c-0.7,0-1.3,0-1.5,0c-6-0.4-5.8,1-5.7-5.6c0-3.5,0.1-3.5,3.6-3.6
	c0.3,0,0.5,0,0.8,0c6.4,0.1,6-0.8,6,6.1C96.7,49.4,96.6,49.4,93.5,49.5z M96.3,36.1c-0.4,0.9-1.2,1-2,1c-2,0-4,0-6,0
	c-1.6,0-2.1-0.8-2.1-2.3c-0.1-5.3,0.2-4.6,4.1-4.6c0.4,0,0.8,0,1.2,0c0.4,0,0.8,0,1.2,0C96.2,30.3,97.8,33.1,96.3,36.1z M99.8,22.1
	c-0.9-9.3,0.8-8.1-8.6-8.2c-5.4-0.1-5,0.4-5-5.1c0-6.1-0.6-5.4,5.4-5.4c4.4,0,8.9-0.1,13.3-0.1c3.6,0,3.7,0,3.7,3.4
	c0,2.8,0,5.7,0,8.5c0,3.1,0,6.2,0,9.3c0,1.9-0.5,2.9-2.7,3C100.1,27.9,100.4,28,99.8,22.1z"/>
</svg>
