<svg id="Layer_1" data-name="Layer 1" xmlns="http://www.w3.org/2000/svg" viewBox="0 0 500 500"><defs><style>.cls-1{fill:#e10000;}</style></defs><path class="cls-1" d="M487,239.48c-.12-1.45-.3-2.88-.47-3.95s-.26-1.79-.26-1.79l2,2.62a235.94,235.94,0,0,0-10.11-47.87,172.85,172.85,0,0,0-21.19-43.7,176.62,176.62,0,0,0-15.53-19.54,74.05,74.05,0,0,1-4.61-6l-4.33-5.57c-4.12-3.2-4.51-1.84-6.82-2.65a200.28,200.28,0,0,0-31.43-30.39c-3-2.23-5.86-4.22-8.48-6a80.19,80.19,0,0,0-7.19-4.29,30,30,0,0,0-5-2.29c-1.24-.34-2-.29-2.06.23-3.89-2.25-7-4.07-9.88-5.38s-5.4-2.35-7.93-3.39-5.19-1.87-8.2-3c-1.52-.56-3.11-1.26-4.91-1.9s-3.77-1.35-5.94-2.18a245.19,245.19,0,0,0-39.36-11A236.76,236.76,0,0,0,250,37.06c-16.76.18-29-.2-45,3-5.91,1.4-11.68,2.6-17,4.26q-5.72,1.65-11.23,3.53c.37.6.74,1.2,1.12,1.79,1.5,2.41,3,4.77,4.46,7,2.56-1,4.95-1.84,7-2.45l6.54-2.13c16.59-4,26.44-4.32,39.33-5.13a137.36,137.36,0,0,1,38,2.41c15.33.35,33.06,4.16,50.06,10.47s33.23,15.08,47,23.66a158.25,158.25,0,0,1,30.29,24.2A234.83,234.83,0,0,1,423,135.38c2.38,3.24,4.56,6,6.25,8.58a64.56,64.56,0,0,1,4.3,6.86c1,2.14,3.44,5.32,6,9s5.27,7.67,6.88,11.36l-1.89-1.26c1.11,2.45,3.47,7.2,4.46,9.68s.4,2-.21,1.56c-1.22-.89-2.42-1.75-1,2.67,2.08,5.08,3.75,10.38,5.57,15.66l2.38,8.09c.87,2.68,1.4,5.48,2.15,8.23a228.34,228.34,0,0,1,8.3,32.46,7.28,7.28,0,0,1,1.8,2.77c.58,3.27,1.07,6.56,1.61,9.85,1.25,1.92,2.45,1.19,3.22,2.5,1.57-.08,3.2,3.4,4.8,6.55s3.12,5.93,4.54,4.19c.39-.7.57-6.14.71-12.58-.07-3.21-.13-6.67-.13-9.92s-.2-6.24-.09-8.58c.18-2.18,1.82,2.61,3.19,4.62C484.24,235.55,485.23,234.63,487,239.48Z"/><path class="cls-1" d="M451,419.89c-.59-.5-.43-.75,0-.73l-.26-.26.39-.17c-1.39-1.44-3-3.14-4.93-3.79a10.08,10.08,0,0,0-1.58-.47,4.68,4.68,0,0,1-.8-.47c-.39,0-.45.24-.67.35-1.15-.84-3.94-2.17-4.09-1.55a19.24,19.24,0,0,0-2.49-.53,40.13,40.13,0,0,0-5.3-1.12c-1-.16-2.05-.2-3.06-.31l-1.1,0a30.81,30.81,0,0,0-6.2.49,47.08,47.08,0,0,0-8.71,1.7,81.09,81.09,0,0,0-21.88,10.45l-2.43.94a23.74,23.74,0,0,1-4.24,1.34,8.53,8.53,0,0,1-4-.24,8.84,8.84,0,0,1-3.29-2,7,7,0,0,1-1.7-2.76.5.5,0,0,1-.13-.21s0-.17-.05,0c0,.54,0,1.08-.05,1.62l0-.7c0-.17,0-.69,0-.42l.1.66a5.75,5.75,0,0,0,.33,1.2,4.93,4.93,0,0,0,1.43,1.86,6.69,6.69,0,0,0,4.09,1.48,11.65,11.65,0,0,0,4-.53l-.31.1c1.71-.44,3.27-1.07,4.42-1.46l1.17-.46L388,425a124.55,124.55,0,0,0-11.78,9.29c-1.91,1.69-3.78,3.45-5.59,5.27-.93.93-1.72,1.78-2.64,2.77l-2.85,3a176.43,176.43,0,0,1-25,21.94,158.19,158.19,0,0,1-55.58,25.08c-2.19.49-4.3,1.11-6.41,1.44L272,494.89c-3.95.79-7.73,1-11.2,1.46a173.22,173.22,0,0,0,56.24-15.7A166.2,166.2,0,0,1,277.89,492c-12.55,2.13-24.14,2.35-33.72,2.4l-10.58.21c-3.54,0-7.08-.21-10.63-.3-3.55-.27-7.1-.61-10.66-1-3.54-.54-7.11-1-10.66-1.61a214.94,214.94,0,0,1-85.8-36.54,223.38,223.38,0,0,1-63-67.81c-1.39-2.47-3.14-5.21-4.79-8.36-.83-1.57-1.69-3.22-2.58-4.92s-1.83-3.45-2.65-5.31c-1.7-3.71-3.61-7.54-5.17-11.63l-2.48-6.14c-.73-2.1-1.46-4.22-2.2-6.33-1.56-4.19-2.64-8.53-3.88-12.69s-2-8.35-2.93-12.26c-.68-4-1.33-7.7-1.92-11.13-.37-3.46-.71-6.59-1-9.31a212.3,212.3,0,0,0,18.46,65.54c1.26,2.56,2.34,5.21,3.73,7.7l4,7.55c2.91,4.91,5.77,9.86,9,14.55A222.37,222.37,0,0,0,79.59,421.6a240,240,0,0,0,25,23.46,223.56,223.56,0,0,0,28.24,19.45,208.84,208.84,0,0,0,63.74,24.6c-2.44-.48-4.82-1.15-7.16-1.84,3.46,1,7,1.63,10.51,2.33s7.07,1.19,10.61,1.74c2.08.28,4.33.36,6.62.53l-.28-.06c-4.35-1.06-18.92-3.15-37.61-9.64a213,213,0,0,1-30.2-12.94,230.35,230.35,0,0,1-31.22-19.7C97.64,434.45,80,415.69,68.09,398.47c-1.54-2.12-3-4.19-4.32-6.29l-3.89-6-3.35-5.72c-1.08-1.82-2.11-3.55-3-5.27-1.74-3.4-3.47-6.33-4.65-9l-3.11-6.41a308.78,308.78,0,0,1-13-31.75,163.74,163.74,0,0,1-7.7-35.71c-.2-2.19-.34-4.29-.47-6.32s0-4,0-5.89,0-3.73-.11-5.5,0-3.51-.11-5.2c-.34-.67-.57-4.05-.72-7.47.34-4.38.57-8.78,1.2-13.07S26,240.36,27,236.31s1.52-8,2.44-11.72,1.48-7.31,2.21-10.62c1-4.65,5-12.85,9.09-19.77s8.19-12.72,8.05-13.88c-.38-4.21-.25-4.74,1-6.72.65-1,1.65-2.31,3.12-4.6s3.67-5.41,6.49-10.13c1.52-2.16,4.7-10.45,8.1-14.65,2.76-3.59,3.31-4.47,5.38-7.12s4-5,5.9-7.42l2.94-3.76c1.08-1.25,2.2-2.56,3.42-4l.94-1.09-1.3-.92a18.09,18.09,0,0,1-2.6-2.06,39.58,39.58,0,0,1-4.3-5h-.07a5.11,5.11,0,0,1-2.16-1,211.33,211.33,0,0,0-23.95,29.52A225.61,225.61,0,0,0,12.34,254.42a217.91,217.91,0,0,0,1.23,43.24,230.81,230.81,0,0,0,28.7,84.77,240.12,240.12,0,0,0,57.66,67.35,232.63,232.63,0,0,0,75.34,40.74A203.28,203.28,0,0,0,215.61,499c3.37.31,6.71.7,10.06.77s6.68.34,10,.23l9.81-.13,9.68-.62a201.4,201.4,0,0,0,37.05-6.5,158.54,158.54,0,0,0,32.93-13.21,163.27,163.27,0,0,0,27.2-18.4c4-3.33,7.79-6.76,11.3-10.23s6.88-7.22,9.68-9.9c12.14-11.76,24.89-19.83,35.62-23.77A51.51,51.51,0,0,1,423.3,414a38.66,38.66,0,0,1,10.33.66,31.76,31.76,0,0,1,6.75,1.28,16.6,16.6,0,0,1,2.05,1.85,4,4,0,0,1,.89.79c.17.27.91.42,1.28.77l-.23.12c.13.11.35.37.46.49s0,.16,0,.2-.31.15-.17.44c.42.58.88,1.11,1.29,1.71.54.42,1.13.77,1.67,1.19a.69.69,0,0,1,.36-.13l.54.31c.28-.12.48-.38.67-.45.57-.59,1.79-.53,2.2-1.23.1-.22-.81-1.14-1-1.8C450.33,420,450.74,420,451,419.89Zm-63.44,4.7,2.47-.94h0Z"/><path class="cls-1" d="M482.47,407.71c0-1-.06-2-.12-2.92a7.44,7.44,0,0,0-.57-2.82,2.64,2.64,0,0,0-2.56-1.58,10.59,10.59,0,0,0-2.64.74c-4.37,2-9.33,1-13.9-.61-2.32-.82-4.58-1.83-6.89-2.86l-6.9-3.11c-5.06-2.32-10-4.75-14.81-7.46-2.38-1.36-4.72-2.78-7-4.3-1.12-.77-2.24-1.53-3.32-2.35s-2.17-1.67-3.11-2.41c-1.88-1.54-3.83-3.4-4.16-5.93s.36-4.67.12-7.85a26,26,0,0,0-6.82-15.91,24.9,24.9,0,0,0-7-5.37c-2.61-1.33-5.19-2.19-7.25-3.49-4.14-2.53-6.38-7.28-7.74-12.34S385.73,316.55,384,311a69.08,69.08,0,0,0-7-15.63c-.52-.89-1.14-1.82-1.78-2.8l-1.05-1.48-.46-.65-.45-.59c-.6-.81-1.26-1.62-2-2.44-.36-.4-.71-.83-1.09-1.22l-.57-.61-.29-.31c0-.11.15-.23.22-.35,1-1.41,2.08-2.88,3-4.45a27.74,27.74,0,0,0,2.86-6.54,22.25,22.25,0,0,0,.71-4.1,16.66,16.66,0,0,0,0-2.12,13.48,13.48,0,0,0-.22-2.1A20.51,20.51,0,0,0,373,258a37.48,37.48,0,0,0-10-10.1c-3.42-2.5-6.7-4.33-9.09-5.83a93.22,93.22,0,0,1,11.25,7.1c3.59,2.83,7.12,6.17,9.41,10.75A19.88,19.88,0,0,1,375.74,275a25.35,25.35,0,0,1-1.35,3.44c-.28.61-.47,1-.67,1.33l-.6,1.06c-.84,1.39-1.78,2.72-2.73,4-.05.11-.23.24-.18.34l.28.3.58.61c.39.4.75.83,1.12,1.25.74.85,1.44,1.72,2.12,2.62l1.27,1.73,1.33,1.94q1.29,2,2.46,4a68.49,68.49,0,0,1,6.92,17.45c1.44,6,2.29,11.82,4.5,16.6a15,15,0,0,0,4.39,5.78c1.75,1.46,4.35,2.34,7.29,3.7a27.24,27.24,0,0,1,13.7,14.37,26.82,26.82,0,0,1,2.06,9.91c0,1.95-.15,2.8-.21,4.06a7.55,7.55,0,0,0,.49,3.49,8.62,8.62,0,0,0,2.14,2.81c.43.4.89.78,1.36,1.15l1.51,1.2c2.29,1.73,4.68,3.35,7.14,4.88a147.9,147.9,0,0,0,15.47,8.2c-1.54-.8-3.07-1.63-4.54-2.47-3.74-1.91-7.37-3.94-10.86-6.15-1.74-1.1-3.44-2.27-5.09-3.48-.81-.62-1.65-1.21-2.43-1.86s-1.28-1-1.88-1.59a7.38,7.38,0,0,1-2.58-4,9.34,9.34,0,0,1-.08-2.42l.11-1.2.05-.6a5.9,5.9,0,0,0,.05-.76,27.46,27.46,0,0,0-3.38-14.38,28,28,0,0,0-10.27-10.75,62.75,62.75,0,0,0-6.13-3A13.67,13.67,0,0,1,395,336c-2.23-2.13-3.7-5.4-4.75-9.15s-1.72-7.92-2.76-12.31a76.59,76.59,0,0,0-6.9-17.64,69.5,69.5,0,0,1,6.9,17.64c1,3.89,1.67,7.57,2.62,10.94A24.9,24.9,0,0,0,394,334a12.58,12.58,0,0,0,3,2.66,33.49,33.49,0,0,0,4.56,2.08,31.35,31.35,0,0,1,6.23,3.24A28,28,0,0,1,420,364.9c0,.81,0,1.74-.08,2.45l-.17,1.39a9.52,9.52,0,0,0,0,2.82c.38,1.88,1.85,3.23,3.21,4.34l.88.72c.37.31.75.62,1.13.91.77.6,1.51,1.2,2.29,1.77,1.52,1.17,3.06,2.28,4.63,3.37,3.12,2.18,6.33,4.23,9.72,6.16,4.46,2.27,9,4.38,13.68,6.46l4.37,1.69-.17-.12a76.11,76.11,0,0,0-7.64-4.58c-3.75-2.09-8.58-4.69-13.85-7.94-2.63-1.64-5.36-3.44-8.09-5.45q-2-1.51-4.05-3.18c-.33-.27-.68-.59-1-.84l-.59-.55a12.53,12.53,0,0,1-1.12-1.19,4.66,4.66,0,0,1-1.2-3,10.37,10.37,0,0,1,.15-1.67,11.6,11.6,0,0,0,.24-2.48,31.73,31.73,0,0,0-15.68-28.16c-2.59-1.5-4.76-2.32-6.23-3.09a8.16,8.16,0,0,1-2.73-2c-1.31-1.41-2.45-4-3.31-7.24s-1.47-7.09-2.39-11.2a72.47,72.47,0,0,0-8.91-22.07c-.92-1.5-1.86-2.92-2.81-4.24l-1.38-1.91c-.26-.33-.51-.64-.76-.92l-.37-.4c-.09-.13-.33-.24-.14-.38a14.21,14.21,0,0,0,.89-1.4,10.35,10.35,0,0,0,.47-1l.54-1.28c.27-.62.5-1.31.74-2a26.66,26.66,0,0,0,1.46-9,24.21,24.21,0,0,0-2-9.11,27.36,27.36,0,0,0-4.7-7.12,47,47,0,0,0-11.89-9c-2-1.17-4.26-2.28-6.26-3.27s-4-2-5.9-3.16a33.76,33.76,0,0,1-10.56-9.51,8.71,8.71,0,0,1-2.09-3.76c-1-4.21.4-9,2.29-13.5l.35-.85c.17-.39.28-.84.47-1.22.34-.81.66-1.63,1-2.41a44.49,44.49,0,0,0,1.81-4.6,85,85,0,0,0,2.43-8.27l-.26-.37-.8,0c-.53,0-1.08-.05-1.58,0-1,0-2,.06-2.89.15a28.92,28.92,0,0,0-8,1.57,27.38,27.38,0,0,0-5.28,2.68c-.45.29-.89.63-1.34.94a13.57,13.57,0,0,0-1.24,1c-.65.5-1.27,1-1.86,1.59A32.55,32.55,0,0,0,318,208a16.39,16.39,0,0,0-2,3.83c-.33,3-.28,3.35-1,5a62.82,62.82,0,0,0-2.28,6.62,6.62,6.62,0,0,0-.71-.46l-1.06-.5a12.06,12.06,0,0,0-2.13-.84,26.19,26.19,0,0,0-3.93-.85c-1.94-.26-4.21-.77-5.28-.17-.63,2.13-1.28,4.21-1.91,6a9.79,9.79,0,0,1-.88,1.4c-.24.3-.43.63-.69.9a15.37,15.37,0,0,1-3.36,3,12.53,12.53,0,0,1-4.7,1.88,13.31,13.31,0,0,1-1.46.16c-.53,0-1,0-1.65-.09a16,16,0,0,0-2.89-.22,7.57,7.57,0,0,0-4,1.35,6.94,6.94,0,0,0-2.49,3.61l-.07.2,0,.08,0,.16a1.26,1.26,0,0,0,0,.33,4.87,4.87,0,0,0,0,.66,9.49,9.49,0,0,0,.38,2.4c.07.23.15.46.23.69l.13.33c0,.07-.14-.12-.2-.16a9,9,0,0,0-1-.86,11,11,0,0,0-2.07-1.28,32,32,0,0,0-7.31-2.16c-5.79-1-11.86-.93-20.15.29a89.56,89.56,0,0,1-14,.69,40.73,40.73,0,0,1-4.68-.47c-.77-.13-1.31-.24-2.44-.51-1-.34-1.9-.78-2.78-1.12-.92-.55-1.82-1.2-2.62-1.71s-1.65-1.21-2.34-1.7c-1.38-1-2.4-1.87-2.93-2.25-2,.68-2.11-.06-2.13.07l-.61-.36c-.05,0-.11-.09-.14-.07l0,.34-.06.68c-.08.91-.16,1.81-.2,2.68-.11,1.75-.14,3.44-.14,5.1a41.09,41.09,0,0,0,1.17,9.81,36.46,36.46,0,0,0,2.91,7.91,34.07,34.07,0,0,0,4.12,6.24,31,31,0,0,0,5.35,4.85,45.78,45.78,0,0,0,6.06,3.4c4,2,8.14,3.71,11.23,6.81a20.73,20.73,0,0,1,5.94,8,25.68,25.68,0,0,1,.89,2.51c.07.21.11.43.17.65l.11.5c.09.33.12.67.18,1a15.76,15.76,0,0,1,.17,2.07c0,.35,0,.7,0,1v.26c0,.06-.14-.05-.21-.07l-.47-.24a17.34,17.34,0,0,0-2.82-1.21,30.61,30.61,0,0,0-3.9-1.06,35.4,35.4,0,0,0-8.8-.68,30.78,30.78,0,0,0-13.84,4c-.58,0-1.15.06-1.72.11l.29.77c-.51.34-1,.68-1.5,1.06l-5,3.88,6.45-.06c.63,0,1.28,0,1.93.07l.19.5.5-.45a21.19,21.19,0,0,1,5,1,19.32,19.32,0,0,1,5.17,2.66,15.77,15.77,0,0,1,3.79,3.77l.35.5.16.25s-.18,0-.27,0l-1.21-.2c-.79-.14-1.57-.21-2.33-.28a51.75,51.75,0,0,0-8.2-.11l-.62.05-.75.08-1.51.16c-1,.09-2,.24-3,.4-2,.27-4.05.7-6.15,1.12a84.52,84.52,0,0,0-13.55,4.3l-1.4.62a13,13,0,0,0-1.5.72l-2.8,1.49a41.5,41.5,0,0,0-4.72,2.9c-2.87,1.88-5.12,3.52-7.55,5.13-.77.51-1.66,1.15-2.63,1.87l-.74.55c-.25.19-.56.4-.58.5l-.5.81c3.62.35,8,.81,12.24,1.31a57.09,57.09,0,0,1,10.76,2.18L194.6,334l1.3.38c.48.14,1.07.3,1.26.39.57.22,1.23.43,1.81.69a29.51,29.51,0,0,1,3.07,1.46c1.44.82,1,.76.54.71-.91-.09-1.64-.19.53,1.37a13.45,13.45,0,0,1,3.14,2.91l.53.79.55,1a17.19,17.19,0,0,1,.88,2.12c1,2.92,1.17,6.64,1.74,11.4a32.48,32.48,0,0,0,5.62,14.05,36.86,36.86,0,0,0,10.84,9.94,9.48,9.48,0,0,1,2.47.7c2.43,1.33,4.87,2.52,7.32,3.73,1.66.16,1.41-.89,2.51-.88.29-1,3.08-.87,5.55-1.5s4.61-2,3.62-3.51c-.4-.43-4-.63-8.17-1.74a36.48,36.48,0,0,1-6.12-2.26,25.33,25.33,0,0,1-4.66-3c-1-.9,1.92.38,3.38.4-3.33-1.67-4.74-3-5.11-3.57s.29-.32,1.63.31c-.69-.47-1.29-1-1.79-1.39l-.74-.7,1,.34.71.18a19.73,19.73,0,0,1-4.2-4.74,17.42,17.42,0,0,1-2.34-5.87,69.76,69.76,0,0,1-.89-7.63,37.24,37.24,0,0,0-2-9.53,27.39,27.39,0,0,0-2.38-4.75,21.59,21.59,0,0,0-3.62-4.31A30.79,30.79,0,0,0,204.1,326c-.72-.3-1.46-.64-2.16-.89l-1.67-.61,0,0s0,.06-.25.1h0c-.47.13-.75-.12-.35-.59l.09-.09s0,0,.09,0l.22-.11c.74-.35,1.53-.76,2.34-1.1,1.63-.67,3.21-1.32,4.07-1.61,2.83-1.56,2.28-1.8,3.45-2.66,1.72-.55,3.72-1,5.87-1.53l3.38-.65L221,316l.9-.13.45-.06a4.14,4.14,0,0,1,.6-.06l3.29-.24,1.66-.11a8.29,8.29,0,0,1,1.82,0l4.27.35,2.15.17,1.08.09,1.26.14,5,.57L246,317l.62.07c.18,0,0-.08.06-.11l-.06-.28-.28-1.09-.14-.55c0-.15,0-.15,0-.24l.13-.38,0-.18c-.08-.18-.38-.59-.55-.87-.84-1.27-1.59-2.37-2.32-3.4a31,31,0,0,0-4.32-5.14,21.43,21.43,0,0,0-3.89-3c-1-.6-1.62-.85-1.7-.65l-1.16-.87c-.42-.27-.91-.49-1.34-.73-.87-.46-1.78-.88-2.63-1.28a6.86,6.86,0,0,0-1.47-.56c.84-.34,1.73-.67,2.75-1a26.29,26.29,0,0,1,8.43-1,23.35,23.35,0,0,1,4.82.72,5.71,5.71,0,0,1,.78.24l.88.32a12.1,12.1,0,0,1,1.88.74c1.39.7,2.83,1.42,4.25,2.21l.54-.45c0-.47,0-.95.08-1.42,0-1,.07-1.89.06-2.88a29.8,29.8,0,0,0-.2-3,15.81,15.81,0,0,0-.23-1.6c-.13-.56-.17-.85-.29-1.29a27.08,27.08,0,0,0-4.35-9.3,26.77,26.77,0,0,0-8.09-7.28c-3.09-1.89-6.26-3.34-9-5a23.77,23.77,0,0,1-9.84-11.06,32.74,32.74,0,0,1-1.33-3.5c-.22-.58-.35-1.28-.47-1.52s-.2-.78-.29-1.17a26.18,26.18,0,0,1-.62-4.82,26.51,26.51,0,0,1,.09-3.45l0-.43c0-.11.18.14.26.2l.61.6a13.47,13.47,0,0,0,1.35,1l.14.09a11.78,11.78,0,0,0,2.32,1.18,10.48,10.48,0,0,0,1.23.42c.21.06.41.14.62.18l.86.2a44.53,44.53,0,0,0,9.36.87c6.06,0,11.91-1,17.23-1.67a52.76,52.76,0,0,1,15.63,0,15.32,15.32,0,0,1,1.81.4,12.39,12.39,0,0,1,2,.64,18,18,0,0,1,5.3,3.12c1.94,1.52,3.94,3.22,5.73,4.79l1.21,1.1.61.55.3.28.15.14s0,0,0,0c.19-.05.54,0,1.31.45-.75-2-1.56-4.32-2.26-6.4s-1.33-4-1.76-5.68a11,11,0,0,1-.39-2.22,5.1,5.1,0,0,1,.22-1.52c.23-.56.37-.64.55-.73.37-.17.75-.24,2.4.22a18.16,18.16,0,0,0,5.63.54,20.23,20.23,0,0,0,10.54-3.83,21.21,21.21,0,0,0,4.09-4l.39-.57a1,1,0,0,1,.17-.27,3.71,3.71,0,0,0,.33-.54,6.42,6.42,0,0,0,.49-1.14l.14-.46,0-.12h.12l.25,0a6.44,6.44,0,0,1,1,.17,8.43,8.43,0,0,1,1.82.66,8.26,8.26,0,0,1,1.61,1.05c.2.17.62.48,1,.75s.77.59,1.15.9l.07.06,4.33,5.19,1.05-6.43c1.34-8.2,2.94-16.3,7.16-22.87a24.52,24.52,0,0,1,3.61-4.4l1-.88.63-.53c.44-.33.89-.64,1.36-.93a11.14,11.14,0,0,1,3.07-1.25,9.34,9.34,0,0,1,1.67-.24,6,6,0,0,1,.85,0l.42,0c.1,0,.1,0,.07.11l0,.19a54.78,54.78,0,0,1-2.53,6.47c-1.83,4-3.88,8.79-4,14.29a21.49,21.49,0,0,0,1.36,8.2,24.91,24.91,0,0,0,4.22,7.08,50.86,50.86,0,0,0,11.86,9.86c3.95,2.51,7.64,4.52,10.9,7a28.5,28.5,0,0,1,7.9,8.35,12.16,12.16,0,0,1,1.21,9.71,21.39,21.39,0,0,1-2.8,6c-1.57,2.5-3.26,4.94-4.95,7.33V286c0,.14.23.26.33.4l.78.8,1.54,1.62c1,1.08,2,2.19,3,3.31l1.41,1.7c.24.31.45.52.72.9l.49.66c.66.85,1.26,1.75,1.88,2.64a61.35,61.35,0,0,1,6,11.46,76.05,76.05,0,0,1,3.59,12.65c1,4.47,2,9.25,4.5,13.92a21.84,21.84,0,0,0,5,6.4,25.39,25.39,0,0,0,6.79,4,30,30,0,0,1,5.42,2.73,19.43,19.43,0,0,1,4.16,3.79,20.6,20.6,0,0,1,4.5,10.18,26.65,26.65,0,0,1-.05,6.38,12.92,12.92,0,0,0,1.62,7.89,23.2,23.2,0,0,0,5.7,5.83c1.83,1.48,3.64,2.77,5.51,4.07a130.88,130.88,0,0,0,11.42,6.87c3.86,2.07,7.74,3.94,11.58,5.74l5.73,2.63c1.89.85,3.76,1.72,5.8,2.57,4.08,1.64,8.43,3.27,14,3.11a17.55,17.55,0,0,0,4.83-.84c.08.79.16,1.59.21,2.38.11,1.79.16,3.57.13,5.33a66.38,66.38,0,0,1-1,10.36c-.14.82-.3,1.58-.48,2.26a12.16,12.16,0,0,1-.55,1.61,7.36,7.36,0,0,1-1.86,2.66,56.77,56.77,0,0,1-7.33,4.72,55.48,55.48,0,0,1-16.69,6.35c-2.38.4-6.22.87-8.76,1.17a18.06,18.06,0,0,1-6.49-.41l-.82-.21-.21-.05-.51-.09-.82-.15a18.35,18.35,0,0,0-3.28-.39,29.8,29.8,0,0,0-3.28.09l-3.05.48a65.56,65.56,0,0,0-9.09,2.93l-3.58,1.38c-.54.17-1,.32-1.54.45a17.27,17.27,0,0,1-2.81.51,9.38,9.38,0,0,1-4.53-.66,4.86,4.86,0,0,1-.86-.41l-.4-.22-.19-.1-.1-.05s.07-.06.1-.08a12.41,12.41,0,0,0,1.55-1.27,5.37,5.37,0,0,0,1.51-2.49v0l-.32-1-.13-.43-.2-.78c-.18-.7-.35-1.43-.58-2.06a37,37,0,0,0-3.07-6.76,59,59,0,0,1,1.62,6.26c.11.65.24,1.28.31,2,0,.36.07.72.11,1.09l0,.27v.41l0,.56-.07.43c0,.29-.12.58-.19.89a9.22,9.22,0,0,1-2,3.48,14.18,14.18,0,0,1-1.73,1.62c-.31.27-.66.5-1,.76l-.26.19s-.13.07-.09.09l.11.06.46.24a14.9,14.9,0,0,0,9.44,1.57,29,29,0,0,0,5.58-1.47c.38-.12,1.18-.43,1.91-.71l2.25-.9c1.57-.6,3.17-1.22,4.93-1.8a32.32,32.32,0,0,1,5.8-1.36,19.73,19.73,0,0,1,6.59.21l.84.15.53.13c.35.09.69.16,1,.23.68.14,1.35.24,2,.32a20.69,20.69,0,0,0,4.09,0c1.46-.12,3.06-.36,4.74-.6l2.5-.36c.74-.11,1.49-.21,2.22-.37a49.45,49.45,0,0,0,8.72-2.55,67.92,67.92,0,0,0,8.22-3.9c1.32-.73,2.61-1.5,3.87-2.29s2.64-1.68,3.49-2.31a10.1,10.1,0,0,0,3.94-5.28,41.68,41.68,0,0,0,1.4-7.3,74.94,74.94,0,0,0,.36-13.78c-.06-.67-.13-1.33-.2-2l0,0c.05.67.11,1.33.16,2a70.71,70.71,0,0,1-.71,17.64c-.13.78-.28,1.53-.46,2.25a13.94,13.94,0,0,1-.6,1.93,9.56,9.56,0,0,1-2.21,3.46,22,22,0,0,1-3.68,2.78q-2.28,1.5-4.72,2.9c2.1-1,4.2-2.15,6.19-3.3a12.73,12.73,0,0,0,4.51-3.8,17,17,0,0,0,2.31-5.64c.52-2.16,1-4.34,1.27-6.49A73.48,73.48,0,0,0,482.47,407.71ZM479.62,403h0v0Zm0,0h0Zm0,.07h0l0,0Zm-.16.18v0l-.08.06.1-.09Zm-.28.44.1,0h0l0,.14-.08,0C479.16,403.76,479.14,403.72,479.12,403.67Zm.49-.56v0Zm-11.08,2.3a34,34,0,0,1-8.24-2.44c-2.38-1-4.45-2-6.35-3-3.2-1.6-1.11-.63,4.8,2.06a54.08,54.08,0,0,0,5.36,2.06,25.19,25.19,0,0,0,7.45,1.29,16,16,0,0,0,4.43-.57,16.44,16.44,0,0,0,2.23-.78l.2-.08a12,12,0,0,1-1.59.76s0,0,0,.05A17.66,17.66,0,0,1,468.53,405.41Z"/><path class="cls-1" d="M200,396.36a20,20,0,0,1,2,0c1.42,0,3,.14,4.77.24a35.85,35.85,0,0,1,4.84.14c1.21.2,4.23-.44,6.34-.28l-.55.42,2.82.17c.7.05.51.18.33.31-.37.27-.74.56.48.76,2.94.22,6,.39,9.09.48l9.25-.61a2.08,2.08,0,0,1,.83-.38l2.74-.26c.56-.28.38-.55.75-.73,0-.72,3.79-1.44,2.87-2-.36-.13-5.47-.41-7.74-1.06-.53-.18.73-.32,1.27-.55-3-.32-3.14-.7-1.9-.81l-1.4-.23.73-.31c-7.51-1.39-15.9-4-23.59-4.33a47.49,47.49,0,0,0-6.28.08c-.91,0-3-.33-3.79-.4-1.33.43-1.12,1-1.67,1.55-.77,0-1.6-.14-2.6-.11l-3,.07c-1.87.07-3.84.2-5.59.31-3.54.29-6.25.65-6,1.77-4.27.11-5.05,1.24-9.47,1.3a58.08,58.08,0,0,1-19.89-3.13A58.82,58.82,0,0,1,145,384.14c-1.3-.68-2.56-1.33-3.73-2-12.66-6.95-20.41-17.21-27-27.84-1.66-2.67-3.19-5.43-4.72-8.21-.76-1.4-1.51-2.81-2.28-4.22l-1.11-2.16c-.29-.52-.48-.81-.69-1.23-1.75-3.1-3.66-6.37-6.57-11.32l-1.05-1.83-.52-.94-.27-.47c0-.05-.15-.23-.06-.17l.14.06,1.2.53,1.41.47a26.75,26.75,0,0,0,6.63.78,33.39,33.39,0,0,0,3.81-.19l1-.1,1.34-.17c.94-.14,1.89-.23,2.82-.42a80.94,80.94,0,0,0,21-6.89c12.86-6.25,23.84-13.89,34.13-18.8,2.57-1.28,5-2.3,7.52-3.31l7.57-3.17a89.09,89.09,0,0,1,12.28-4.44,21.35,21.35,0,0,1,7.87-.76,12.69,12.69,0,0,1,3.81,1.06,11.84,11.84,0,0,1,3-.35,9.67,9.67,0,0,0-6.27-3.73,19.2,19.2,0,0,0-5.83.1,38.72,38.72,0,0,0-7,1.93c-4.89,1.77-10,4.32-14.83,6.43-2.5,1.1-4.57,1.94-6.6,2.89l-5.42,2.51c-4.76,2.49-8.41,4.51-11.25,5.85-2.4,1.17,2.92-1.95,11.25-5.85,1.81-.94,3.78-2,5.94-3,1.08-.53,2.21-1,3.39-1.55l3.84-1.73c-3.68,1-7,1.72-10.18,2.67s-6.07,1.87-8.52,2.63l-9.42,5.72c-7,4.23-13.87,8.4-21.13,11.4a62.17,62.17,0,0,1-11.17,3.45l-2.86.51-2.87.35c-1,.05-1.88.13-2.93.16s-2.37,0-3.61-.07c-1.07-.17-2.28-.24-3.72-.53s-3.11-.74-5-1.39l-2.86-.92-3.05-1.13c-2.11-.76-4.08-1.64-6.24-2.59l-1.74.15-1.82-.58c-.25-.17,0,.26,0,.43s.16.45.24.66c.15.44.3.86.44,1.26.27.8.51,1.53.69,2.17l-1.24-3-.62-1.48-.15-.37-.08-.18s.06,0,.08,0l.35.07c.46,0,1,.3,1.39.19l1.2-.47c2.15.92,4.09,1.76,6.22,2.53l3.11,1.16,3,1c2.06.72,3.83,1.11,5.72,1.65.9.18,1.69.22,2.54.33a13.08,13.08,0,0,0,2.46.16l2.37-.06c.8,0,1.24-.11,1.88-.15,1.19-.09,2.37-.3,3.56-.48a58.2,58.2,0,0,0,7-1.68c9.32-2.74,17.94-7.92,26.55-13.32-.58.28-1.17.55-1.76.8a144,144,0,0,1-16.23,8.42,65,65,0,0,1-8.34,2.92,52.79,52.79,0,0,1-8.51,1.71,29.36,29.36,0,0,1-6.8.34,43.22,43.22,0,0,0,6.8-.34c5-.8,9.74-2.72,14.83-5.08a98.68,98.68,0,0,0,10.24-4.55c2.62-1.4,5.33-2.27,8-3.42l4.82-2.84c.41-.36.87-.73,1.36-1.08h-.09c-1.42-.05-5.1,1.35-9.86,3.36s-10.62,4.56-16.31,6.3a65,65,0,0,1-16.12,2.93l-.84,0c-.18,0-.19,0-.51,0l-.81,0-3.16,0-.76,0-.83-.17-1.6-.34-3-.63L89.17,306.1c-2.84-1.1-5.82-2.26-8.45-3.17s-4.86-1.6-7.22-2.45c.64,1.38,1.24,2.7,1.75,3.91a11.4,11.4,0,0,1,.61,1.82c1.76,3.16,3.59,6.53,5,9.49,1.52,3.19,1.81,5.46,3.66,8.2a17.17,17.17,0,0,1,2.4,3.06c1.42,3,2.45,5.76,3.56,8.58a31.41,31.41,0,0,0,4.21,7.51,6.28,6.28,0,0,1,1,3.07c.12,1.12.1,2.44.14,3.68.08,2.48.14,4.74.73,4.72,4.3-.16,1.13,0,4.27,5.33.38.66,3,1.84,3.75,3.15,2.32,4.59,4.24,5.09,8.37,9.23a50.57,50.57,0,0,1,4,3.73c1.1,1.06,2,2,2.85,3a19.23,19.23,0,0,0,3,2.55c.59.4,1.23.81,2,1.22a25.82,25.82,0,0,0,2.53,1.1c.23.1,1.06.54,2.18,1.16s2.63,1.23,4,1.91,2.82,1.2,3.86,1.63l1.71.69a66.79,66.79,0,0,0,10.81,4.55,80.48,80.48,0,0,1,9.65,3.89c4.29.07,9.07.72,14,.92a66.4,66.4,0,0,0,14.15-.72c4.29-.74,7.32-1.11,10.25-1.35C198.68,396.39,199.34,396.37,200,396.36Z"/><path class="cls-1" d="M77.4,235.63a80.68,80.68,0,0,0,2.75,10.15,19.42,19.42,0,0,1,1,7.78c2,2.69,3.07,6.14,4.33,9.67A47,47,0,0,0,90,273.15c3.78,5.59,4.3,8.57,7.47,13.73A31.44,31.44,0,0,1,100,290c.52.89,2.84,2.08,4,3.29l-.72.1,1.62,1.64c.42.4.19.43,0,.47-.47.07-1,.14-.31,1a39.21,39.21,0,0,0,5.88,4.77,56.3,56.3,0,0,0,7.15,2.89,1.79,1.79,0,0,1,.84-.14c.72.2,1.4.46,2.13.62.56-.14.59-.51,1-.6.47-.86,3.42-.41,3.1-1.39-.16-.32-3.55-2.21-4.67-3.64-.25-.35.7-.14,1.19-.23-1.82-1.24-1.62-1.78-.76-1.47l-.75-.71.67-.11a49.23,49.23,0,0,1-5.39-6.67,66.85,66.85,0,0,0-4.9-6.64c-.72-.85-2.06-2.14-3-3a8,8,0,0,1-1.1-2.3c-.92-.4-1.43.12-2.16.19-.78-1.88-1.89-4.86-2.94-7.2s-2.14-4.06-3.3-3.3a9.83,9.83,0,0,0-1.89-3,9.55,9.55,0,0,1-2-3.05,95.27,95.27,0,0,1-5-14.9c-.44-1.48-.84-2.94-1.14-4.43l-.11-.55-.09-.35a5,5,0,0,1-.15-.67l-.27-1.33c-.16-.66-.31-1.31-.43-1.94a58.45,58.45,0,0,1-1.3-11.86c0-1.63,0-3.11,0-4.58l0-1.11c.23.33.51.83.76,1.21a19.33,19.33,0,0,0,1.51,2.18,16.8,16.8,0,0,0,7.79,6.05c.73.27,1.47.64,2.31,1l1.27.55.65.29a9.22,9.22,0,0,1,.87.41c2.72,1.39,5.51,2.62,8.29,3.83a141.59,141.59,0,0,0,16.94,5.86,154.37,154.37,0,0,0,32.94,5.25c5.15.27,10.06.27,14.6.08s8.72-.59,12.06-.8a54.21,54.21,0,0,1,12.71.36,26.57,26.57,0,0,1,2.52-1.21c-1.12-1-3.33-1.91-6.39-2.26a51.85,51.85,0,0,0-11.09.31c-4.15.46-8.7,1-12.77,1.19a73.38,73.38,0,0,1-10.54-.17,54.64,54.64,0,0,1-9.89-1.15c-2-.51,2.62.39,9.89,1.15a102.16,102.16,0,0,0,11.59-.22,83.82,83.82,0,0,1-14.93-3.46c-2.75,0-5.51-.24-8.31-.54-12.24-1.36-24.06-4.14-34.53-10.09-1.9-1-4.89-2.75-7.75-4.62-1.24-.84-3.24-2.2-4.76-3.47a38.07,38.07,0,0,1-4.05-3.69,78.15,78.15,0,0,0,7,5.28l1.53,1c.46.28.91.6,1.38.86l2.81,1.64a84.46,84.46,0,0,0,11.82,5.47A99.8,99.8,0,0,0,147,237.77c-.48-.12-.94-.25-1.4-.4a97,97,0,0,1-26.28-7.61,29.5,29.5,0,0,1-4.18-2.07c1.36.74,2.77,1.39,4.18,2.07a72.52,72.52,0,0,0,11.83,3.15c2.59.71,5.51,1.91,8.21,2.38a61.67,61.67,0,0,1,6.24,2.08c1.37.19,2.74.4,4.13.53a10.34,10.34,0,0,1,1.28-.11l0,0c-1.69-1.66-11.06-4.08-19.73-7.76s-16.62-8.37-19.07-9.38a18.82,18.82,0,0,0-3-.93l-1.59-.37a3.21,3.21,0,0,1-.43-.1l-.71-.27c-.43-.17-.87-.31-1.29-.49-1.66-.75-3.28-1.4-4.84-2.21-.77-.45-1.54-.92-2.3-1.42a14.11,14.11,0,0,1-2.3-1.73c-1-1-2-2.15-2.88-3.2l-.67-.75c-.23-.29-.45-.57-.68-.84a6.52,6.52,0,0,0-1.25-1.2c-.08.48-.82,0-1.51-.35a50.91,50.91,0,0,1-3.22-4.15c-1.1-1.51-2.24-3.19-3.38-4.84-2.26-3.24-4.43-6.28-5.37-6.53-.87-.72-4.54-8.12-8.83-16.34-2.64-4.39-4.46-7.13-3.65-4.93,3,7.84,3.29,8.45,2.82,7.7-.24-.4-.69-1.23-1.14-1.89a4.94,4.94,0,0,0-.64-.8.87.87,0,0,0-.28-.19h0v.4c0,.19,0,.4,0,.61,0,.37.59,2.53,1.18,4.69a30.22,30.22,0,0,1,1.13,5,18.09,18.09,0,0,0,.47,6.64c.53,2.59,1.28,5.67,1.87,9.21a48,48,0,0,1,1.23,10.33,28.57,28.57,0,0,0,2.35,10.3c.17.55,1.23,4.13,2.25,7.58C76.42,232.8,77.4,235.63,77.4,235.63Z"/><path class="cls-1" d="M274.61,407.81c2.61.11,5.1.31,7.45.49l3.41.29a32.79,32.79,0,0,0,3.71,0,18.39,18.39,0,0,0,7.3-1.81,13.33,13.33,0,0,0,5.43-4.86,13.26,13.26,0,0,0,.21-4.63,23.85,23.85,0,0,1-2.58,3.73,13.37,13.37,0,0,1-3.92,3.12,20.9,20.9,0,0,1-8.23,2.13c-1.32.1-2.56.09-3.66.09l-3.29,0c-2.11,0-4-.1-5.43-.25a48.7,48.7,0,0,1-5.1-.31c-1.06-.13,1.35-.1,5.1.31,1.67,0,3.63,0,6,0-3-.9-5.87-1.73-7.91-2.4l-4.35.28a188.37,188.37,0,0,0-19.16,2.25c-2.35.34-7.31,1.87-9.56,2.45,9.06-3.53,18.69-4.78,28-5.8a6.48,6.48,0,0,1-.77-.08,145.15,145.15,0,0,0-15,1.61c-.84.17-1.7.36-2.59.48.86-.16,1.73-.35,2.59-.48,2.21-.49,4.31-1.13,6.71-1.63,1.49-.21,3.23-.14,4.71-.31a16.91,16.91,0,0,1,3.56.33l2.22-.13a4.58,4.58,0,0,1,.66-.19l0,0c-1-.94-6.23-1.48-11.7-1.22s-11.17,1.42-12.69,2.12c-2.46,1.07-4.3,3.12-6.87,4.36a8,8,0,0,0-2.28,1c0,.2-.27.48-.55.76-1.66.88-3.63,1.14-4.67,2.31-.8.61-4.53-.33-4.48.24.19,2,0,.54-2.07,1.68-.27.12-.7,1.25-1.22,1.5-1.87.69-2,1.52-3.8,2.88-2.45,2.25-3.68,1.73-5.5,4.23-.11.15-1,1-1.89,1.8l-1.69,1.61a22.08,22.08,0,0,0-1.89,1.33c-.31.23-.48.4-.67.56l-.55.49c-.74.62-1.55,1.16-2.24,1a.9.9,0,0,1-.23-.08c-.11.18-.22.35-.34.51s-.26,0-.39,0a3.69,3.69,0,0,1-.81-.34,5.07,5.07,0,0,1-1.35-1.48,7.84,7.84,0,0,1-.84-1.74c-.3-.58-.59-1.43-1-2-1.42-2.69-.73-4.29-.58-6.88,0-.74-.26-1.28-.06-1.73s-.7-1.47-.61-2.23l.46.2c0-.25,0-.74,0-1s.16-.17.31-.1.6.27.74-.13c.13-1,.12-2,.2-3a10.36,10.36,0,0,1-.31-1.59,11.33,11.33,0,0,1-.17-1.59,1.16,1.16,0,0,1-.29-.41,5.26,5.26,0,0,1,0-1c-.17-.29-.42-.37-.52-.56-.67-.33-.51-1.95-1.11-2-.23,0-1.49,1.76-2.24,2.53-.22.16-.21-.41-.35-.73-.68,1.17-1,1.15-1,.55a5.82,5.82,0,0,0-.35.56l-.24-.42c-2.09,3-4.34,6.85-4.24,10.41a9.45,9.45,0,0,0,.47,2.81,7.93,7.93,0,0,1-.2,1.71c.49.52,1,.34,1.58.5a15.39,15.39,0,0,0,.13,5.16c.37,1.74,1.26,3,2.16,2.44a4.33,4.33,0,0,0,1.5,2l2.23,2.11c.47.47.94,1,1.47,1.49s1.16.87,1.77,1.3,1.31.8,2,1.22l.52.31a1.65,1.65,0,0,0,.25.15l.25,0,1,0,2.32-2c1-.83,1.86-1.59,2.78-2.32a21.13,21.13,0,0,1,2.14-1.81l1.35-1.09a74.65,74.65,0,0,1,13.58-8.8c4.54-2.32,9-4.41,14.1-7A50.69,50.69,0,0,1,258,408.32,93.52,93.52,0,0,1,274.61,407.81Z"/><path class="cls-1" d="M251.42,225.4l.37.88c1.22-.56,2.39-2.05,2.57-4.61s-.92-6-2.91-9.26c-4-6.64-10.86-12.31-14.93-15.61-3.26-2.43-5.88-4.13-7.84-5.41-1.7-1,2.44,1,7.84,5.41a82.49,82.49,0,0,1,8.36,7.09,76.87,76.87,0,0,0-9.82-10.74c-2.36-1.45-4.79-2.84-7.36-4.1-5.82-2.63-11.92-3.76-17.93-4.91s-12.07-2-18.16-2.87c-4.42-.67-14.12-1.71-18.3-2.63,8.86,1.29,17.91,2.11,26.89,3.34,4.49.6,9,1.27,13.48,2.12a74.75,74.75,0,0,1,13.4,3.6l-1.39-.7a89.72,89.72,0,0,0-14.09-3.68c-4.71-.91-9.44-1.64-14.17-2.3,4.21.5,8.34.83,12.95,1.48,2.84.45,6,1.34,8.87,2a34.53,34.53,0,0,1,6.44,2.5,40.49,40.49,0,0,1,4.05,1.84c.4.15.83.31,1.25.51l0,0a9.74,9.74,0,0,0-2.22-1.84A28.32,28.32,0,0,0,223.9,185a81.27,81.27,0,0,0-13.94-4,201.51,201.51,0,0,0-23.52-3.31c-4.75-.24-9.14.37-14.3-.27-1.73-.22-3.12-.68-4.46-.72a4.29,4.29,0,0,1-1.51,0c-3.41-.59-6.61-1.92-9.25-2.33a14.77,14.77,0,0,1-3.74-2.13c-1.29-1-2.37-1.9-2.62-1.8-1.84.66-.55.22-4.27-1.84a21.71,21.71,0,0,1-3-1.23c-1.42-1-2.26-1.76-3.28-2.35-.5-.32-1.05-.6-1.63-1s-1.2-.9-2-1.52a14.68,14.68,0,0,1-2.68-2.47,17.71,17.71,0,0,1-1.72-2.1c-.25-.38-.41-.63-.76-1.1s-.85-1-1.28-1.71l-.68-1c-.12-.16-.25-.32-.37-.49l-.35-.65c-.47-.87-1-1.75-1.54-2.59l-1-1.72c-.53-.94-1.15-2.12-1.77-3.41a3.42,3.42,0,0,1-.9,0l-.44-.11-.21-.07c-.07,0-.13-.11-.22.12l-.86,1.5c-.2.37-.29.59-.29.59a38,38,0,0,0-4,9.42c-.4,1.5-.9,3.08-1.3,4.37a33.93,33.93,0,0,1-1.49,3.63c-.21,6.27-2.88,14.06-2.75,20.93.07,1.7.17,3.12.16,4.43s.13,2.46.15,3.62a56.36,56.36,0,0,0,.74,7.47c.45,1.65.91,2.85,1.08,3.84s1.6,3.05,2.27,4.59l-.51-.24c.22.53.64,1.58.91,2.09s.07.44-.11.36c-.34-.15-.7-.3-.36.66a43.13,43.13,0,0,0,3.61,6.42,64.51,64.51,0,0,0,5,5.35,1.82,1.82,0,0,1,.69.26l1.61,1.4c.49.13.58-.14.9-.05.52-.44,3,1.18,2.88.29-.08-.29-2.59-3.26-3.29-4.91-.14-.39.6.21,1,.37-1.29-1.83-1.11-2.11-.4-1.52-.28-.44-.54-.89-.54-.89l.58.22c-2.8-4.92-4.58-10.85-6.43-15.68-.41-1-1.13-2.74-1.61-3.92a11.18,11.18,0,0,1-.32-2.48c-.53-.77-.94-.56-1.42-.84,0-1-.09-2.26-.14-3.6s0-2.74,0-4c0-2.56,0-4.48-.88-4.4.35-3.14-.31-3.9.1-7.3.29-2.25.68-4.81,1.19-7.5.27-1.33.53-2.71.85-4.09l.48-2.08.48-1.91a26.49,26.49,0,0,1,1.65-5.2,11.31,11.31,0,0,1,.91-1.77l.17-.28c.06-.1.13-.24.16-.06l.26.56.49,1.12a12.63,12.63,0,0,0,1.07,2.07,10.48,10.48,0,0,0,1.24,1.85c.12.14.2.33.31.48l.18.24.31.39a18.37,18.37,0,0,0,1.29,1.49l2.76,2.7a59.7,59.7,0,0,0,12.28,8.21,90.75,90.75,0,0,0,28.58,8.56c11.44,1.36,23,2.24,34.06,4.22A99.77,99.77,0,0,1,222,190.13c4.71,1.65,8.93,4.5,12.75,7.33,7.58,5.7,13.12,12.32,15.47,17.71a14.78,14.78,0,0,1,1.47,6.49,7.7,7.7,0,0,1-.76,3Z"/><path class="cls-1" d="M77.05,100.87c1.58,2.81,3.08,5.24,3.55,5.34,3.52.67.9.25,7,6.47.72.77,3.73,2.54,5.19,4,4.83,5.16,6.81,6.15,13.26,11.18l10.73,7.8a64.59,64.59,0,0,0,10.52,6.21c.58.31,4.55,2.45,8.42,4.41s7.65,3.72,7.65,3.72c5.74,3.06,10.61,5.11,15.13,7s8.73,3.65,13.35,5.85c11.35,3.07,26.14,7.83,37.79,11.73A81,81,0,0,1,223,180.38a123.32,123.32,0,0,1,11.36,7.12,62.59,62.59,0,0,1,5.83,4c1.38,1.12,5.16,3.24,7.46,5.22l-.81-.19c.8.63,2.3,2,3.05,2.64s.48.6.21.53c-.53-.15-1.06-.29.16,1a118.72,118.72,0,0,1,8.77,9.24,38,38,0,0,1,6.86,10.5,2.09,2.09,0,0,1,.9.72,35.55,35.55,0,0,1,1.42,3.38c.71.43,1.23-.13,1.74.16.78-.43,1.93.43,3.27,1.07s2.79,1.12,3.4.11c.11-.35-.79-2.19-2-4.31l-1.85-3.22c-.64-1-1.21-2-1.6-2.77s1.12.52,2.07.87c-2.89-3.56-2.81-3.92-1.18-2.77L270.73,212l1.18.48-5.76-6.83c-1.9-2.33-3.84-4.7-5.94-6.91a81,81,0,0,0-13.39-11.62c-2-1.4-5.42-3.45-7.75-4.74-1.17-.61-3.53-2.37-4.45-2.91-1.77-.66-1.74-.17-2.6-.25a100.13,100.13,0,0,0-14.25-7.43c-5-2.08-9.11-3.29-9.08-2.54-6.18-2.17-7.63-1.9-14.09-3.8C186,163,175.24,160,165.06,155.77c-5.61-2.19-10.87-4.66-16.08-7.31-1.95-1-3.84-2-5.61-2.93A209.81,209.81,0,0,1,117.21,129a181.27,181.27,0,0,1-21.37-19A200.64,200.64,0,0,1,77.1,88.76a101.65,101.65,0,0,1-7.77-12.15A70,70,0,0,1,66.17,70a39.5,39.5,0,0,1-1.7-4.6c-.2-.8-.65-1.81-.09-2.55s1.56-.49,2.38-.63a16.78,16.78,0,0,1,5.32.6A45.52,45.52,0,0,1,85.84,70c8.62,6.38,16.43,14.09,24,21.66s15.14,15.21,23.19,21.88a147.57,147.57,0,0,0,25.14,16.7,285.26,285.26,0,0,0,46.15,19.06c6.52,2.07,11.89,3.77,15.54,5.57a35.94,35.94,0,0,1,7.68,4.92,43.29,43.29,0,0,1,4.85,2.23,26,26,0,0,0-10.06-9.05c-5.17-2.83-12.81-4.73-20.66-7.14-15.67-4.69-31.63-11.14-40.74-16.22a118.44,118.44,0,0,1-16-9.64c-3.06-2.35,4,3.12,16,9.64a208.5,208.5,0,0,0,19.89,8.79,199.79,199.79,0,0,1-24.21-13.9,130.81,130.81,0,0,1-13.62-8.2C123.52,102.76,109.29,84.32,91.14,69a60.13,60.13,0,0,0-15.48-9.72c-.85-.3-1.65-.65-2.52-.89a26.92,26.92,0,0,0-3-.75,20.13,20.13,0,0,0-2.9-.43A26.53,26.53,0,0,0,64.49,57a16.64,16.64,0,0,0-2.52.22,5.1,5.1,0,0,0-2.19.65,2.74,2.74,0,0,0-1.2,1.7,6.29,6.29,0,0,0-.18,1.73,4,4,0,0,1,1-3.3A6.4,6.4,0,0,1,62.83,57a24,24,0,0,1,7.78.43,32.21,32.21,0,0,1,7,2.27,50.08,50.08,0,0,1,6,3.19c7.6,4.8,14,10.78,20.33,16.71,12.59,12,24.22,24.79,38.19,34.54-.75-.54-1.44-1.16-2.13-1.74-14.3-10.77-26.1-24.6-39.54-37.14-2.32-2.09-4.66-4.2-7.14-6.36,2.45,2.07,4.81,4.2,7.14,6.36,6.05,5.49,11.82,10.88,18.18,16.9,3.85,3.79,8.08,8.26,12.11,11.78,3.25,2.92,6.09,5.76,9.25,8.46,1.05.81,2.13,1.6,3.23,2.35s2.17,1.54,3.31,2.25c.69.36,1.42.76,2.16,1.2l-.08-.09c-1.11-1.36-5.47-4.59-10.93-9.53S125.55,97,118.9,90,105.34,75.85,99.1,70.27,87.19,60.63,84.38,59.19a39,39,0,0,0-6.93-3c-.59-.21-1.22-.35-1.83-.52l-.92-.24c-.33-.06-.58-.11-1.09-.23a44.84,44.84,0,0,0-5.12-.71,22.29,22.29,0,0,0-8.91,1.34,4.62,4.62,0,0,0-1.71,1.32,4.32,4.32,0,0,0-.85,2,15.12,15.12,0,0,0,.11,4.52c.85,4.4,2.42,9.14,3.58,11a14.35,14.35,0,0,1,1.71,2.49c3.13,6.22,6.44,12.42,10.18,16.26A62,62,0,0,1,77.05,100.87Z"/><path class="cls-1" d="M233.75,153.85a49.44,49.44,0,0,0,6.9,11.57c2.59,3.3,5.23,6,7.37,8.31a37.77,37.77,0,0,1,4.6,5.54l.57.95.29.73c.25.46.15.74.24,1l.42.05.33.06.8.19c.64-.75,1-2.28-.33-4.41s-3.74-4.61-6.47-7.22a77.8,77.8,0,0,1-7.86-8.42,35.88,35.88,0,0,1-4.76-8.23,37,37,0,0,1-1.8-4.7,34.16,34.16,0,0,1-.84-3.69c-.16-.88,0-.32.39,1.24a47.75,47.75,0,0,0,2.25,7.15,39.79,39.79,0,0,0,5.57,8.81,38.42,38.42,0,0,1-4.41-12.6,43.66,43.66,0,0,1-2.32-6.78,67.36,67.36,0,0,1-2.23-15.62,37.31,37.31,0,0,1,.65-7.7,26.45,26.45,0,0,1,2.38-7.21,25.37,25.37,0,0,1,4.22-6.24,4.52,4.52,0,0,1,2.52-1.77,1.62,1.62,0,0,1,1.41.72,1.76,1.76,0,0,0-1.13-.53,2.16,2.16,0,0,0-1.33.58,11.61,11.61,0,0,0-1.7,1.81,15.34,15.34,0,0,0-1.61,2.16A26.2,26.2,0,0,0,234,119.68c-1.27,7.32-.31,15.07,1.68,22.45-.06-.42-.12-.83-.15-1.25-1.68-7.81-2.28-16-.23-23.27a11.64,11.64,0,0,1,.54-1.83,10.76,10.76,0,0,1,.75-1.79,15.3,15.3,0,0,0-.7,1.78,13.14,13.14,0,0,0-.59,1.84,34,34,0,0,0-.52,10.32,54.77,54.77,0,0,0,.39,7.32c.27,1.91.22,3.74.36,5.63.29,1.16.51,2.38.88,3.49.16.3.33.64.47,1,0,0,0,0,0,0,.56-1.63-.87-10-.33-17.94a36.43,36.43,0,0,1,2-10.51,34.86,34.86,0,0,1,2.65-5.58c.35-.72.7-1.43,1.06-2.15a6.92,6.92,0,0,0,.65-1.62,5,5,0,0,0-.3-.75,1.59,1.59,0,0,1,.33.25c.55.6.58,1.59,1.09,2.25.22,0,.48.36.7.82.5,2.71-.3,5.55.18,7.85.15,1.59-3.34,5.87-2.75,6.34,2,1.54.49.34.21,4.54-.06.51.81,2.21.79,3.25a10.44,10.44,0,0,0,.45,4.19,46.5,46.5,0,0,0,1.73,4.42c1.45,2.77,2.31,4.32,3.16,5.8a14.66,14.66,0,0,0,3.78,4.34c.23.2,1.68,1.7,3.06,3.13s2.76,2.76,2.76,2.76c3.71,4.62,6.74,6.85,8.95,11,4.23,3.35,8.06,9.36,11.72,13.59s4.5,6.57,6.72,10.88a16.6,16.6,0,0,1,1.58,2.79c.25.77,1.7,2.18,2.28,3.43l-.45-.15.74,1.66c.18.42,0,.36-.11.31-.3-.1-.6-.2-.38.57a26.84,26.84,0,0,1,1.59,5.48,15.46,15.46,0,0,1,.71,2.71c.19.91.37,1.81.49,2.7a.88.88,0,0,1,.53.36l.23,1.6c.47.23,1,0,1.38.16a4.14,4.14,0,0,1,2.34.69,2.78,2.78,0,0,0,2.48.31c.35-.3-.51-3.72-.48-5.37,0-.39.77.3,1.33.54-.84-2-.51-2.18.27-1.49l-.4-.94.77.31c-.55-1.27-1-2.6-1.51-3.91s-1.08-2.62-1.58-3.95a42.74,42.74,0,0,0-3.57-7.41,27.09,27.09,0,0,0-2.48-3.39,18.56,18.56,0,0,1-1.16-2.17c-.71-.56-1-.24-1.45-.34-1.76-3.34-6-10.31-7-9.2-1.79-2.4-2.64-2.48-4.65-4.81l-9.36-10.83c-1.86-2.05-3.52-4.12-5.21-6.2-.64-.77-1.22-1.53-1.8-2.25-1.57-1.94-3-3.87-4.35-5.77a47,47,0,0,1-3.55-5.59,21.07,21.07,0,0,1-2.36-11.31c.12-4,.9-8.17,1.23-12.85a40,40,0,0,0-.09-7.4,16.23,16.23,0,0,0-1-4.27,12,12,0,0,0-2.69-4.21,8.23,8.23,0,0,0-2.56-1.73,6.49,6.49,0,0,0-3.4-.46,6.75,6.75,0,0,0-3,1.12A10.25,10.25,0,0,0,237,102.6a30.13,30.13,0,0,0-4.57,6.93A38.78,38.78,0,0,0,228.86,125a72.18,72.18,0,0,0,1.1,15A65.91,65.91,0,0,0,233.75,153.85Zm8.78-47.33Z"/><path class="cls-1" d="M122.41,16.6a14.09,14.09,0,0,0,.09,5.13c.09.79,1.43,3,1.75,4.38.91,4.82,2,5.87,4.06,11,.79,1.9,1.41,3.4,2,4.71l1.36,3.57a30.84,30.84,0,0,0,3.84,7.31c.35.83,6.23,10.43,6.23,10.43C146,70.82,149.49,75,152.49,81.21c5.19,6,10.82,14.88,16.51,21.1,1.41,1.55,2.58,2.92,3.62,4.17s2,2.35,2.88,3.48l2.64,3.43,3.15,3.83c1.43,1.56,2.57,2.66,3.33,3.63s3.32,2.63,4.78,4.15l-.65-.08c.5.51,1.46,1.54,2,2s.28.47.07.45c-.44,0-.88-.09-.09.87,2.07,2.11,4.18,4.27,6.4,6.44l7,5.67a1.63,1.63,0,0,1,.93.11l2.12,1.57c.67,0,.87-.52,1.32-.52.81-1,4.45.27,4.61-1.35,0-.51-4-3.62-5.41-5.43-.3-.45.91,0,1.61-.07-2.38-1.72-2.2-2.19-1-1.76l-1.05-.89h.9c-5.67-4.75-11.1-11-16.54-15.68-1.17-1-3.2-2.61-4.52-3.71a28.61,28.61,0,0,1-2.28-2.56c-1.1-.6-1.29-.18-1.93-.27-1.69-2.08-4.34-5.35-6.63-8s-4.2-4.66-4.64-4.06c-2.73-3.3-3.72-3.6-6.61-7-1.86-2.3-3.89-5-6-7.8s-4.28-5.89-6.23-9l-3.25-5-2.92-5.11c-.72-1.27-1.47-2.49-2.06-3.71a153.79,153.79,0,0,1-14-37.24,32.24,32.24,0,0,1-.84-8.64l.09-1,.13-.8a9.48,9.48,0,0,1,.29-1.2,7.35,7.35,0,0,1,1.23-2.22,6.74,6.74,0,0,1,.91-.94,2.5,2.5,0,0,1,1.3-.08,4.27,4.27,0,0,1,2.23,1.43,10.94,10.94,0,0,1,.91,1.09c.14.2.28.37.43.62l.62,1c.83,1.41,1.61,2.93,2.4,4.51,1.58,3.19,3,6.56,4.59,10a56,56,0,0,0,2.63,5.11l2.78,4.87C154,43,157.84,49.33,161.92,55.38,170,67.59,178.4,78.9,186.23,89c15.69,20.15,29.46,35.31,34.82,40.58l4.16,1.74c-2.63-4.49-10.06-11.93-17.51-20s-15-16.74-19.21-22.33c-3.32-4.22-5.79-7.47-7.47-10-1.42-2.15,2,2.68,7.47,10,2.59,3.15,5.65,6.87,9.43,11.12-2-3-3.94-5.91-5.64-8.65s-3.27-5.22-4.49-7.34c-2.32-2.67-4.53-5.48-6.78-8.32-9.82-12.56-18.74-25.22-26.17-39.1-.71-1.24-1.53-2.89-2.49-4.71s-2.07-3.78-2.9-5.8c-1.73-4.08-3.26-8.38-4.24-11,1.17,2.71,2.23,5.44,3.33,8.09a62.57,62.57,0,0,0,3.67,7.66c1.36,2.55,2.74,5.07,4.23,7.54s2.94,5,4.48,7.4A297,297,0,0,0,181.07,74c-.34-.53-.69-1-1-1.57a310.68,310.68,0,0,1-20.39-30.06c-1.11-1.73-2.09-3.56-3.11-5.43,1,1.8,2,3.65,3.11,5.43,2.85,4.55,5.94,8.77,9.4,13.48,1,1.48,2.09,3.1,3.13,4.73s2.19,3.21,3.26,4.66c1.71,2.42,3.1,4.78,4.6,7.19,1.07,1.46,2.21,2.87,3.34,4.29.38.37.78.77,1.17,1.21a.24.24,0,0,1,0-.08C183.91,75.39,176.78,65,170,54.16s-13.1-22.37-15-25.57a130.89,130.89,0,0,1-9.18-15.66c-1.06-2.13-1.63-4-3-5.64-.33-.09-1.06-1.09-1.9-1.91C139,3,136.81.82,134.08.19a5.73,5.73,0,0,0-3.88.3c-.51.34-1,.68-1.47,1A11.17,11.17,0,0,0,127.59,3c-.55.59-1.21,1.48-2.13,2.43-.4.53-.84,1.11-1.28,1.71s-.77,1.33-1.18,2a11.42,11.42,0,0,0-.92,2.25,9.85,9.85,0,0,0-.53,1.55c-.24.9-.36,1.56-.21,1.71C122.38,15.77,122.51,15.88,122.41,16.6Z"/><path class="cls-1" d="M259.12,143.32l.25,1c.32.22.67.17.88.31.91,0,1.71,1.45,2.52,1.14.25-.12.42-2,1-2.78.15-.19.41.28.71.48.13-1.07.5-1.1.74-.65l.12-.49.41.28c.77-2.66,2.27-5.45,2.46-8a13.81,13.81,0,0,0,0-2.13,3.44,3.44,0,0,1,.49-1.16c-.24-.49-.7-.52-1.05-.79.85-1.83,3-5.46,1.42-5.8.58-1.44,0-2,.46-3.51.35-1,.73-2.17,1.23-3.35.29-.71.32-.89.49-1.3s.29-.75.46-1.12a12.41,12.41,0,0,1,1.2-2.39l.5-.82a9.11,9.11,0,0,1,3.09-3.12,11.55,11.55,0,0,1,3.1-1.3,20.17,20.17,0,0,1,3.52-.73,2.07,2.07,0,0,1,1.75.78,4.14,4.14,0,0,1,.54,1.08c.21,1.15-1.14,5.15-2.13,9.11-.27,1.08-.55,2.15-.82,3.2-.27,1.36-.64,2.71-.9,4-.54,2.67-1.06,5.3-1.4,7.84a87.48,87.48,0,0,0-.83,21.28,17.92,17.92,0,0,1-5.52-4.59c-1.1-1.56-1.24-2.69-1-2.92a7.63,7.63,0,0,1-1,.9,2.33,2.33,0,0,0-.53,2.31,4.38,4.38,0,0,0,.24.66c.14.21.29.42.45.64a6.64,6.64,0,0,0,1.2,1.24c1.85,1.58,4.37,2.81,5.83,3.86a19.24,19.24,0,0,1,2.74,1.62c.56.42-.82-.22-2.74-1.62-.9-.46-1.94-1-3.13-1.63,1.17,1.82,2.48,3.52,3.42,4.85.85.25,1.7.53,2.57.82,3.84,1.22,7.66,1.88,11.34,3.28,1.33.52,4.25,1.21,5.22,2.12a63.24,63.24,0,0,0-8-2.07c-2.8-.6-5.65-1.17-8.51-1.85a4,4,0,0,1,.42.3c2.95,1,5.91,1.85,8.79,2.72a6.36,6.36,0,0,1,1.47.45l-1.47-.45c-1.31-.25-2.65-.15-4.12-.3-.88-.2-1.84-.81-2.73-1a6.46,6.46,0,0,1-1.94-1.39l-1.32-.45a1.6,1.6,0,0,1-.44,0v0c.28,1.4,3.2,3.44,6.25,4.92s6,2.52,6.9,2.44a6.68,6.68,0,0,0,2.21-.84,3.49,3.49,0,0,1,2.21-.59c.49.09.71.66,1.22.4a1.38,1.38,0,0,1,.65-.5c1.05.18,1.42,1.54,2.49,1.11.32,0,.32,1,.18,2s-.3,1.82-.05,1.52c1.86-2.14.55-.58,1.3.13,0,.11,1.08-.52,1.22-.26a.78.78,0,0,0,.78.66,3.85,3.85,0,0,1,1.26.34,1.58,1.58,0,0,1,1.21,1.17c.17.43.51.67,1.53.92a9,9,0,0,1,1.23.85,4.93,4.93,0,0,1,.69.63l.29.31a4.9,4.9,0,0,0,.52,1.23c.17.37.33.74.45,1.09a2.16,2.16,0,0,1-.37,2.3,3.13,3.13,0,0,1,.76,2.94,17.71,17.71,0,0,0-.32,3.15c.2,2-.91,2.73-1.83,4.3-.18.47-.13.85-.4,1.09s.37,1,.19,1.53l-.48-.22c-.06.16-.19.47-.25.62s-.22.09-.37,0c-.32-.14-.63-.28-.9-.05a10.07,10.07,0,0,0-.84,1.94c.16.73.32,1.48.49,2.27a1.93,1.93,0,0,1,.54.32l.23.7c.41.24.89.32,1.17.47,1.24.32,2.22,1.5,3.37,1.59.34,0,.78-1.2,1.53-1.61.22-.08.54.32.95.56.22-.73.72-.65,1-.26l.19-.32.54.32c1.17-1.7,3-3.62,2.92-5.66a6.21,6.21,0,0,0-.32-1.67c-.08-.25.35-.71.44-.89-.41-.4-1-.42-1.49-.63a12.15,12.15,0,0,0,1.19-2.74c.2-1,0-1.79-1-1.78.2-1.19-.68-1.44-.78-2.67a48.24,48.24,0,0,0-.7-5.8c-.39-1.11-.46-2.23-.86-3.32-.13-.41-.27-.81-.39-1.18A28,28,0,0,0,311,164.56a16.8,16.8,0,0,0-10.2-5.09,97.42,97.42,0,0,1-11.53-1.34,35.47,35.47,0,0,1-7.6-2.49c.48-2.63,0-6.4-.12-10.27a48.23,48.23,0,0,1,.54-11.69,22.49,22.49,0,0,1,1-4.79c.17-.48.14-.16-.06.71s-.57,2.3-1,4.08a24.42,24.42,0,0,0-.23,2.6c-.05.95-.13,2-.1,3.1a45.44,45.44,0,0,1,3.29-7.31c.05-1.31.22-2.63.38-4s.41-2.9.73-4.32c.16-.72.26-1.39.44-2.15l.56-2.31a43.24,43.24,0,0,1,1.61-4.82c.7-1.64,1.49-3.39,2.26-5,.28-.6.65-1.46,1-2.23s.66-1.62,1-2.47c.71-1.58,1.44-3.1,2-4.13-.73,1.77-1.5,3.59-2.24,5.81s-1.77,4.79-2.83,7.41a41.19,41.19,0,0,0-2.13,7.55c-.14.63-.23,1.15-.31,1.65l-.26,1.54c-.19,1-.25,2.07-.39,3.11.09-.22.17-.44.28-.66.17-1.08.37-2.15.64-3.21l.37-1.6.49-1.94c.17-.67.28-1.31.51-2l.78-2.13a44.49,44.49,0,0,1,1.85-4.42c.21-.51.42-1,.64-1.53s.41-1,.65-1.5l-.59,1.46-.7,1.57a24.35,24.35,0,0,0-1.26,3.85c-.15.65-.31,1.31-.47,2-.08.34-.16.68-.25,1s-.08.65-.12,1a23.51,23.51,0,0,1-.69,2.54,19.64,19.64,0,0,0-.56,2,16.91,16.91,0,0,1-1.29,2.9c-.12.65-.26,1.3-.32,2a3,3,0,0,1,.11.61l0,0a9.17,9.17,0,0,0,2.14-3.34c.35-.84.84-1.77,1.24-2.76l.3-.74.38-1.12c.24-.78.48-1.57.73-2.35a17.27,17.27,0,0,1,1.05-2.65l1.19-2.78,2.73-5.49c.6-1.53,1.06-2.87,1.43-4a4.55,4.55,0,0,0,.32-1.29,3.28,3.28,0,0,0,0-.68,2.75,2.75,0,0,0-1-2.07,1.83,1.83,0,0,1-.6-1.73c0-.54.45-1.5.08-1.74-.2.14-.38,0-.58-.12-.11-1.48-1.35-3.81-3.12-3.47-.56,0-.85-.89-1.07-1.73s-.42-1.72-.74-1.36c-2.34,2.75-.61.72-2.66.66-.23-.07-1.73,1.41-2.19,1.41-1.49-.17-2.54,1.12-4.72,2.55a16.5,16.5,0,0,1-3.34,2.12,7.66,7.66,0,0,0-3,3.13c-.15.24-1.18,1.51-2,2.8a19.79,19.79,0,0,0-1.05,1.79l-.43.82a12.25,12.25,0,0,0-1.49,2.28c-.42.79-.8,1.51-1.14,2.22a10.9,10.9,0,0,1-1.13,1.88,9.86,9.86,0,0,1-1.46,1.78c-.07.55-.2,1.08-.25,1.6a9.14,9.14,0,0,1-.34,1.26c-.28.81-.6,1.62-1,2.44a23.15,23.15,0,0,0-1.75,4.88c-.59,3.15-1.62,4.25-2.67,6.93a9.42,9.42,0,0,1-.48,1.83c-.25.43.17,1.66,0,2.44l-.36-.25c-.06.26-.17.79-.22,1.05s-.16.18-.28.1-.48-.34-.69.11a23.89,23.89,0,0,0-.61,3.45c.13,1.19.35,2.37.54,3.52A1.08,1.08,0,0,1,259.12,143.32Z"/><path class="cls-1" d="M257.14,432.77l.06.09h0l0-.08Z"/><path class="cls-1" d="M357.93,410.54c-1-.76-.84-1.06-.26-1l-.43-.4.47-.12c-2.28-2.25-5.21-4.6-8.28-5.41a14.76,14.76,0,0,0-2.5-.49,10.31,10.31,0,0,1-1.37-.53c-.57.09-.57.38-.86.58-2-.93-6.79-2-6.76-1.08-1.75-.23-2.14.15-4,.1a57.81,57.81,0,0,0-8.43.58c-1.62.26-3.16.53-4.71.88-.57.13-1.13.24-1.66.39-11.41,3-19.24,7-29,12.78-5.5,3.32-11.2,6.63-16.85,9.4a96.24,96.24,0,0,1-15.18,6.06,38.71,38.71,0,0,0,8.41-7.56,31.5,31.5,0,0,0,4.82-7.73,13,13,0,0,0-.75-2.26c-1.84,2.43-3.54,6.33-5.84,9.76a34.32,34.32,0,0,1-7,7.91l-.06,0c.47-.39,1-.84,1.58-1.4l-1.69,1.43-.48.15h0l0,.06h0l.32-.09h0l-.3.09,0,0,.2-.06-.15.14,0,0,.23-.19h0l-.27.21,0,.06c.18-.11.34-.24.51-.35,1.52-.41,2.75-.78,3.75-1.08,1.31-.45,2.62-.92,3.95-1.43a168,168,0,0,0,16.73-7.86c2-1,6.3-3.36,8.25-4.31-8,4.25-16,8.71-24.42,12-.45.17-.89.35-1.34.51l-.62.24h0a99.36,99.36,0,0,0,10.19-4c4.67-2.09,9.37-4.47,10.68-5.18,2.1-1.13,3.9-2.37,6.22-3.64.78-.42,1.47-.7,2-1.07a4.08,4.08,0,0,1,.61-.44c1.55-.84,3.21-1.47,4.35-2.2.82-.49,3.56-.89,3.69-1.09.43-.8.11-.24,2.17-1.07a15.22,15.22,0,0,1,1.46-.85,40.1,40.1,0,0,0,4.07-1.76c2.83-1.25,3.61-1,6.11-2.24.15-.07,1.24-.45,2.3-.82l2.1-.65c3.29-.62,5.32-1.28,8-.9,3-.72,7,0,10.13.44s4.36,1.27,6.78,2.53a8.81,8.81,0,0,1,1.63.8c.34.32,1.5.37,2.15.8l-.28.16.85.56c.21.14.11.19,0,.24s-.39.22-.07.54c.82.65,1.64,1.31,2.44,2,.93.48,1.81,1,2.7,1.55a.81.81,0,0,1,.45-.11l.81.48c.34-.09.51-.37.74-.42.56-.62,2.17-.24,2.48-1,0-.23-1.32-1.73-1.82-2.57C357,410.52,357.56,410.63,357.93,410.54ZM257.57,432.6h0Zm2.4-.72c-.59.21-1.24.39-2,.62h0c.75-.21,1.45-.41,2-.61,2-.63,3.47-1.17,4.58-1.58C265.49,429.94,263.34,430.82,260,431.88Zm14-5.24c-1.3.61-2.8,1.25-4.11,1.82-1.08.46-2.08.85-3.12,1.23,4.45-1.75,8.77-3.82,13-6C277.86,424.69,276,425.64,273.94,426.64Z"/><path class="cls-1" d="M257.16,432.77l0,.08h0l-.05-.08h0Z"/><polygon class="cls-1" points="257.14 432.73 257.13 432.73 257.16 432.77 257.16 432.76 257.14 432.73"/><polygon class="cls-1" points="257.21 432.85 257.23 432.89 257.23 432.88 257.21 432.85 257.21 432.85"/><path class="cls-1" d="M257.23,432.88h0Z"/><path class="cls-1" d="M257.16,432.73h0Z"/><path class="cls-1" d="M369,335.57a5.54,5.54,0,0,0-.75-1.7c-.14-.24.28-.79.35-1a6,6,0,0,0-2-.41c.76-1.43,1.66-5.14-.82-4.59-.08-1.27-1.26-1.25-1.68-2.41a29.1,29.1,0,0,0-2.66-5.24c-.74-.9-1.36-1.83-2.12-2.71-.29-.32-.59-.61-.89-.89a26.15,26.15,0,0,0-10-5.75,17.64,17.64,0,0,0-9.31-.62,10.9,10.9,0,0,1-8.52-1.24,14.68,14.68,0,0,1-5.46-6.26,14.87,14.87,0,0,1-1.39-6.53,32.2,32.2,0,0,1,.44-3.69c-.48,0-1-.06-1.48-.11-1.44,1.3-1.69,3.47-1.23,5.65a49,49,0,0,0,2,5.86,20,20,0,0,1,1.17,2.56c.23.61-.55-.53-1.17-2.56-.4-.79-.88-1.69-1.34-2.78a41,41,0,0,0-.3,5.61c.53.62,1.06,1.26,1.6,1.91a34.42,34.42,0,0,0,9,6.84c1.26.79,4.3,1.44,5.52,2.14a27.4,27.4,0,0,1-8.3-2.64,30.75,30.75,0,0,1-6.94-5,2.76,2.76,0,0,1,.2.47,29.31,29.31,0,0,0,7.16,5.91c-1.31-.57-2.68-.91-4.06-1.63-.78-.55-1.4-1.54-2.1-2.14a5.5,5.5,0,0,1-1-2.14l-.87-1a1.49,1.49,0,0,1-.39-.17v0c-.52,1.33.79,4.66,3.4,7.44s6.44,4.75,7.64,4.69c1.92.1,3.74-1.64,5.41-1.7.58,0,1,.53,1.43.12a1.49,1.49,0,0,1,.54-.69c1.06-.07,2,1.07,2.81.26.61-.29,1.44,4.35,1.61,3.51.8-3,.24-.82,1.24-.46.13.07.73-1.09,1-.93.65.87,1.1-.12,2.08-.21a1.15,1.15,0,0,1,1.36.31c.27.26.55.33,1.51-.16a4,4,0,0,1,1.3-.06,8.92,8.92,0,0,1,1.17.19c.92,1.18,2.71,1.42,1.69,3.45a2,2,0,0,1,1.5,2,10.23,10.23,0,0,0,.23,2.61c.58,1.58-.61,2.41-1.57,3.74-.14.39,0,.69-.35.9s.6.83.42,1.24l-.63-.16-.23.51c-.06.13-.27.07-.48,0a1.51,1.51,0,0,0-1.16,0,6.79,6.79,0,0,0-.88,1.54l.88,1.92a3.67,3.67,0,0,1,.75.31l.37.62c.58.24,1.22.34,1.6.5,1.68.35,3.12,1.5,4.67,1.65.45,0,.86-1.08,1.78-1.44.27-.07.76.32,1.32.56.17-.69.83-.62,1.31-.22l.19-.31.76.32C367.5,339.77,369.53,337.71,369,335.57Z"/></svg>