<?xml version="1.0" standalone="no"?>
<!DOCTYPE svg PUBLIC "-//W3C//DTD SVG 20010904//EN"
 "http://www.w3.org/TR/2001/REC-SVG-20010904/DTD/svg10.dtd">
<svg version="1.0" xmlns="http://www.w3.org/2000/svg"
 width="200.000000pt" height="200.000000pt" viewBox="0 0 200.000000 200.000000"
 preserveAspectRatio="xMidYMid meet">
<metadata>
Created by potrace 1.14, written by Peter Selinger 2001-2017
</metadata>
<g transform="translate(0.000000,200.000000) scale(0.100000,-0.100000)"
fill="#000000" stroke="none">
<path d="M800 1981 c-302 -65 -554 -260 -690 -536 -59 -120 -86 -214 -100
-350 -31 -304 78 -605 296 -816 135 -130 286 -215 466 -261 69 -17 104 -19
266 -16 180 4 190 5 282 36 283 98 505 301 615 561 56 134 65 187 65 402 0
229 -11 284 -90 444 -139 281 -401 481 -710 539 -110 21 -292 20 -400 -3z"/>
</g>
</svg>
